<svg xmlns="http://www.w3.org/2000/svg" xmlns:xlink="http://www.w3.org/1999/xlink" version="1.1" width="481.25" height="181.45950317382812" viewBox="-0.5 0.04050004482269287 481.25 181.45950317382812">
  <defs>
    <linearGradient id="grad_1" y2="1" x2="0">
      <stop offset="0" stop-color="#8EA5B7" stop-opacity="0"/>
      <stop offset="1" stop-color="#8EA5B7" stop-opacity="1"/>
    </linearGradient>
  <linearGradient id="grad_1-,0,0,1,0,-107" y2="181" x2="0" x1="0" y1="49" gradientUnits="userSpaceOnUse">
      <stop offset="0" stop-color="#8EA5B7" stop-opacity="0"/>
      <stop offset="1" stop-color="#8EA5B7" stop-opacity="1"/>
    </linearGradient></defs>
  <!-- Exported by Scratch - http://scratch.mit.edu/ -->
  <path id="ID0.15636373171582818" fill="#95ADC0" stroke="none" stroke-linecap="round" d="M 0 22.25 L 35.25 28.75 L 73.5 29.5 L 78.25 33.75 L 78.75 43.75 L 85.5 50.75 L 107.25 55 L 127.75 67.5 L 146.75 69 L 154.25 73.5 L 158.5 84.25 L 184.5 91 L 210.25 86.75 L 223 78.75 L 226 74 L 225.5 66.5 L 229.25 62 L 242.25 60.25 L 259.75 59.75 L 280.75 58.25 L 294.75 59.25 L 299 63.75 L 299 68.75 L 297.5 75.25 L 320.5 86.5 L 344.5 89.75 L 365.5 86.25 L 369.5 80.75 L 367.5 73 L 369.75 67.5 L 395.75 59.25 L 397.75 55 L 395.25 51.75 L 395.75 46 L 404.75 41.25 L 434 34 L 453 33 L 471 32.75 L 480.25 28.5 L 480 179 L 0 179 L 0 22.25 Z " stroke-width="1"/>
  <g id="ID0.32532088877633214">
    <path id="ID0.5138625972904265" fill="#95ADC0" stroke="none" d="M 247.5049 56.9476 L 248.9301 56.8358 L 249.1945 60.2045 L 247.7693 60.3164 L 247.5049 56.9476 Z " stroke-width="0.12996469923060328"/>
    <path id="ID0.6377782253548503" fill="#95ADC0" stroke="none" stroke-linecap="round" d="M 245.3352 53.4568 L 246.1036 52.4513 L 249.3428 52.1971 L 250.488 53.085 L 250.7117 55.9354 L 250.0703 56.8983 L 246.5072 57.178 L 245.5538 56.2425 L 245.3352 53.4568 Z " stroke-width="0.12996469923060328"/>
    <path id="ID0.6377782253548503" fill="#95ADC0" stroke="none" stroke-linecap="round" d="M 245.0749 49.1634 L 245.7757 48.2465 L 248.7296 48.0147 L 249.774 48.8243 L 249.978 51.4238 L 249.393 52.3019 L 246.1437 52.5569 L 245.2742 51.7038 L 245.0749 49.1634 Z " stroke-width="0.11852127806761818"/>
    <path id="ID0.6377782253548503" fill="#95ADC0" stroke="none" stroke-linecap="round" d="M 245.0166 45.5541 L 245.578 44.8196 L 247.9444 44.6338 L 248.7811 45.2825 L 248.9445 47.3649 L 248.4759 48.0684 L 245.8728 48.2727 L 245.1763 47.5892 L 245.0166 45.5541 Z " stroke-width="0.09494798806015209"/>
  </g>
  <g id="ID0.13338996097445488">
    <path id="ID0.5138625972904265" fill="#95ADC0" stroke="none" d="M 49.6052 25.6657 L 51.1655 25.8197 L 50.8015 29.5077 L 49.2411 29.3537 L 49.6052 25.6657 Z " stroke-width="0.14253611817743883"/>
    <path id="ID0.6377782253548503" fill="#95ADC0" stroke="none" stroke-linecap="round" d="M 48.4519 23.0624 L 49.9245 21.2026 L 51.4139 21.3497 L 52.8771 23.2128 L 53.9376 26.2537 L 50.3205 25.8967 L 46.8383 25.6245 L 48.4519 23.0624 Z " stroke-width="0.14253611817743883"/>
    <path id="ID0.6377782253548503" fill="#95ADC0" stroke="none" stroke-linecap="round" d="M 48.8101 18.9728 L 50.3245 17.0526 L 51.8139 17.1997 L 53.2003 19.4778 L 54.0481 22.4977 L 50.7205 21.7467 L 47.4592 21.7756 L 48.8101 18.9728 Z " stroke-width="0.14253611817743883"/>
    <path id="ID0.6377782253548503" fill="#95ADC0" stroke="none" stroke-linecap="round" d="M 49.3695 14.6595 L 51.4585 12.3592 L 53.6003 15.3278 L 54.4586 18.2413 L 51.1205 17.5967 L 47.6499 17.5691 L 49.3695 14.6595 Z " stroke-width="0.14253611817743883"/>
  </g>
  <g id="ID0.07672071224078536">
    <path id="ID0.5755643504671752" fill="#95ADC0" stroke="none" stroke-linecap="round" d="M 370.5466 54.4872 L 369.0639 54.7182 L 371.1691 68.229 L 372.6518 67.9979 L 370.5466 54.4872 Z " stroke-width="0.14527907892222214"/>
    <path id="ID0.6377782253548503" fill="#95ADC0" stroke="none" stroke-linecap="round" d="M 373.3811 60.4677 L 372.895 59.0805 L 371.6777 57.3328 L 371.0543 56.7973 L 369.1496 57.5685 L 368.6321 58.7958 L 368.1939 62.2645 L 369.2001 61.7914 L 369.9848 61.6295 L 370.5026 60.8372 L 371.1825 60.6522 L 371.581 60.8273 L 373.3811 60.4677 Z " stroke-width="0.14527907892222214"/>
    <path id="ID0.6377782253548503" fill="#95ADC0" stroke="none" stroke-linecap="round" d="M 373.5498 56.7691 L 371.8858 54.5374 L 369.518 52.3363 L 368.7526 54.7884 L 367.9849 58.3084 L 368.7874 57.8275 L 369.4882 57.5601 L 371.0368 57.3188 L 373.5498 56.7691 Z " stroke-width="0.14527907892222214"/>
  </g>
  <g id="ID0.7277544308453798">
    <path id="ID0.8515107058919966" fill="#95ADC0" stroke="none" d="M 441.5477 17.3586 L 443.0006 17.3679 L 442.8849 35.4489 L 441.432 35.4396 L 441.5477 17.3586 Z " stroke-width="0.3228811278358502"/>
    <path id="ID0.5577249256893992" fill="#95ADC0" stroke="none" stroke-linecap="round" d="M 439.743 21.8675 L 442.4936 20.9164 L 444.0976 22.5411 L 445.3798 24.0023 L 445.2039 26.2614 L 442.1304 27.2104 L 439.8765 26.2273 L 439.0848 23.8006 L 439.743 21.8675 Z " stroke-width="0.3228811278358502"/>
    <path id="ID0.8560941652394831" fill="#95ADC0" stroke="none" stroke-linecap="round" d="M 439.0136 15.9267 L 441.4569 12.552 L 443.4055 10.7886 L 444.6711 14.8328 L 446.2628 18.3947 L 445.1203 20.3247 L 442.0509 20.628 L 438.668 19.4762 L 439.0136 15.9267 Z " stroke-width="0.3228811278358502"/>
  </g>
  <g id="ID0.07672071224078536">
    <path id="ID0.5755643504671752" fill="#95ADC0" stroke="none" stroke-linecap="round" d="M 321.01 76.4312 L 322.2521 76.6337 L 320.4265 87.8358 L 319.1844 87.6334 L 321.01 76.4312 Z " stroke-width="0.12112268888208304"/>
    <path id="ID0.6377782253548503" fill="#95ADC0" stroke="none" stroke-linecap="round" d="M 317.8011 80.6446 L 318.1478 79.3868 L 319.483 78.323 L 320.8182 77.2592 L 322.0015 77.6492 L 322.356 78.4298 L 322.8179 78.8994 L 323.5238 81.6626 L 321.7529 80.5657 L 321.2327 79.7581 L 320.5233 79.9382 L 319.3117 80.0693 L 317.8011 80.6446 Z " stroke-width="0.12112268888208304"/>
    <path id="ID0.6377782253548503" fill="#95ADC0" stroke="none" stroke-linecap="round" d="M 318.6904 76.7209 L 319.968 74.7934 L 321.2339 73.9812 L 322.7125 74.1236 L 323.3462 75.2783 L 323.8055 77.8502 L 323.284 78.0938 L 322.7096 77.9673 L 322.0971 77.9003 L 320.8272 77.6934 L 320.2565 77.3704 L 319.1075 77.1174 L 318.6904 76.7209 Z " stroke-width="0.12112268888208304"/>
  </g>
  <g id="ID0.5213190782815218">
    <path id="ID0.1596489236690104" fill="#95ADC0" stroke="none" d="M 409.9597 32.3298 L 411.3998 32.1373 L 412.8757 43.1785 L 411.4356 43.371 L 409.9597 32.3298 Z " stroke-width="0.30716158967609014"/>
    <path id="ID0.8456291356123984" fill="#95ADC0" stroke="none" stroke-linecap="round" d="M 408.0349 31.958 L 408.7918 30.3095 L 408.2202 27.8614 L 409.105 25.9514 L 411.0732 25.444 L 412.6155 27.8439 L 412.2428 29.9297 L 413.081 31.935 L 413.3377 33.8552 L 412.0421 35.7386 L 409.4069 35.5208 L 408.2971 34.529 L 408.0349 31.958 Z " stroke-width="0.3228810842902655"/>
  </g>
  <g id="ID0.16197650181129575">
    <path id="ID0.2429629685357213" fill="#95ADC0" stroke="none" d="M 355.8187 70.8329 L 357.1051 70.7249 L 358.3669 89.2473 L 357.0805 89.3553 L 355.8187 70.8329 Z " stroke-width="0.3042177471038212"/>
    <path id="ID0.4719710564240813" fill="#95ADC0" stroke="none" stroke-linecap="round" d="M 353.6634 67.7531 L 352.5202 68.777 L 353.8351 65.5261 L 356.3047 62.6064 L 357.9435 64.1103 L 360.7116 67.946 L 358.3025 67.0065 L 359.7709 68.3819 L 361.183 70.119 L 358.5667 69.6964 L 360.5803 71.954 L 361.1884 73.7586 L 357.7487 73.1197 L 355.6389 73.0115 L 351.7155 74.7686 L 353.3762 71.8455 L 354.2733 70.7709 L 351.8485 71.9738 L 353.4095 68.7736 L 354.0043 68.0099 L 353.6634 67.7531 Z " stroke-width="0.3042177471038212"/>
    <path id="ID0.5574884423986077" fill="#95ADC0" stroke="none" stroke-linecap="round" d="M 357.2802 75.9671 L 358.4028 77.0147 L 358.9305 78.8261 L 356.9991 77.775 L 357.2802 75.9671 Z " stroke-width="0.3042177471038212"/>
    <path id="ID0.5574884423986077" fill="#95ADC0" stroke="none" stroke-linecap="round" d="M 356.9395 80.897 L 355.9523 81.8364 L 355.4588 83.3767 L 356.9139 82.1838 L 356.9395 80.897 Z " stroke-width="0.3042177471038212"/>
  </g>
  <g id="ID0.5372698470018804">
    <path id="ID0.996752165723592" fill="#95ADC0" stroke="none" d="M 289.2103 53.3811 L 290.0175 53.3811 L 290.0175 61.4531 L 289.2103 61.4531 L 289.2103 53.3811 Z " stroke-width="0.3228811025619507"/>
    <path id="ID0.3925567790865898" fill="#95ADC0" stroke="none" stroke-linecap="round" d="M 287.7463 49.2866 L 286.5355 48.1565 L 286.5355 47.0264 L 286.9391 44.9277 L 287.827 43.1519 L 289.4414 42.1832 L 291.3787 44.4434 L 291.863 46.4614 L 290.6522 48.3987 L 291.6209 49.9324 L 292.0245 52.5154 L 290.4101 54.2913 L 287.7463 53.7262 L 286.2126 52.7576 L 286.3741 50.4167 L 287.7463 49.2866 Z " stroke-width="0.3228811025619507"/>
    <path id="ID0.4457426266744733" fill="#95ADC0" stroke="none" stroke-linecap="round" d="M 287.7541 55.8834 L 288.5614 55.0762 L 289.53 55.2377 L 289.4493 56.4485 L 288.4806 56.6099 L 287.7541 55.8834 Z " stroke-width="0.3228811025619507"/>
  </g>
  <g id="ID0.9161517578177154">
    <path id="ID0.7481145667843521" fill="#95ADC0" stroke="none" d="M 161.0938 64.4813 L 161.898 64.5512 L 159.6743 90.1238 L 158.8701 90.0539 L 161.0938 64.4813 Z " stroke-width="0.3228810969012993"/>
    <path id="ID0.7664037430658937" fill="#95ADC0" stroke="none" stroke-linecap="round" d="M 159.3736 61.901 L 161.6952 57.5655 L 163.9678 61.2472 L 164.8524 68.7784 L 161.447 65.0792 L 157.8107 67.7609 L 159.3736 61.901 Z " stroke-width="0.3228810969012993"/>
    <path id="ID0.8637174661271274" fill="#95ADC0" stroke="none" stroke-linecap="round" d="M 161.1102 71.0678 L 162.3323 70.7657 L 163.9586 72.8615 L 162.0768 72.027 L 160.803 72.5871 L 161.1102 71.0678 Z " stroke-width="0.5811859866534445"/>
    <path id="ID0.8637174661271274" fill="#95ADC0" stroke="none" stroke-linecap="round" d="M 160.1827 78.3797 L 159.1191 78.1252 L 158.4632 78.9594 L 159.3618 78.8755 L 160.2736 79.1979 L 160.1827 78.3797 Z " stroke-width="0.3228810969012993"/>
  </g>
  <g id="ID0.15554087748751044">
    <path id="ID0.8482902436517179" fill="#95ADC0" stroke="none" d="M 230.9319 58.4305 L 232.2234 58.4305 L 232.2234 64.4038 L 230.9319 64.4038 L 230.9319 58.4305 Z " stroke-width="0.3228811025619507"/>
    <path id="ID0.5404099025763571" fill="#95ADC0" stroke="none" stroke-linecap="round" d="M 229.7132 57.364 L 231.4084 56.5245 L 232.377 57.138 L 233.5071 57.4932 L 234.0237 58.9138 L 233.6363 60.5605 L 231.9734 61.287 L 229.7617 60.7543 L 229.0675 59.2367 L 229.7132 57.364 Z " stroke-width="0.3228811025619507"/>
  </g>
  <g id="ID0.9161517578177154">
    <path id="ID0.7481145667843521" fill="#95ADC0" stroke="none" d="M 306.801 66.7433 L 308.2267 67.1572 L 304.2259 80.9361 L 302.8002 80.5221 L 306.801 66.7433 Z " stroke-width="0.43886582477662694"/>
    <path id="ID0.7664037430658937" fill="#95ADC0" stroke="none" stroke-linecap="round" d="M 303.7567 64.4499 L 307.8829 63.0169 L 311.9042 66.2047 L 313.4556 70.9776 L 307.4258 67.2535 L 300.9723 67.1181 L 303.7567 64.4499 Z " stroke-width="0.43886582477662694"/>
    <path id="ID0.8637174661271274" fill="#95ADC0" stroke="none" stroke-linecap="round" d="M 306.7074 70.5479 L 309.6028 71.1179 L 311.7538 72.9096 L 308.4192 71.5523 L 306.1594 71.2852 L 306.7074 70.5479 Z " stroke-width="0.7899585609858857"/>
    <path id="ID0.8637174661271274" fill="#95ADC0" stroke="none" stroke-linecap="round" d="M 305.0649 74.2622 L 303.6736 73.6233 L 302.0147 73.7994 L 303.6081 74.1681 L 305.2242 74.7783 L 305.0649 74.2622 Z " stroke-width="0.43886582477662694"/>
  </g>
  <g id="ID0.15554087748751044">
    <path id="ID0.8482902436517179" fill="#95ADC0" stroke="none" d="M 38.7424 24.6284 L 40.0323 24.6925 L 39.7355 30.6585 L 38.4455 30.5943 L 38.7424 24.6284 Z " stroke-width="0.3228810920934692"/>
    <path id="ID0.5404099025763571" fill="#95ADC0" stroke="none" stroke-linecap="round" d="M 37.6276 23.4663 L 39.3624 22.7121 L 40.2994 23.373 L 41.4104 23.7839 L 41.8558 25.2285 L 41.3869 26.8539 L 39.6901 27.4968 L 37.5075 26.8548 L 36.8896 25.3046 L 37.6276 23.4663 Z " stroke-width="0.3228810920934692"/>
  </g>
  <g id="ID0.5213190782815218">
    <path id="ID0.1596489236690104" fill="#95ADC0" stroke="none" d="M 25.5519 21.5689 L 26.9941 21.6946 L 26.8419 30.323 L 25.3996 30.1973 L 25.5519 21.5689 Z " stroke-width="0.27028719844166116"/>
    <path id="ID0.8456291356123984" fill="#95ADC0" stroke="none" stroke-linecap="round" d="M 23.7184 20.9113 L 24.7009 19.8071 L 24.4947 17.8479 L 25.6408 16.5701 L 27.6473 16.5571 L 28.8139 18.6626 L 28.1453 20.1699 L 28.6775 21.8444 L 28.651 23.345 L 27.1054 24.5254 L 24.5491 23.8642 L 23.603 22.9051 L 23.7184 20.9113 Z " stroke-width="0.28790339871035064"/>
  </g>
  <g id="ID0.8790475046262145">
    <path id="ID0.7277065478265285" fill="#95ADC0" stroke="none" d="M 8.4796 5.8038 L 10.4938 5.9271 L 9.2902 25.586 L 7.276 25.4627 L 8.4796 5.8038 Z " stroke-width="0.3228810977921027"/>
    <path id="ID0.8004378951154649" fill="#95ADC0" stroke="none" stroke-linecap="round" d="M 8.0549 1.2804 L 9.8274 1.3889 L 11.8203 0.5405 L 13.287 1.6816 L 14.9658 3.3209 L 15.3325 6.5782 L 15.0645 9.6349 L 13.7129 11.8975 L 11.3122 12.8018 L 8.2457 12.6949 L 5.2942 12.029 L 3.7371 11.0441 L 3.229 7.4547 L 4.1909 3.6317 L 6.4632 0.8595 L 8.0549 1.2804 Z " stroke-width="0.3228810977921027"/>
    <path id="ID0.23617623001337051" fill="#95ADC0" stroke="none" stroke-linecap="round" d="M 5.3354 14.0324 L 7.2131 13.743 L 8.6239 14.4764 L 8.6058 16.0927 L 6.7741 16.951 L 4.8947 15.9464 L 4.0627 15.0058 L 5.3354 14.0324 Z " stroke-width="0.3228810977921027"/>
    <path id="ID0.23617623001337051" fill="#95ADC0" stroke="none" stroke-linecap="round" d="M 11.1148 18.9165 L 10.1874 18.2127 L 8.9454 17.8941 L 8.9098 19.2667 L 10.3453 19.5972 L 11.1148 18.9165 Z " stroke-width="0.3228810977921027"/>
  </g>
  <g id="ID0.5372698470018804">
    <path id="ID0.996752165723592" fill="#95ADC0" stroke="none" d="M 77.6085 22.7734 L 78.414 22.826 L 77.744 33.0986 L 76.9385 33.0461 L 77.6085 22.7734 Z " stroke-width="0.3700091501009467"/>
    <path id="ID0.3925567790865898" fill="#95ADC0" stroke="none" stroke-linecap="round" d="M 76.5137 17.4434 L 75.3993 15.9264 L 75.4931 14.4883 L 76.07 11.8436 L 77.1034 9.6414 L 78.7948 8.5138 L 80.5404 11.5162 L 80.8562 14.1159 L 79.4872 16.5025 L 80.3265 18.5174 L 80.5148 21.8309 L 78.7565 23.9858 L 76.1452 23.0933 L 74.6952 21.7608 L 75.0506 18.7923 L 76.5137 17.4434 Z " stroke-width="0.3700091501009467"/>
    <path id="ID0.4457426266744733" fill="#95ADC0" stroke="none" stroke-linecap="round" d="M 75.9866 25.8548 L 76.8591 24.8801 L 77.8123 25.1486 L 77.6312 26.6842 L 76.6512 26.8267 L 75.9866 25.8548 Z " stroke-width="0.3700091501009467"/>
  </g>
  <g id="ID0.7277544308453798">
    <path id="ID0.8515107058919966" fill="#95ADC0" stroke="none" d="M 268.3477 51.5781 L 269.8006 51.5835 L 269.6849 62.088 L 268.232 62.0826 L 268.3477 51.5781 Z " stroke-width="0.2640439360063369"/>
    <path id="ID0.5577249256893992" fill="#95ADC0" stroke="none" stroke-linecap="round" d="M 266.543 54.1976 L 269.2936 53.6451 L 270.8976 54.589 L 272.1798 55.4379 L 272.0039 56.7504 L 268.9304 57.3017 L 266.6765 56.7306 L 265.8848 55.3207 L 266.543 54.1976 Z " stroke-width="0.2640439360063369"/>
    <path id="ID0.8560941652394831" fill="#95ADC0" stroke="none" stroke-linecap="round" d="M 265.8136 50.73 L 268.2569 48.7694 L 270.2055 47.7449 L 271.4711 50.0945 L 273.0628 52.1638 L 271.9203 53.2851 L 268.8509 53.4613 L 265.468 52.7922 L 265.8136 50.73 Z " stroke-width="0.2640439360063369"/>
  </g>
  <g id="ID0.07672071224078536">
    <path id="ID0.5755643504671752" fill="#95ADC0" stroke="none" stroke-linecap="round" d="M 64.6988 22.5986 L 65.9545 22.5767 L 65.6099 31.054 L 64.3542 31.076 L 64.6988 22.5986 Z " stroke-width="0.10448225077925496"/>
    <path id="ID0.6377782253548503" fill="#95ADC0" stroke="none" stroke-linecap="round" d="M 62.1035 26.0891 L 62.2824 25.1178 L 63.4649 24.1532 L 64.6474 23.1886 L 65.8693 23.3125 L 66.322 23.8371 L 66.8404 24.1185 L 67.8995 26.0509 L 66.0039 25.4885 L 65.3838 24.9669 L 64.7052 25.1965 L 63.5233 25.4592 L 62.1035 26.0891 Z " stroke-width="0.10448225077925496"/>
    <path id="ID0.6377782253548503" fill="#95ADC0" stroke="none" stroke-linecap="round" d="M 62.4812 23.1307 L 63.494 21.5398 L 64.6407 20.7695 L 66.1226 20.671 L 66.9003 21.432 L 67.6906 23.2577 L 67.2063 23.5082 L 66.6213 23.4942 L 66.0064 23.5291 L 64.7228 23.5515 L 64.1158 23.3926 L 62.9457 23.3646 L 62.4812 23.1307 Z " stroke-width="0.10448225077925496"/>
  </g>
  <g id="ID0.9161517578177154">
    <path id="ID0.7481145667843521" fill="#95ADC0" stroke="none" d="M 84.3938 34.1733 L 85.198 34.2196 L 82.9743 51.138 L 82.1701 51.0917 L 84.3938 34.1733 Z " stroke-width="0.27352909421986227"/>
    <path id="ID0.7664037430658937" fill="#95ADC0" stroke="none" stroke-linecap="round" d="M 82.6736 32.4662 L 84.9952 29.5979 L 87.2678 32.0336 L 88.1524 37.0162 L 84.747 34.5689 L 81.1107 36.343 L 82.6736 32.4662 Z " stroke-width="0.27352909421986227"/>
    <path id="ID0.8637174661271274" fill="#95ADC0" stroke="none" stroke-linecap="round" d="M 84.4102 38.5594 L 85.7519 38.5594 L 87.2586 39.746 L 85.3768 39.1939 L 84.103 39.5645 L 84.4102 38.5594 Z " stroke-width="0.4923523780257265"/>
    <path id="ID0.8637174661271274" fill="#95ADC0" stroke="none" stroke-linecap="round" d="M 83.4827 43.3146 L 82.6156 43.254 L 81.7632 43.6982 L 82.6618 43.6426 L 83.5736 43.8559 L 83.4827 43.3146 Z " stroke-width="0.27352909421986227"/>
  </g>
  <g id="ID0.32532088877633214">
    <path id="ID0.5138625972904265" fill="#95ADC0" stroke="none" d="M 345.6807 87.5569 L 347.1071 87.6244 L 347.074 90.3321 L 345.6476 90.2646 L 345.6807 87.5569 Z " stroke-width="0.11765968319124648"/>
    <path id="ID0.6377782253548503" fill="#95ADC0" stroke="none" stroke-linecap="round" d="M 343.7965 84.5242 L 344.6487 83.809 L 347.8906 83.9625 L 348.9508 84.7942 L 348.9228 87.0854 L 348.2007 87.7806 L 344.6346 87.6118 L 343.7692 86.7632 L 343.7965 84.5242 Z " stroke-width="0.11765968319124648"/>
    <path id="ID0.6377782253548503" fill="#95ADC0" stroke="none" stroke-linecap="round" d="M 343.9245 81.089 L 344.7016 80.4368 L 347.6581 80.5768 L 348.625 81.3353 L 348.5995 83.4247 L 347.9409 84.0587 L 344.6888 83.9048 L 343.8996 83.1309 L 343.9245 81.089 Z " stroke-width="0.10729972129719324"/>
    <path id="ID0.6377782253548503" fill="#95ADC0" stroke="none" stroke-linecap="round" d="M 344.2042 78.2116 L 344.8267 77.6892 L 347.1951 77.8013 L 347.9697 78.4089 L 347.9493 80.0828 L 347.4217 80.5907 L 344.8164 80.4674 L 344.1842 79.8474 L 344.2042 78.2116 Z " stroke-width="0.08595834212445118"/>
  </g>
  <g id="ID0.07672071224078536">
    <path id="ID0.5755643504671752" fill="#95ADC0" stroke="none" stroke-linecap="round" d="M 98.6068 46.0707 L 99.8594 46.1603 L 98.751 54.3934 L 97.4985 54.3038 L 98.6068 46.0707 Z " stroke-width="0.10353431261024773"/>
    <path id="ID0.6377782253548503" fill="#95ADC0" stroke="none" stroke-linecap="round" d="M 95.7284 49.2722 L 95.9942 48.3413 L 97.2589 47.5055 L 98.5237 46.6697 L 99.7294 46.8984 L 100.1329 47.4498 L 100.6238 47.7699 L 101.5042 49.7471 L 99.6671 49.0314 L 99.0965 48.4681 L 98.4 48.6321 L 97.1993 48.7837 L 95.7284 49.2722 Z " stroke-width="0.10353431261024773"/>
    <path id="ID0.6377782253548503" fill="#95ADC0" stroke="none" stroke-linecap="round" d="M 96.3144 46.405 L 97.4666 44.9437 L 98.6781 44.2941 L 100.1629 44.329 L 100.8688 45.1395 L 101.491 46.989 L 100.9861 47.1904 L 100.4048 47.125 L 99.7892 47.1048 L 98.5088 47.0132 L 97.9186 46.8048 L 96.7559 46.6741 L 96.3144 46.405 Z " stroke-width="0.10353431261024773"/>
  </g>
  <g id="ID0.15554087748751044">
    <path id="ID0.8482902436517179" fill="#95ADC0" stroke="none" d="M 110.132 51.9083 L 111.388 52.2091 L 109.9969 58.0182 L 108.7409 57.7174 L 110.132 51.9083 Z " stroke-width="0.3228810846444065"/>
    <path id="ID0.5404099025763571" fill="#95ADC0" stroke="none" stroke-linecap="round" d="M 109.2212 50.5731 L 111.0653 50.1515 L 111.8644 50.9737 L 112.8807 51.5823 L 113.0522 53.0842 L 112.2919 54.5954 L 110.5056 54.9146 L 108.4788 53.8814 L 108.1571 52.2439 L 109.2212 50.5731 Z " stroke-width="0.3228810846444065"/>
  </g>
  <g id="ID0.8790475046262145">
    <path id="ID0.7277065478265285" fill="#95ADC0" stroke="none" d="M 123.8416 52.9613 L 122.5366 52.8049 L 121.1198 65.0941 L 122.4248 65.2504 L 123.8416 52.9613 Z " stroke-width="0.20657913251160356"/>
    <path id="ID0.8004378951154649" fill="#95ADC0" stroke="none" stroke-linecap="round" d="M 124.6127 50.2384 L 123.4642 50.1008 L 122.2811 49.3464 L 121.2138 49.8823 L 119.9551 50.7016 L 119.3574 52.6724 L 119.1889 54.5926 L 119.8036 56.147 L 121.2419 56.9831 L 123.2197 57.2711 L 125.186 57.2004 L 126.2939 56.7714 L 127.0192 54.6117 L 126.8281 52.1378 L 125.6799 50.1621 L 124.6127 50.2384 Z " stroke-width="0.20657913251160356"/>
    <path id="ID0.23617623001337051" fill="#95ADC0" stroke="none" stroke-linecap="round" d="M 124.9283 58.3917 L 123.7567 57.996 L 122.7706 58.2863 L 122.6023 59.2874 L 123.681 60.0294 L 124.9977 59.6255 L 125.6358 59.1402 L 124.9283 58.3917 Z " stroke-width="0.20657913251160356"/>
    <path id="ID0.23617623001337051" fill="#95ADC0" stroke="none" stroke-linecap="round" d="M 120.7044 60.7841 L 121.3772 60.4562 L 122.209 60.4027 L 122.0789 61.2551 L 121.1219 61.2936 L 120.7044 60.7841 Z " stroke-width="0.20657913251160356"/>
  </g>
  <g id="ID0.9161517578177154">
    <path id="ID0.7481145667843521" fill="#95ADC0" stroke="none" d="M 237.5882 52.3545 L 238.6454 52.0469 L 238.7181 62.3309 L 237.6609 62.6385 L 237.5882 52.3545 Z " stroke-width="0.3236164144111997"/>
    <path id="ID0.7664037430658937" fill="#95ADC0" stroke="none" stroke-linecap="round" d="M 235.0441 52.1225 L 237.5685 49.5732 L 240.9614 49.9796 L 242.9911 52.3705 L 238.1184 52.4271 L 233.6866 54.9155 L 235.0441 52.1225 Z " stroke-width="0.3236164144111997"/>
    <path id="ID0.8637174661271274" fill="#95ADC0" stroke="none" stroke-linecap="round" d="M 238.4356 54.7674 L 240.1463 53.9897 L 242.3601 54.244 L 239.8082 54.7181 L 238.2116 55.4509 L 238.4356 54.7674 Z " stroke-width="0.5825095524230607"/>
    <path id="ID0.8637174661271274" fill="#95ADC0" stroke="none" stroke-linecap="round" d="M 238.0052 57.8837 L 236.5652 57.998 L 235.8294 58.8084 L 236.9918 58.4053 L 238.2189 58.1456 L 238.0052 57.8837 Z " stroke-width="0.3236164144111997"/>
  </g>
  <g id="ID0.7277544308453798">
    <path id="ID0.8515107058919966" fill="#95ADC0" stroke="none" d="M 148.4658 59.1319 L 149.9166 59.2101 L 149.1972 71.3849 L 147.7464 71.3067 L 148.4658 59.1319 Z " stroke-width="0.2753905778958654"/>
    <path id="ID0.5577249256893992" fill="#95ADC0" stroke="none" stroke-linecap="round" d="M 146.5127 62.08 L 149.2917 61.5755 L 150.8395 62.7494 L 152.0713 63.7973 L 151.8202 65.3104 L 148.7188 65.7976 L 146.5004 65.0237 L 145.7908 63.3497 L 146.5127 62.08 Z " stroke-width="0.2753905778958654"/>
    <path id="ID0.8560941652394831" fill="#95ADC0" stroke="none" stroke-linecap="round" d="M 145.9395 58.0471 L 148.4925 55.8947 L 150.4976 54.8032 L 151.6266 57.5903 L 153.0974 60.0687 L 151.8919 61.3123 L 148.8161 61.3646 L 145.4758 60.4212 L 145.9395 58.0471 Z " stroke-width="0.2753905778958654"/>
  </g>
  <g id="ID0.32532088877633214">
    <path id="ID0.5138625972904265" fill="#95ADC0" stroke="none" d="M 138.6162 65.794 L 139.9479 65.885 L 139.4878 69.9947 L 138.1561 69.9037 L 138.6162 65.794 Z " stroke-width="0.1413786005739077"/>
    <path id="ID0.6377782253548503" fill="#95ADC0" stroke="none" stroke-linecap="round" d="M 137.3336 61.2531 L 138.2488 60.1609 L 141.2755 60.3677 L 142.1416 61.6215 L 141.7522 65.0989 L 140.9625 66.1598 L 137.6331 65.9323 L 136.9531 64.6515 L 137.3336 61.2531 Z " stroke-width="0.1413786005739077"/>
    <path id="ID0.6377782253548503" fill="#95ADC0" stroke="none" stroke-linecap="round" d="M 138.0193 56.0041 L 138.854 55.0081 L 141.6141 55.1967 L 142.4039 56.34 L 142.0489 59.5113 L 141.3287 60.4788 L 138.2925 60.2713 L 137.6723 59.1032 L 138.0193 56.0041 Z " stroke-width="0.12893018554020153"/>
    <path id="ID0.6377782253548503" fill="#95ADC0" stroke="none" stroke-linecap="round" d="M 138.6859 51.6442 L 139.3546 50.8462 L 141.5657 50.9973 L 142.1985 51.9133 L 141.914 54.4538 L 141.337 55.2289 L 138.9048 55.0627 L 138.4079 54.1269 L 138.6859 51.6442 Z " stroke-width="0.1032866146146563"/>
  </g>
  <g id="ID0.15554087748751044">
    <path id="ID0.8482902436517179" fill="#95ADC0" stroke="none" d="M 164.1247 82.5803 L 165.4026 82.7675 L 164.8215 86.7326 L 163.5436 86.5453 L 164.1247 82.5803 Z " stroke-width="0.2749317054748976"/>
    <path id="ID0.5404099025763571" fill="#95ADC0" stroke="none" stroke-linecap="round" d="M 163.0173 81.7181 L 164.7762 81.4067 L 165.6749 81.9543 L 166.7585 82.354 L 167.1314 83.3719 L 166.5879 84.4088 L 164.872 84.6499 L 162.7354 83.9756 L 162.1962 82.8676 L 163.0173 81.7181 Z " stroke-width="0.2749317054748976"/>
  </g>
  <g id="ID0.13338996097445488">
    <path id="ID0.5138625972904265" fill="#95ADC0" stroke="none" d="M 332.8552 85.1635 L 334.4155 85.2998 L 334.0515 88.5652 L 332.4911 88.4288 L 332.8552 85.1635 Z " stroke-width="0.13459902662383766"/>
    <path id="ID0.6377782253548503" fill="#95ADC0" stroke="none" stroke-linecap="round" d="M 331.7019 82.8799 L 333.1745 81.2333 L 334.6639 81.3634 L 336.1271 83.0131 L 337.1876 85.7055 L 333.5705 85.3893 L 330.0883 85.1483 L 331.7019 82.8799 Z " stroke-width="0.13459902662383766"/>
    <path id="ID0.6377782253548503" fill="#95ADC0" stroke="none" stroke-linecap="round" d="M 332.0601 79.2333 L 333.5745 77.5333 L 335.0639 77.6634 L 336.4503 79.6805 L 337.2981 82.3542 L 333.9705 81.6893 L 330.7092 81.7149 L 332.0601 79.2333 Z " stroke-width="0.13459902662383766"/>
    <path id="ID0.6377782253548503" fill="#95ADC0" stroke="none" stroke-linecap="round" d="M 332.6195 75.4388 L 334.7085 73.4021 L 336.8503 76.0305 L 337.7086 78.6101 L 334.3705 78.0393 L 330.8999 78.0149 L 332.6195 75.4388 Z " stroke-width="0.13459902662383766"/>
  </g>
  <g id="ID0.07672071224078536">
    <path id="ID0.5755643504671752" fill="#95ADC0" stroke="none" stroke-linecap="round" d="M 179.7568 82.9645 L 181.0094 83.0627 L 179.901 92.0913 L 178.6485 91.9931 L 179.7568 82.9645 Z " stroke-width="0.10784083625319632"/>
    <path id="ID0.6377782253548503" fill="#95ADC0" stroke="none" stroke-linecap="round" d="M 176.8284 86.4775 L 177.0942 85.4566 L 178.3589 84.5401 L 179.6237 83.6235 L 180.8294 83.8743 L 181.2329 84.479 L 181.7238 84.83 L 182.6042 86.9982 L 180.7671 86.2134 L 180.1965 85.5957 L 179.5 85.7755 L 178.2993 85.9418 L 176.8284 86.4775 Z " stroke-width="0.10784083625319632"/>
    <path id="ID0.6377782253548503" fill="#95ADC0" stroke="none" stroke-linecap="round" d="M 177.4644 83.3507 L 178.6166 81.7482 L 179.8281 81.0358 L 181.3129 81.0741 L 182.0188 81.9629 L 182.641 83.9911 L 182.1361 84.2119 L 181.5548 84.1403 L 180.9392 84.118 L 179.6588 84.0176 L 179.0686 83.789 L 177.9059 83.6458 L 177.4644 83.3507 Z " stroke-width="0.10784083625319632"/>
  </g>
  <g id="ID0.7277544308453798">
    <path id="ID0.8515107058919966" fill="#95ADC0" stroke="none" d="M 187.227 73.0759 L 185.7842 73.2468 L 187.9108 91.2027 L 189.3537 91.0318 L 187.227 73.0759 Z " stroke-width="0.32288113763863924"/>
    <path id="ID0.5577249256893992" fill="#95ADC0" stroke="none" stroke-linecap="round" d="M 189.5222 77.356 L 186.6829 76.7169 L 185.2695 78.51 L 184.1579 80.1048 L 184.584 82.3302 L 187.744 82.9314 L 189.8746 81.7036 L 190.3914 79.2039 L 189.5222 77.356 Z " stroke-width="0.32288113763863924"/>
    <path id="ID0.8560941652394831" fill="#95ADC0" stroke="none" stroke-linecap="round" d="M 189.6126 71.3999 L 186.809 68.318 L 184.6763 66.7824 L 183.8685 70.9423 L 182.683 74.6592 L 184.0331 76.4501 L 187.1172 76.41 L 190.351 74.889 L 189.6126 71.3999 Z " stroke-width="0.32288113763863924"/>
  </g>
  <g id="ID0.5372698470018804">
    <path id="ID0.996752165723592" fill="#95ADC0" stroke="none" d="M 382.7603 59.3294 L 383.5675 59.3294 L 383.5675 65.3729 L 382.7603 65.3729 L 382.7603 59.3294 Z " stroke-width="0.28521192920971805"/>
    <path id="ID0.3925567790865898" fill="#95ADC0" stroke="none" stroke-linecap="round" d="M 381.2963 56.2746 L 380.0855 55.4285 L 380.0855 54.5824 L 380.4891 53.011 L 381.377 51.6814 L 382.9914 50.9562 L 384.9287 52.6484 L 385.413 54.1593 L 384.2022 55.6098 L 385.1709 56.758 L 385.5745 58.692 L 383.9601 60.0216 L 381.2963 59.5985 L 379.7626 58.8733 L 379.9241 57.1207 L 381.2963 56.2746 Z " stroke-width="0.28521192920971805"/>
    <path id="ID0.4457426266744733" fill="#95ADC0" stroke="none" stroke-linecap="round" d="M 381.3041 61.2029 L 382.1114 60.5985 L 383.08 60.7194 L 382.9993 61.6259 L 382.0306 61.7468 L 381.3041 61.2029 Z " stroke-width="0.28521192920971805"/>
  </g>
  <g id="ID0.32532088877633214">
    <path id="ID0.5138625972904265" fill="#95ADC0" stroke="none" d="M 200.4334 85.2614 L 201.6347 85.2476 L 201.5123 89.3807 L 200.311 89.3945 L 200.4334 85.2614 Z " stroke-width="0.13634082585832014"/>
    <path id="ID0.6377782253548503" fill="#95ADC0" stroke="none" stroke-linecap="round" d="M 198.9324 80.7932 L 199.6764 79.6325 L 202.4066 79.6011 L 203.2723 80.7829 L 203.1687 84.2802 L 202.535 85.3999 L 199.5318 85.4345 L 198.8312 84.211 L 198.9324 80.7932 Z " stroke-width="0.13634082585832014"/>
    <path id="ID0.6377782253548503" fill="#95ADC0" stroke="none" stroke-linecap="round" d="M 199.1714 75.5243 L 199.8499 74.4658 L 202.3397 74.4371 L 203.1291 75.5149 L 203.0346 78.7043 L 202.4568 79.7254 L 199.718 79.7569 L 199.0791 78.6411 L 199.1714 75.5243 Z " stroke-width="0.124335981125631"/>
    <path id="ID0.6377782253548503" fill="#95ADC0" stroke="none" stroke-linecap="round" d="M 199.4887 71.1294 L 200.0322 70.2815 L 202.0268 70.2585 L 202.6592 71.1219 L 202.5835 73.6769 L 202.1206 74.4949 L 199.9266 74.5202 L 199.4147 73.6263 L 199.4887 71.1294 Z " stroke-width="0.09960617874733711"/>
  </g>
  <g id="ID0.8790475046262145">
    <path id="ID0.7277065478265285" fill="#95ADC0" stroke="none" d="M 395.6353 39.0711 L 396.7776 38.4925 L 398.0747 45.8343 L 396.9324 46.4129 L 395.6353 39.0711 Z " stroke-width="0.16682448032331335"/>
    <path id="ID0.8004378951154649" fill="#95ADC0" stroke="none" stroke-linecap="round" d="M 394.9695 37.6182 L 395.9748 37.109 L 397.0076 36.1925 L 397.9449 36.1439 L 399.0512 36.2065 L 399.5837 37.248 L 399.74 38.4146 L 399.2088 39.6343 L 397.9527 40.6966 L 396.2217 41.6062 L 394.4991 42.282 L 393.5268 42.4139 L 392.8816 41.2982 L 393.0377 39.6457 L 394.0344 37.9607 L 394.9695 37.6182 Z " stroke-width="0.16682448032331335"/>
    <path id="ID0.23617623001337051" fill="#95ADC0" stroke="none" stroke-linecap="round" d="M 394.6864 42.9859 L 395.7108 42.3031 L 396.5758 42.1272 L 396.7279 42.7059 L 395.7864 43.5761 L 394.6313 43.8006 L 394.0701 43.7242 L 394.6864 42.9859 Z " stroke-width="0.16682448032331335"/>
    <path id="ID0.23617623001337051" fill="#95ADC0" stroke="none" stroke-linecap="round" d="M 398.4402 42.8768 L 397.8493 42.9138 L 397.1206 43.1846 L 397.2384 43.6822 L 398.0768 43.3559 L 398.4402 42.8768 Z " stroke-width="0.16682448032331335"/>
  </g>
  <g id="ID0.9161517578177154">
    <path id="ID0.7481145667843521" fill="#95ADC0" stroke="none" d="M 459.6382 13.3313 L 460.4535 13.4692 L 461.4953 35.7155 L 460.68 35.5776 L 459.6382 13.3313 Z " stroke-width="0.30357991555336017"/>
    <path id="ID0.7664037430658937" fill="#95ADC0" stroke="none" stroke-linecap="round" d="M 457.5832 10.9016 L 459.3565 7.315 L 462.1063 10.7645 L 463.9568 17.4626 L 460.0688 13.8899 L 456.7658 15.8991 L 457.5832 10.9016 Z " stroke-width="0.30357991555336017"/>
    <path id="ID0.8637174661271274" fill="#95ADC0" stroke="none" stroke-linecap="round" d="M 460.5197 19.2498 L 462.0694 19.387 L 463.6054 21.096 L 461.6117 20.1841 L 460.4061 20.5548 L 460.5197 19.2498 Z " stroke-width="0.5464438655707623"/>
    <path id="ID0.8637174661271274" fill="#95ADC0" stroke="none" stroke-linecap="round" d="M 460.4526 25.3487 L 459.501 25.0628 L 458.8026 25.6942 L 459.6929 25.706 L 460.6484 26.0758 L 460.4526 25.3487 Z " stroke-width="0.30357991555336017"/>
  </g>
  <g id="ID0.13338996097445488">
    <path id="ID0.5138625972904265" fill="#95ADC0" stroke="none" d="M 214.5793 81.8438 L 215.3979 81.7952 L 215.9469 85.0195 L 215.1282 85.0681 L 214.5793 81.8438 Z " stroke-width="0.10294527460620984"/>
    <path id="ID0.6377782253548503" fill="#95ADC0" stroke="none" stroke-linecap="round" d="M 213.4862 79.7347 L 213.8605 77.9587 L 214.6419 77.9123 L 215.7512 79.3497 L 216.891 81.85 L 214.9932 81.9627 L 213.1803 82.1329 L 213.4862 79.7347 Z " stroke-width="0.10294527460620984"/>
    <path id="ID0.6377782253548503" fill="#95ADC0" stroke="none" stroke-linecap="round" d="M 212.8771 76.1416 L 213.2605 74.3087 L 214.0419 74.2623 L 215.1949 76.0667 L 216.2231 78.5736 L 214.3932 78.3127 L 212.7518 78.717 L 212.8771 76.1416 Z " stroke-width="0.10294527460620984"/>
    <path id="ID0.6377782253548503" fill="#95ADC0" stroke="none" stroke-linecap="round" d="M 212.2752 72.3822 L 212.8732 70.1545 L 214.5449 72.4667 L 215.5572 74.8806 L 213.7432 74.7127 L 211.9848 75.0926 L 212.2752 72.3822 Z " stroke-width="0.10294527460620984"/>
  </g>
  <g id="ID0.15554087748751044">
    <path id="ID0.8482902436517179" fill="#95ADC0" stroke="none" d="M 221.2986 73.3581 L 222.2493 72.9275 L 224.7134 78.3689 L 223.7627 78.7994 L 221.2986 73.3581 Z " stroke-width="0.29353732999500715"/>
    <path id="ID0.5404099025763571" fill="#95ADC0" stroke="none" stroke-linecap="round" d="M 219.9831 72.7985 L 220.8846 71.4687 L 221.8507 71.7047 L 222.8291 71.6515 L 223.7955 72.7735 L 224.1896 74.4027 L 223.2652 75.6188 L 221.4173 75.8707 L 220.2803 74.7198 L 219.9831 72.7985 Z " stroke-width="0.29353732999500715"/>
  </g>
  <g id="ID0.16197650181129575">
    <path id="ID0.2429629685357213" fill="#95ADC0" stroke="none" d="M 257.2464 40.458 L 258.5376 40.429 L 259.0099 61.4917 L 257.7187 61.5207 L 257.2464 40.458 Z " stroke-width="0.32288110184276914"/>
    <path id="ID0.4719710564240813" fill="#95ADC0" stroke="none" stroke-linecap="round" d="M 255.2317 36.8348 L 254.0447 37.9111 L 255.4984 34.3259 L 258.0927 31.1996 L 259.6676 33.0213 L 262.2725 37.5651 L 259.9032 36.3264 L 261.3131 37.9903 L 262.6514 40.0595 L 260.0527 39.3911 L 261.9703 42.0933 L 262.5016 44.1807 L 259.0886 43.2076 L 256.9832 42.9318 L 252.9844 44.6363 L 254.7699 41.4474 L 255.713 40.2959 L 253.2366 41.4818 L 254.9342 37.9719 L 255.5617 37.1504 L 255.2317 36.8348 Z " stroke-width="0.32288110184276914"/>
    <path id="ID0.5574884423986077" fill="#95ADC0" stroke="none" stroke-linecap="round" d="M 258.4591 46.4277 L 259.5372 47.6954 L 259.9877 49.7846 L 258.1008 48.4543 L 258.4591 46.4277 Z " stroke-width="0.32288110184276914"/>
    <path id="ID0.5574884423986077" fill="#95ADC0" stroke="none" stroke-linecap="round" d="M 257.9583 51.9218 L 256.9309 52.9138 L 256.3718 54.6219 L 257.8779 53.377 L 257.9583 51.9218 Z " stroke-width="0.32288110184276914"/>
  </g>
  <g id="ID0.32532088877633214">
    <path id="ID0.5138625972904265" fill="#95ADC0" stroke="none" d="M 419.5627 35.8982 L 420.9827 36.0492 L 420.791 38.7503 L 419.371 38.5993 L 419.5627 35.8982 Z " stroke-width="0.11765968224772258"/>
    <path id="ID0.6377782253548503" fill="#95ADC0" stroke="none" stroke-linecap="round" d="M 417.8338 32.7858 L 418.7264 32.1218 L 421.9537 32.465 L 422.9634 33.3574 L 422.8012 35.643 L 422.0396 36.2947 L 418.4895 35.9172 L 417.6753 35.0194 L 417.8338 32.7858 Z " stroke-width="0.11765968224772258"/>
    <path id="ID0.6377782253548503" fill="#95ADC0" stroke="none" stroke-linecap="round" d="M 418.2186 29.3792 L 419.0325 28.7737 L 421.9757 29.0866 L 422.8965 29.9005 L 422.7486 31.9848 L 422.0541 32.5791 L 418.8166 32.2349 L 418.074 31.4161 L 418.2186 29.3792 Z " stroke-width="0.10729971754727237"/>
    <path id="ID0.6377782253548503" fill="#95ADC0" stroke="none" stroke-linecap="round" d="M 418.6182 26.5046 L 419.2703 26.0195 L 421.6281 26.2702 L 422.3657 26.9222 L 422.2472 28.592 L 421.6908 29.0681 L 419.0972 28.7923 L 418.5024 28.1364 L 418.6182 26.5046 Z " stroke-width="0.08595833719275706"/>
  </g>
  <g id="ID0.9161517578177154">
    <path id="ID0.7481145667843521" fill="#95ADC0" stroke="none" d="M 469.5388 25.2779 L 470.5424 24.825 L 472.0575 34.9971 L 471.0539 35.45 L 469.5388 25.2779 Z " stroke-width="0.32361641559280974"/>
    <path id="ID0.7664037430658937" fill="#95ADC0" stroke="none" stroke-linecap="round" d="M 466.9873 25.4052 L 469.1291 22.527 L 472.5454 22.4532 L 474.8905 24.5356 L 470.0739 25.2754 L 466.0352 28.3611 L 466.9873 25.4052 Z " stroke-width="0.32361641559280974"/>
    <path id="ID0.8637174661271274" fill="#95ADC0" stroke="none" stroke-linecap="round" d="M 470.6706 27.5443 L 472.2587 26.5573 L 474.4828 26.4753 L 472.0227 27.3028 L 470.5448 28.2525 L 470.6706 27.5443 Z " stroke-width="0.5825095772022417"/>
    <path id="ID0.8637174661271274" fill="#95ADC0" stroke="none" stroke-linecap="round" d="M 470.7292 30.6639 L 469.2584 31 L 468.7047 31.8848 L 469.7991 31.3226 L 470.9775 30.8932 L 470.7292 30.6639 Z " stroke-width="0.32361641559280974"/>
  </g>
  <path id="ID0.921982801053673" fill="url(#grad_1-,0,0,1,0,-107)" stroke="none" d="M 0 49 L 480 49 L 480 181 L 0 181 L 0 49 Z " stroke-width="1"/>
</svg>