<svg xmlns="http://www.w3.org/2000/svg" xmlns:xlink="http://www.w3.org/1999/xlink" version="1.1" width="482.25" height="175.39059448242188" viewBox="0.25 0.10940003395080566 482.25 175.39059448242188">
  <defs>
    <linearGradient id="grad_1" y2="1" x2="0">
      <stop offset="0" stop-color="#94A4AE" stop-opacity="0"/>
      <stop offset="1" stop-color="#94A4AE" stop-opacity="1"/>
    </linearGradient>
  <linearGradient id="grad_1-,0,0,1,1,-124" y2="175" x2="1" x1="1" y1="7" gradientUnits="userSpaceOnUse">
      <stop offset="0" stop-color="#94A4AE" stop-opacity="0"/>
      <stop offset="1" stop-color="#94A4AE" stop-opacity="1"/>
    </linearGradient></defs>
  <!-- Exported by Scratch - http://scratch.mit.edu/ -->
  <g id="ID0.151902059558779">
    <path id="ID0.4017665642313659" fill="none" stroke="#B0C1CF" stroke-width="0.2831995487213135" stroke-linecap="round" d="M 8.9 6.534 C 8.9 6.534 8.9 6.1092 8.9 6.1092 Z "/>
    <path id="ID0.2492370530962944" fill="#B0C1CF" stroke="none" d="M 0.75 10.5 L 16.5 10.5 L 43 13.5 L 68.5 18 L 89.5 19 L 93 20.5 L 96 25.4 L 93 35.4 L 101.5 47.4 L 106.5 59.4 L 119 65.9 L 144 65.4 L 168 66.9 L 181.5 70.75 L 190.75 70.5 L 202 60 L 215 50 L 242 44 L 265 49 L 290 46 L 319.5 49 L 341.5 62.5 L 370 67.5 L 392 60 L 402 51 L 402 29 L 406 21 L 432.5 17 L 452 9 L 482 11 L 481 174 L 1 174 L 0.75 10.5 Z " stroke-width="1"/>
    <g id="ID0.32532088877633214">
      <path id="ID0.5138625972904265" fill="#B0C1CF" stroke="none" d="M 97.3986 41.4924 L 98.0251 41.5168 L 97.9675 42.9976 L 97.341 42.9732 L 97.3986 41.4924 Z " stroke-width="0.05699612767296308"/>
      <path id="ID0.6377782253548503" fill="#B0C1CF" stroke="none" stroke-linecap="round" d="M 96.6334 39.8581 L 97.0197 39.4596 L 98.4435 39.5149 L 98.8968 39.9604 L 98.848 41.2133 L 98.5193 41.5998 L 96.9531 41.5389 L 96.5858 41.0826 L 96.6334 39.8581 Z " stroke-width="0.05699612767296308"/>
      <path id="ID0.6377782253548503" fill="#B0C1CF" stroke="none" stroke-linecap="round" d="M 96.7022 37.9932 L 97.0544 37.6298 L 98.3529 37.6803 L 98.7662 38.0865 L 98.7218 39.2291 L 98.422 39.5816 L 96.9937 39.526 L 96.6588 39.1099 L 96.7022 37.9932 Z " stroke-width="0.051977602876845344"/>
      <path id="ID0.6377782253548503" fill="#B0C1CF" stroke="none" stroke-linecap="round" d="M 96.9078 36.4556 L 97.19 36.1645 L 98.2302 36.2049 L 98.5614 36.5303 L 98.5257 37.4457 L 98.2856 37.7281 L 97.1414 37.6836 L 96.873 37.3502 L 96.9078 36.4556 Z " stroke-width="0.04163951974487068"/>
    </g>
    <g id="ID0.13338996097445488">
      <path id="ID0.5138625972904265" fill="#B0C1CF" stroke="none" d="M 93.6984 20.8519 L 94.3834 20.9113 L 94.2431 22.5304 L 93.558 22.471 L 93.6984 20.8519 Z " stroke-width="0.06250932741210126"/>
      <path id="ID0.6377782253548503" fill="#B0C1CF" stroke="none" stroke-linecap="round" d="M 93.1443 19.6686 L 93.7803 18.8454 L 94.4342 18.9021 L 95.0856 19.7115 L 95.5665 21.0394 L 93.9785 20.9017 L 92.4501 20.8006 L 93.1443 19.6686 Z " stroke-width="0.06250932741210126"/>
      <path id="ID0.6377782253548503" fill="#B0C1CF" stroke="none" stroke-linecap="round" d="M 93.2763 17.8953 L 93.9303 17.0454 L 94.5842 17.1021 L 95.2041 18.0938 L 95.5916 19.4137 L 94.1285 19.1017 L 92.6985 19.1315 L 93.2763 17.8953 Z " stroke-width="0.06250932741210126"/>
      <path id="ID0.6377782253548503" fill="#B0C1CF" stroke="none" stroke-linecap="round" d="M 93.5453 16.0229 L 94.4494 15.0032 L 95.4041 16.2938 L 95.7957 17.567 L 94.3285 17.3017 L 92.8064 17.3078 L 93.5453 16.0229 Z " stroke-width="0.06250932741210126"/>
    </g>
    <g id="ID0.07672071224078536">
      <path id="ID0.5755643504671752" fill="#B0C1CF" stroke="none" stroke-linecap="round" d="M 56.8652 10.6193 L 56.2129 10.5323 L 55.4198 16.4763 L 56.0721 16.5633 L 56.8652 10.6193 Z " stroke-width="0.06371226472834111"/>
      <path id="ID0.6377782253548503" fill="#B0C1CF" stroke="none" stroke-linecap="round" d="M 57.3261 13.512 L 57.294 12.8682 L 56.9991 11.9819 L 56.8035 11.6792 L 55.9066 11.7669 L 55.5364 12.2188 L 54.9212 13.6232 L 55.4032 13.5492 L 55.7533 13.5787 L 56.0695 13.3098 L 56.3784 13.3164 L 56.5243 13.4396 L 57.3261 13.512 Z " stroke-width="0.06371226472834111"/>
      <path id="ID0.6377782253548503" fill="#B0C1CF" stroke="none" stroke-linecap="round" d="M 57.8554 11.9371 L 57.4328 10.7917 L 56.7104 9.5718 L 56.0839 10.508 L 55.3237 11.8931 L 55.7209 11.7905 L 56.0489 11.7651 L 56.7302 11.856 L 57.8554 11.9371 Z " stroke-width="0.06371226472834111"/>
    </g>
    <g id="ID0.7277544308453798">
      <path id="ID0.8515107058919966" fill="#B0C1CF" stroke="none" d="M 31.9539 5.251 L 32.5897 5.2926 L 32.0714 13.2053 L 31.4356 13.1636 L 31.9539 5.251 Z " stroke-width="0.14159976331010987"/>
      <path id="ID0.5577249256893992" fill="#B0C1CF" stroke="none" stroke-linecap="round" d="M 31.0472 7.1782 L 32.276 6.833 L 32.9362 7.5858 L 33.4597 8.2586 L 33.3243 9.2431 L 31.9542 9.5791 L 30.9929 9.0904 L 30.7091 8.0075 L 31.0472 7.1782 Z " stroke-width="0.14159976331010987"/>
      <path id="ID0.8560941652394831" fill="#B0C1CF" stroke="none" stroke-linecap="round" d="M 30.8491 4.5158 L 32.0061 3.1016 L 32.9047 2.38 L 33.3542 4.1833 L 33.9589 5.7838 L 33.4088 6.5992 L 32.0573 6.6526 L 30.606 6.0608 L 30.8491 4.5158 Z " stroke-width="0.14159976331010987"/>
    </g>
    <g id="ID0.07672071224078536">
      <path id="ID0.5755643504671752" fill="#B0C1CF" stroke="none" stroke-linecap="round" d="M 18.0272 7.5389 L 18.5765 7.5928 L 18.0905 12.5465 L 17.5412 12.4926 L 18.0272 7.5389 Z " stroke-width="0.05311845298440336"/>
      <path id="ID0.6377782253548503" fill="#B0C1CF" stroke="none" stroke-linecap="round" d="M 16.7155 9.4491 L 16.8321 8.889 L 17.3868 8.3861 L 17.9414 7.8832 L 18.4702 8.0209 L 18.6472 8.3526 L 18.8624 8.5452 L 19.2485 9.7348 L 18.4429 9.3043 L 18.1927 8.9653 L 17.8872 9.064 L 17.3606 9.1552 L 16.7155 9.4491 Z " stroke-width="0.05311845298440336"/>
      <path id="ID0.6377782253548503" fill="#B0C1CF" stroke="none" stroke-linecap="round" d="M 17.0129 7.7278 L 17.5182 6.8485 L 18.0495 6.4577 L 18.7007 6.4787 L 19.0102 6.9663 L 19.2831 8.0791 L 19.0617 8.2003 L 18.8067 8.161 L 18.5368 8.1488 L 17.9753 8.0937 L 17.7164 7.9683 L 17.2065 7.8897 L 17.0129 7.7278 Z " stroke-width="0.05311845298440336"/>
    </g>
    <g id="ID0.5213190782815218">
      <path id="ID0.1596489236690104" fill="#B0C1CF" stroke="none" d="M 36.8084 9.0683 L 37.4393 8.9787 L 38.1264 13.8153 L 37.4955 13.9049 L 36.8084 9.0683 Z " stroke-width="0.13470597205657378"/>
      <path id="ID0.8456291356123984" fill="#B0C1CF" stroke="none" stroke-linecap="round" d="M 36.0173 8.8478 L 36.3433 8.1221 L 36.0838 7.0506 L 36.465 6.2098 L 37.3262 5.9802 L 38.0113 7.0271 L 37.8554 7.9431 L 38.2302 8.8195 L 38.3497 9.6606 L 37.7883 10.4912 L 36.6319 10.4052 L 36.1416 9.9743 L 36.0173 8.8478 Z " stroke-width="0.14159976741282204"/>
    </g>
    <g id="ID0.16197650181129575">
      <path id="ID0.2429629685357213" fill="#B0C1CF" stroke="none" d="M 45.2183 6.2633 L 45.7835 6.301 L 45.1689 15.5199 L 44.6037 15.4822 L 45.2183 6.2633 Z " stroke-width="0.14159977078969563"/>
      <path id="ID0.4719710564240813" fill="#B0C1CF" stroke="none" stroke-linecap="round" d="M 44.4206 4.5814 L 43.8602 5.0053 L 44.6349 3.4959 L 45.89 2.2313 L 46.5069 3.0885 L 47.4677 5.1748 L 46.481 4.5414 L 47.032 5.3232 L 47.536 6.2792 L 46.4269 5.8859 L 47.1592 7.141 L 47.3099 8.0735 L 45.857 7.5154 L 44.9481 7.3129 L 43.1349 7.9016 L 44.0391 6.5782 L 44.4959 6.112 L 43.368 6.5335 L 44.2463 5.0665 L 44.5525 4.7321 L 44.4206 4.5814 Z " stroke-width="0.14159977078969563"/>
      <path id="ID0.5574884423986077" fill="#B0C1CF" stroke="none" stroke-linecap="round" d="M 45.5111 8.9249 L 45.9326 9.5207 L 46.048 10.4508 L 45.2756 9.7962 L 45.5111 8.9249 Z " stroke-width="0.14159977078969563"/>
      <path id="ID0.5574884423986077" fill="#B0C1CF" stroke="none" stroke-linecap="round" d="M 45.0746 11.2892 L 44.533 11.7498 L 44.2764 12.4067 L 44.9828 11.9216 L 45.0746 11.2892 Z " stroke-width="0.14159977078969563"/>
    </g>
    <g id="ID0.5372698470018804">
      <path id="ID0.996752165723592" fill="#B0C1CF" stroke="none" d="M 64.5618 14.9403 L 64.9148 14.9145 L 65.1729 18.445 L 64.8199 18.4709 L 64.5618 14.9403 Z " stroke-width="0.14159976913397998"/>
      <path id="ID0.3925567790865898" fill="#B0C1CF" stroke="none" stroke-linecap="round" d="M 63.7893 13.2108 L 63.2236 12.7553 L 63.1874 12.261 L 63.2969 11.3301 L 63.6284 10.525 L 64.3036 10.0497 L 65.2232 10.9763 L 65.4995 11.8435 L 65.0319 12.7296 L 65.5046 13.3694 L 65.7637 14.4863 L 65.1144 15.3146 L 63.9312 15.1526 L 63.2295 14.778 L 63.2252 13.749 L 63.7893 13.2108 Z " stroke-width="0.14159976913397998"/>
      <path id="ID0.4457426266744733" fill="#B0C1CF" stroke="none" stroke-linecap="round" d="M 64.0011 16.1134 L 64.3284 15.7346 L 64.7572 15.7742 L 64.7606 16.3064 L 64.3421 16.408 L 64.0011 16.1134 Z " stroke-width="0.14159976913397998"/>
    </g>
    <g id="ID0.9161517578177154">
      <path id="ID0.7481145667843521" fill="#B0C1CF" stroke="none" d="M 80.9141 8.847 L 81.2681 8.847 L 81.2681 20.1042 L 80.9141 20.1042 L 80.9141 8.847 Z " stroke-width="0.14159977436065674"/>
      <path id="ID0.7664037430658937" fill="#B0C1CF" stroke="none" stroke-linecap="round" d="M 80.0645 7.785 L 80.9141 5.8026 L 82.0469 7.3248 L 82.7195 10.5816 L 81.0911 9.0948 L 79.6043 10.4046 L 80.0645 7.785 Z " stroke-width="0.14159977436065674"/>
      <path id="ID0.8637174661271274" fill="#B0C1CF" stroke="none" stroke-linecap="round" d="M 81.214 11.6945 L 81.7365 11.516 L 82.5266 12.3699 L 81.6728 12.0768 L 81.1375 12.3699 L 81.214 11.6945 Z " stroke-width="0.25487959384918213"/>
      <path id="ID0.8637174661271274" fill="#B0C1CF" stroke="none" stroke-linecap="round" d="M 81.0089 14.979 L 80.7257 14.9082 L 80.2796 15.2976 L 80.669 15.2268 L 81.0797 15.333 L 81.0089 14.979 Z " stroke-width="0.14159977436065674"/>
    </g>
    <g id="ID0.15554087748751044">
      <path id="ID0.8482902436517179" fill="#B0C1CF" stroke="none" d="M 87.7353 16.6946 L 88.2982 16.7573 L 88.008 19.3608 L 87.4451 19.2981 L 87.7353 16.6946 Z " stroke-width="0.14159977118081304"/>
      <path id="ID0.5404099025763571" fill="#B0C1CF" stroke="none" stroke-linecap="round" d="M 87.2635 16.1969 L 88.0431 15.9133 L 88.4355 16.2278 L 88.9108 16.4375 L 89.067 17.0818 L 88.8181 17.7807 L 88.058 18.0165 L 87.1199 17.6769 L 86.8911 16.9817 L 87.2635 16.1969 Z " stroke-width="0.14159977118081304"/>
    </g>
    <g id="ID0.8695859415456653">
      <path id="ID0.7277065478265285" fill="#B0C1CF" stroke="none" d="M 8.3972 3.0272 L 9.2822 3.0272 L 9.2822 11.6648 L 8.3972 11.6648 L 8.3972 3.0272 Z " stroke-width="0.14159977436065674"/>
      <path id="ID0.8004378951154649" fill="#B0C1CF" stroke="none" stroke-linecap="round" d="M 8.0986 1.0342 L 8.8774 1.0342 L 9.727 0.6094 L 10.3996 1.0696 L 11.1784 1.7422 L 11.4262 3.1582 L 11.3908 4.5034 L 10.8598 5.53 L 9.8332 5.9902 L 8.488 6.0256 L 7.1782 5.8132 L 6.4702 5.4238 L 6.1516 3.8662 L 6.4702 2.167 L 7.3906 0.8926 L 8.0986 1.0342 Z " stroke-width="0.14159977436065674"/>
      <path id="ID0.23617623001337051" fill="#B0C1CF" stroke="none" stroke-linecap="round" d="M 7.2352 6.669 L 8.0494 6.492 L 8.6866 6.7752 L 8.722 7.4832 L 7.9432 7.908 L 7.0936 7.5186 L 6.7042 7.1292 L 7.2352 6.669 Z " stroke-width="0.14159977436065674"/>
      <path id="ID0.23617623001337051" fill="#B0C1CF" stroke="none" stroke-linecap="round" d="M 9.9405 8.6646 L 9.5157 8.3814 L 8.9634 8.2752 L 8.9847 8.877 L 9.6219 8.9832 L 9.9405 8.6646 Z " stroke-width="0.14159977436065674"/>
    </g>
    <g id="ID0.9161517578177154">
      <path id="ID0.7481145667843521" fill="#B0C1CF" stroke="none" d="M 109.2201 52.1062 L 108.9645 52.08 L 107.8171 63.2786 L 108.0727 63.3047 L 109.2201 52.1062 Z " stroke-width="0.12371944021412831"/>
      <path id="ID0.7664037430658937" fill="#B0C1CF" stroke="none" stroke-linecap="round" d="M 109.9417 51.1126 L 109.5304 49.0776 L 108.5573 50.5081 L 107.7397 53.6982 L 109.067 52.3396 L 110.007 53.7526 L 109.9417 51.1126 Z " stroke-width="0.12371944021412831"/>
      <path id="ID0.8637174661271274" fill="#B0C1CF" stroke="none" stroke-linecap="round" d="M 108.7375 54.9289 L 108.3784 54.7128 L 107.7209 55.5037 L 108.3673 55.2753 L 108.7239 55.6065 L 108.7375 54.9289 Z " stroke-width="0.22269501663757507"/>
      <path id="ID0.8637174661271274" fill="#B0C1CF" stroke="none" stroke-linecap="round" d="M 108.514 58.1635 L 108.7257 58.114 L 109.0081 58.5343 L 108.7342 58.4351 L 108.4268 58.5104 L 108.514 58.1635 Z " stroke-width="0.12371944021412831"/>
    </g>
    <g id="ID0.32532088877633214">
      <path id="ID0.5138625972904265" fill="#B0C1CF" stroke="none" d="M 161.9486 65.7924 L 162.5751 65.8168 L 162.5175 67.2976 L 161.891 67.2732 L 161.9486 65.7924 Z " stroke-width="0.05699612767296308"/>
      <path id="ID0.6377782253548503" fill="#B0C1CF" stroke="none" stroke-linecap="round" d="M 161.1834 64.1581 L 161.5697 63.7596 L 162.9935 63.8149 L 163.4468 64.2604 L 163.398 65.5133 L 163.0693 65.8998 L 161.5031 65.8389 L 161.1358 65.3826 L 161.1834 64.1581 Z " stroke-width="0.05699612767296308"/>
      <path id="ID0.6377782253548503" fill="#B0C1CF" stroke="none" stroke-linecap="round" d="M 161.2522 62.2932 L 161.6044 61.9298 L 162.9029 61.9803 L 163.3162 62.3865 L 163.2718 63.5291 L 162.972 63.8816 L 161.5437 63.826 L 161.2088 63.4099 L 161.2522 62.2932 Z " stroke-width="0.051977602876845344"/>
      <path id="ID0.6377782253548503" fill="#B0C1CF" stroke="none" stroke-linecap="round" d="M 161.4578 60.7556 L 161.74 60.4645 L 162.7802 60.5049 L 163.1114 60.8303 L 163.0757 61.7457 L 162.8356 62.0281 L 161.6914 61.9836 L 161.423 61.6502 L 161.4578 60.7556 Z " stroke-width="0.04163951974487068"/>
    </g>
    <g id="ID0.16197650181129575">
      <path id="ID0.2429629685357213" fill="#B0C1CF" stroke="none" d="M 119.6183 61.3781 L 120.1835 61.4023 L 119.5689 67.3312 L 119.0037 67.307 L 119.6183 61.3781 Z " stroke-width="0.11898122744837479"/>
      <path id="ID0.4719710564240813" fill="#B0C1CF" stroke="none" stroke-linecap="round" d="M 118.8206 60.2964 L 118.2602 60.569 L 119.0349 59.5983 L 120.29 58.785 L 120.9069 59.3363 L 121.8677 60.678 L 120.881 60.2707 L 121.432 60.7734 L 121.936 61.3883 L 120.8269 61.1354 L 121.5592 61.9426 L 121.7099 62.5423 L 120.257 62.1834 L 119.3481 62.0531 L 117.5349 62.4317 L 118.4391 61.5806 L 118.8959 61.2808 L 117.768 61.5518 L 118.6463 60.6084 L 118.9525 60.3933 L 118.8206 60.2964 Z " stroke-width="0.11898122744837479"/>
      <path id="ID0.5574884423986077" fill="#B0C1CF" stroke="none" stroke-linecap="round" d="M 119.9111 63.0898 L 120.3326 63.473 L 120.448 64.0712 L 119.6756 63.6501 L 119.9111 63.0898 Z " stroke-width="0.11898122744837479"/>
      <path id="ID0.5574884423986077" fill="#B0C1CF" stroke="none" stroke-linecap="round" d="M 119.4746 64.6103 L 118.933 64.9065 L 118.6764 65.3291 L 119.3828 65.0171 L 119.4746 64.6103 Z " stroke-width="0.11898122744837479"/>
    </g>
    <g id="ID0.5213190782815218">
      <path id="ID0.1596489236690104" fill="#B0C1CF" stroke="none" d="M 126.3084 63.4512 L 126.9393 63.384 L 127.6264 67.0115 L 126.9955 67.0787 L 126.3084 63.4512 Z " stroke-width="0.11721179514873513"/>
      <path id="ID0.8456291356123984" fill="#B0C1CF" stroke="none" stroke-linecap="round" d="M 125.5173 63.2858 L 125.8433 62.7416 L 125.5838 61.9379 L 125.965 61.3074 L 126.8262 61.1352 L 127.5113 61.9203 L 127.3554 62.6073 L 127.7302 63.2646 L 127.8497 63.8955 L 127.2883 64.5184 L 126.1319 64.4539 L 125.6416 64.1307 L 125.5173 63.2858 Z " stroke-width="0.12500765860877783"/>
    </g>
    <g id="ID0.07672071224078536">
      <path id="ID0.5755643504671752" fill="#B0C1CF" stroke="none" stroke-linecap="round" d="M 139.2667 61.404 L 139.8186 61.4129 L 139.7386 66.3898 L 139.1867 66.3809 L 139.2667 61.404 Z " stroke-width="0.05311845444581001"/>
      <path id="ID0.6377782253548503" fill="#B0C1CF" stroke="none" stroke-linecap="round" d="M 138.1154 63.415 L 138.1858 62.8472 L 138.6976 62.3007 L 139.2093 61.7542 L 139.7475 61.8482 L 139.951 62.1644 L 140.1813 62.3388 L 140.6632 63.4929 L 139.8251 63.1296 L 139.5481 62.8122 L 139.2517 62.9354 L 138.7343 63.0694 L 138.1154 63.415 Z " stroke-width="0.05311845444581001"/>
      <path id="ID0.6377782253548503" fill="#B0C1CF" stroke="none" stroke-linecap="round" d="M 138.2712 61.6751 L 138.703 60.7575 L 139.2007 60.3246 L 139.8513 60.2924 L 140.1997 60.7531 L 140.5625 61.8399 L 140.3517 61.9788 L 140.0944 61.9604 L 139.8244 61.9703 L 139.2602 61.9612 L 138.992 61.8574 L 138.4774 61.8206 L 138.2712 61.6751 Z " stroke-width="0.05311845444581001"/>
    </g>
    <g id="ID0.5372698470018804">
      <path id="ID0.996752165723592" fill="#B0C1CF" stroke="none" d="M 185.4618 68.7403 L 185.8148 68.7145 L 186.0729 72.245 L 185.7199 72.2709 L 185.4618 68.7403 Z " stroke-width="0.14159976913397998"/>
      <path id="ID0.3925567790865898" fill="#B0C1CF" stroke="none" stroke-linecap="round" d="M 184.6893 67.0108 L 184.1236 66.5553 L 184.0874 66.061 L 184.1969 65.1301 L 184.5284 64.325 L 185.2036 63.8497 L 186.1232 64.7763 L 186.3995 65.6435 L 185.9319 66.5296 L 186.4046 67.1694 L 186.6637 68.2863 L 186.0144 69.1146 L 184.8312 68.9526 L 184.1295 68.578 L 184.1252 67.549 L 184.6893 67.0108 Z " stroke-width="0.14159976913397998"/>
      <path id="ID0.4457426266744733" fill="#B0C1CF" stroke="none" stroke-linecap="round" d="M 184.9011 69.9134 L 185.2284 69.5346 L 185.6572 69.5742 L 185.6606 70.1064 L 185.2421 70.208 L 184.9011 69.9134 Z " stroke-width="0.14159976913397998"/>
    </g>
    <g id="ID0.8695859415456653">
      <path id="ID0.7277065478265285" fill="#B0C1CF" stroke="none" d="M 198.0983 55.7051 L 198.9519 55.4716 L 201.2302 63.8033 L 200.3766 64.0368 L 198.0983 55.7051 Z " stroke-width="0.14159977651199934"/>
      <path id="ID0.8004378951154649" fill="#B0C1CF" stroke="none" stroke-linecap="round" d="M 197.2846 53.8614 L 198.0358 53.656 L 198.7432 53.0221 L 199.5134 53.2886 L 200.442 53.732 L 201.0545 55.0325 L 201.3752 56.3394 L 201.1338 57.4697 L 200.2649 58.1844 L 198.9767 58.5733 L 197.6573 58.7139 L 196.8717 58.5251 L 196.1535 57.1067 L 196.0126 55.3836 L 196.5643 53.9116 L 197.2846 53.8614 Z " stroke-width="0.14159977651199934"/>
      <path id="ID0.23617623001337051" fill="#B0C1CF" stroke="none" stroke-linecap="round" d="M 197.938 59.5244 L 198.6767 59.1389 L 199.366 59.244 L 199.5869 59.9176 L 198.9477 60.5328 L 198.0255 60.3813 L 197.5472 60.1084 L 197.938 59.5244 Z " stroke-width="0.14159977651199934"/>
      <path id="ID0.23617623001337051" fill="#B0C1CF" stroke="none" stroke-linecap="round" d="M 201.0739 60.7358 L 200.5894 60.5746 L 200.0287 60.6179 L 200.2079 61.1927 L 200.8506 61.1271 L 201.0739 60.7358 Z " stroke-width="0.14159977651199934"/>
    </g>
    <g id="ID0.5213190782815218">
      <path id="ID0.1596489236690104" fill="#B0C1CF" stroke="none" d="M 214.7084 46.8683 L 215.3393 46.7787 L 216.0264 51.6153 L 215.3955 51.7049 L 214.7084 46.8683 Z " stroke-width="0.13470597205657378"/>
      <path id="ID0.8456291356123984" fill="#B0C1CF" stroke="none" stroke-linecap="round" d="M 213.9173 46.6478 L 214.2433 45.9221 L 213.9838 44.8506 L 214.365 44.0098 L 215.2262 43.7802 L 215.9113 44.8271 L 215.7554 45.7431 L 216.1302 46.6195 L 216.2497 47.4606 L 215.6883 48.2912 L 214.5319 48.2052 L 214.0416 47.7743 L 213.9173 46.6478 Z " stroke-width="0.14159976741282204"/>
    </g>
    <g id="ID0.15554087748751044">
      <path id="ID0.8482902436517179" fill="#B0C1CF" stroke="none" d="M 169.2353 64.9946 L 169.7982 65.0573 L 169.508 67.6608 L 168.9451 67.5981 L 169.2353 64.9946 Z " stroke-width="0.14159977118081304"/>
      <path id="ID0.5404099025763571" fill="#B0C1CF" stroke="none" stroke-linecap="round" d="M 168.7635 64.4969 L 169.5431 64.2133 L 169.9355 64.5278 L 170.4108 64.7375 L 170.567 65.3818 L 170.3181 66.0807 L 169.558 66.3165 L 168.6199 65.9769 L 168.3911 65.2817 L 168.7635 64.4969 Z " stroke-width="0.14159977118081304"/>
    </g>
    <g id="ID0.13338996097445488">
      <path id="ID0.5138625972904265" fill="#B0C1CF" stroke="none" d="M 239.2984 44.2519 L 239.9834 44.3113 L 239.8431 45.9304 L 239.158 45.871 L 239.2984 44.2519 Z " stroke-width="0.06250932741210126"/>
      <path id="ID0.6377782253548503" fill="#B0C1CF" stroke="none" stroke-linecap="round" d="M 238.7443 43.0686 L 239.3803 42.2454 L 240.0342 42.3021 L 240.6856 43.1115 L 241.1665 44.4394 L 239.5785 44.3017 L 238.0501 44.2006 L 238.7443 43.0686 Z " stroke-width="0.06250932741210126"/>
      <path id="ID0.6377782253548503" fill="#B0C1CF" stroke="none" stroke-linecap="round" d="M 238.8763 41.2953 L 239.5303 40.4454 L 240.1842 40.5021 L 240.8041 41.4938 L 241.1916 42.8137 L 239.7285 42.5017 L 238.2985 42.5315 L 238.8763 41.2953 Z " stroke-width="0.06250932741210126"/>
      <path id="ID0.6377782253548503" fill="#B0C1CF" stroke="none" stroke-linecap="round" d="M 239.1453 39.4229 L 240.0494 38.4032 L 241.0041 39.6938 L 241.3957 40.967 L 239.9285 40.7017 L 238.4064 40.7078 L 239.1453 39.4229 Z " stroke-width="0.06250932741210126"/>
    </g>
    <g id="ID0.9161517578177154">
      <path id="ID0.7481145667843521" fill="#B0C1CF" stroke="none" d="M 259.1112 37.9557 L 259.4627 37.9973 L 258.138 49.1763 L 257.7865 49.1347 L 259.1112 37.9557 Z " stroke-width="0.14159977493716586"/>
      <path id="ID0.7664037430658937" fill="#B0C1CF" stroke="none" stroke-linecap="round" d="M 258.3924 36.8011 L 259.4694 34.9324 L 260.4152 36.5774 L 260.6999 39.8907 L 259.2578 38.2226 L 257.6272 39.3483 L 258.3924 36.8011 Z " stroke-width="0.14159977493716586"/>
      <path id="ID0.8637174661271274" fill="#B0C1CF" stroke="none" stroke-linecap="round" d="M 259.0739 40.8187 L 259.6138 40.703 L 260.2979 41.6439 L 259.4845 41.2523 L 258.9185 41.4804 L 259.0739 40.8187 Z " stroke-width="0.25487959488689854"/>
      <path id="ID0.8637174661271274" fill="#B0C1CF" stroke="none" stroke-linecap="round" d="M 258.4837 44.0562 L 258.2108 43.9526 L 257.722 44.2868 L 258.1171 44.2623 L 258.5123 44.4161 L 258.4837 44.0562 Z " stroke-width="0.14159977493716586"/>
    </g>
    <g id="ID0.5213190782815218">
      <path id="ID0.1596489236690104" fill="#B0C1CF" stroke="none" d="M 218.6084 46.8683 L 219.2393 46.7787 L 219.9264 51.6153 L 219.2955 51.7049 L 218.6084 46.8683 Z " stroke-width="0.13470597205657378"/>
      <path id="ID0.8456291356123984" fill="#B0C1CF" stroke="none" stroke-linecap="round" d="M 217.8173 46.6478 L 218.1433 45.9221 L 217.8838 44.8506 L 218.265 44.0098 L 219.1262 43.7802 L 219.8113 44.8271 L 219.6554 45.7431 L 220.0302 46.6195 L 220.1497 47.4606 L 219.5883 48.2912 L 218.4319 48.2052 L 217.9416 47.7743 L 217.8173 46.6478 Z " stroke-width="0.14159976741282204"/>
    </g>
    <g id="ID0.7277544308453798">
      <path id="ID0.8515107058919966" fill="#B0C1CF" stroke="none" d="M 250.2039 39.051 L 250.8397 39.0926 L 250.3214 47.0053 L 249.6856 46.9636 L 250.2039 39.051 Z " stroke-width="0.14159976331010987"/>
      <path id="ID0.5577249256893992" fill="#B0C1CF" stroke="none" stroke-linecap="round" d="M 249.2972 40.9782 L 250.526 40.633 L 251.1862 41.3858 L 251.7097 42.0586 L 251.5743 43.0431 L 250.2042 43.3791 L 249.2429 42.8904 L 248.9591 41.8075 L 249.2972 40.9782 Z " stroke-width="0.14159976331010987"/>
      <path id="ID0.8560941652394831" fill="#B0C1CF" stroke="none" stroke-linecap="round" d="M 249.0991 38.3158 L 250.2561 36.9016 L 251.1547 36.18 L 251.6042 37.9833 L 252.2089 39.5838 L 251.6588 40.3992 L 250.3073 40.4526 L 248.856 39.8608 L 249.0991 38.3158 Z " stroke-width="0.14159976331010987"/>
    </g>
    <g id="ID0.8695859415456653">
      <path id="ID0.7277065478265285" fill="#B0C1CF" stroke="none" d="M 277.7671 40.2144 L 278.1494 40.1776 L 278.9764 48.7755 L 278.5941 48.8123 L 277.7671 40.2144 Z " stroke-width="0.10914776919367572"/>
      <path id="ID0.8004378951154649" fill="#B0C1CF" stroke="none" stroke-linecap="round" d="M 277.4473 38.2429 L 277.7838 38.2106 L 278.1101 37.7524 L 278.4447 38.1826 L 278.8455 38.8197 L 279.0881 40.2189 L 279.2016 41.5594 L 279.0705 42.6034 L 278.6711 43.1041 L 278.0934 43.1952 L 277.5073 43.0382 L 277.1642 42.68 L 276.8774 41.1428 L 276.8524 39.4382 L 277.128 38.1314 L 277.4473 38.2429 Z " stroke-width="0.10914776919367572"/>
      <path id="ID0.23617623001337051" fill="#B0C1CF" stroke="none" stroke-linecap="round" d="M 277.6138 43.8877 L 277.9486 43.6777 L 278.251 43.9331 L 278.334 44.6364 L 278.0383 45.0916 L 277.634 44.7393 L 277.4285 44.3679 L 277.6138 43.8877 Z " stroke-width="0.10914776919367572"/>
      <path id="ID0.23617623001337051" fill="#B0C1CF" stroke="none" stroke-linecap="round" d="M 278.9735 45.7618 L 278.7629 45.4975 L 278.5142 45.4147 L 278.581 46.0129 L 278.8664 46.0921 L 278.9735 45.7618 Z " stroke-width="0.10914776919367572"/>
    </g>
    <g id="ID0.15554087748751044">
      <path id="ID0.8482902436517179" fill="#B0C1CF" stroke="none" d="M 264.7353 47.0946 L 265.2982 47.1573 L 265.008 49.7608 L 264.4451 49.6981 L 264.7353 47.0946 Z " stroke-width="0.14159977118081304"/>
      <path id="ID0.5404099025763571" fill="#B0C1CF" stroke="none" stroke-linecap="round" d="M 264.2635 46.5969 L 265.0431 46.3133 L 265.4355 46.6278 L 265.9108 46.8375 L 266.067 47.4818 L 265.8181 48.1807 L 265.058 48.4165 L 264.1199 48.0769 L 263.8911 47.3817 L 264.2635 46.5969 Z " stroke-width="0.14159977118081304"/>
    </g>
    <g id="ID0.5372698470018804">
      <path id="ID0.996752165723592" fill="#B0C1CF" stroke="none" d="M 295.7338 45.1619 L 296.0848 45.2078 L 295.6253 48.7179 L 295.2743 48.6719 L 295.7338 45.1619 Z " stroke-width="0.14159977087691622"/>
      <path id="ID0.3925567790865898" fill="#B0C1CF" stroke="none" stroke-linecap="round" d="M 295.3262 43.3121 L 294.864 42.7518 L 294.9283 42.2604 L 295.2233 41.3708 L 295.7105 40.6491 L 296.4676 40.3198 L 297.1814 41.4129 L 297.2771 42.318 L 296.6403 43.0915 L 296.9742 43.8135 L 297.0027 44.9597 L 296.1996 45.64 L 295.0734 45.2427 L 294.4617 44.7341 L 294.6651 43.7254 L 295.3262 43.3121 Z " stroke-width="0.14159977087691622"/>
      <path id="ID0.4457426266744733" fill="#B0C1CF" stroke="none" stroke-linecap="round" d="M 294.948 46.1978 L 295.345 45.8927 L 295.757 46.0181 L 295.653 46.54 L 295.2226 46.5551 L 294.948 46.1978 Z " stroke-width="0.14159977087691622"/>
    </g>
    <g id="ID0.9161517578177154">
      <path id="ID0.7481145667843521" fill="#B0C1CF" stroke="none" d="M 324.8112 41.3557 L 325.1627 41.3973 L 323.838 52.5763 L 323.4865 52.5347 L 324.8112 41.3557 Z " stroke-width="0.14159977493716586"/>
      <path id="ID0.7664037430658937" fill="#B0C1CF" stroke="none" stroke-linecap="round" d="M 324.0924 40.2011 L 325.1694 38.3324 L 326.1152 39.9774 L 326.3999 43.2907 L 324.9578 41.6226 L 323.3272 42.7483 L 324.0924 40.2011 Z " stroke-width="0.14159977493716586"/>
      <path id="ID0.8637174661271274" fill="#B0C1CF" stroke="none" stroke-linecap="round" d="M 324.7739 44.2187 L 325.3138 44.103 L 325.9979 45.0439 L 325.1845 44.6523 L 324.6185 44.8804 L 324.7739 44.2187 Z " stroke-width="0.25487959488689854"/>
      <path id="ID0.8637174661271274" fill="#B0C1CF" stroke="none" stroke-linecap="round" d="M 324.1837 47.4562 L 323.9108 47.3526 L 323.422 47.6868 L 323.8171 47.6623 L 324.2123 47.8161 L 324.1837 47.4562 Z " stroke-width="0.14159977493716586"/>
    </g>
    <g id="ID0.32532088877633214">
      <path id="ID0.5138625972904265" fill="#B0C1CF" stroke="none" d="M 303.7986 46.6424 L 304.4251 46.6668 L 304.3675 48.1476 L 303.741 48.1232 L 303.7986 46.6424 Z " stroke-width="0.05699612767296308"/>
      <path id="ID0.6377782253548503" fill="#B0C1CF" stroke="none" stroke-linecap="round" d="M 303.0334 45.0081 L 303.4197 44.6096 L 304.8435 44.6649 L 305.2968 45.1104 L 305.248 46.3633 L 304.9193 46.7498 L 303.3531 46.6889 L 302.9858 46.2326 L 303.0334 45.0081 Z " stroke-width="0.05699612767296308"/>
      <path id="ID0.6377782253548503" fill="#B0C1CF" stroke="none" stroke-linecap="round" d="M 303.1022 43.1432 L 303.4544 42.7798 L 304.7529 42.8303 L 305.1662 43.2365 L 305.1218 44.3791 L 304.822 44.7316 L 303.3937 44.676 L 303.0588 44.2599 L 303.1022 43.1432 Z " stroke-width="0.051977602876845344"/>
      <path id="ID0.6377782253548503" fill="#B0C1CF" stroke="none" stroke-linecap="round" d="M 303.3078 41.6056 L 303.59 41.3145 L 304.6302 41.3549 L 304.9614 41.6803 L 304.9257 42.5957 L 304.6856 42.8781 L 303.5414 42.8336 L 303.273 42.5002 L 303.3078 41.6056 Z " stroke-width="0.04163951974487068"/>
    </g>
    <g id="ID0.15554087748751044">
      <path id="ID0.8482902436517179" fill="#B0C1CF" stroke="none" d="M 327.752 51.1433 L 328.2926 51.3121 L 327.5121 53.8127 L 326.9714 53.6439 L 327.752 51.1433 Z " stroke-width="0.14159977105747124"/>
      <path id="ID0.5404099025763571" fill="#B0C1CF" stroke="none" stroke-linecap="round" d="M 327.3836 50.5649 L 328.2029 50.4349 L 328.5282 50.8183 L 328.9549 51.1147 L 328.9855 51.7769 L 328.6082 52.4157 L 327.8171 52.5025 L 326.9608 51.9904 L 326.8685 51.2644 L 327.3836 50.5649 Z " stroke-width="0.14159977105747124"/>
    </g>
    <g id="ID0.5213190782815218">
      <path id="ID0.1596489236690104" fill="#B0C1CF" stroke="none" d="M 340.4829 58.5131 L 341.0821 58.7216 L 340.155 62.2953 L 339.5558 62.0868 L 340.4829 58.5131 Z " stroke-width="0.11721179319861602"/>
      <path id="ID0.8456291356123984" fill="#B0C1CF" stroke="none" stroke-linecap="round" d="M 339.8381 58.0259 L 340.3652 57.6729 L 340.4736 56.8353 L 341.0875 56.4278 L 341.9398 56.6397 L 342.2242 57.6422 L 341.7899 58.1969 L 341.8482 58.9513 L 341.687 59.5728 L 340.9134 59.8965 L 339.8952 59.3445 L 339.5898 58.843 L 339.8381 58.0259 Z " stroke-width="0.1250076563938385"/>
    </g>
    <g id="ID0.8695859415456653">
      <path id="ID0.7277065478265285" fill="#B0C1CF" stroke="none" d="M 354.4291 58.0002 L 355.058 58.0186 L 354.8058 66.6525 L 354.1769 66.6341 L 354.4291 58.0002 Z " stroke-width="0.12285212170477992"/>
      <path id="ID0.8004378951154649" fill="#B0C1CF" stroke="none" stroke-linecap="round" d="M 354.2751 56.0019 L 354.8286 56.018 L 355.4447 55.6111 L 355.9093 56.085 L 356.4431 56.7735 L 356.5779 58.194 L 356.5134 59.5379 L 356.1061 60.5531 L 355.3631 60.9918 L 354.4061 60.9992 L 353.4815 60.7597 L 352.9897 60.3558 L 352.8088 58.7922 L 353.0848 57.1004 L 353.7761 55.8456 L 354.2751 56.0019 Z " stroke-width="0.12285212170477992"/>
      <path id="ID0.23617623001337051" fill="#B0C1CF" stroke="none" stroke-linecap="round" d="M 353.497 61.6163 L 354.0808 61.4563 L 354.5253 61.7526 L 354.5298 62.4611 L 353.9639 62.8695 L 353.3715 62.4626 L 353.1062 62.0653 L 353.497 61.6163 Z " stroke-width="0.12285212170477992"/>
      <path id="ID0.23617623001337051" fill="#B0C1CF" stroke="none" stroke-linecap="round" d="M 355.3612 63.6672 L 355.0676 63.3753 L 354.6783 63.2577 L 354.6758 63.8597 L 355.1255 63.9791 L 355.3612 63.6672 Z " stroke-width="0.12285212170477992"/>
    </g>
    <g id="ID0.16197650181129575">
      <path id="ID0.2429629685357213" fill="#B0C1CF" stroke="none" d="M 361.8683 59.2633 L 362.4335 59.301 L 361.8189 68.5199 L 361.2537 68.4822 L 361.8683 59.2633 Z " stroke-width="0.14159977078969563"/>
      <path id="ID0.4719710564240813" fill="#B0C1CF" stroke="none" stroke-linecap="round" d="M 361.0706 57.5814 L 360.5102 58.0053 L 361.2849 56.4959 L 362.54 55.2313 L 363.1569 56.0885 L 364.1177 58.1748 L 363.131 57.5414 L 363.682 58.3232 L 364.186 59.2792 L 363.0769 58.8859 L 363.8092 60.141 L 363.9599 61.0735 L 362.507 60.5154 L 361.5981 60.3129 L 359.7849 60.9016 L 360.6891 59.5782 L 361.1459 59.112 L 360.018 59.5335 L 360.8963 58.0665 L 361.2025 57.7321 L 361.0706 57.5814 Z " stroke-width="0.14159977078969563"/>
      <path id="ID0.5574884423986077" fill="#B0C1CF" stroke="none" stroke-linecap="round" d="M 362.1611 61.9249 L 362.5826 62.5207 L 362.698 63.4508 L 361.9256 62.7962 L 362.1611 61.9249 Z " stroke-width="0.14159977078969563"/>
      <path id="ID0.5574884423986077" fill="#B0C1CF" stroke="none" stroke-linecap="round" d="M 361.7246 64.2892 L 361.183 64.7498 L 360.9264 65.4067 L 361.6328 64.9216 L 361.7246 64.2892 Z " stroke-width="0.14159977078969563"/>
    </g>
    <g id="ID0.7277544308453798">
      <path id="ID0.8515107058919966" fill="#B0C1CF" stroke="none" d="M 233.8444 38.8208 L 234.4802 38.7797 L 234.9913 46.6928 L 234.3554 46.7339 L 233.8444 38.8208 Z " stroke-width="0.14159976120123102"/>
      <path id="ID0.5577249256893992" fill="#B0C1CF" stroke="none" stroke-linecap="round" d="M 233.195 40.8493 L 234.3687 40.3478 L 235.1208 41.0087 L 235.7271 41.6081 L 235.7203 42.6018 L 234.4053 43.1124 L 233.3888 42.7523 L 232.9671 41.7154 L 233.195 40.8493 Z " stroke-width="0.14159976120123102"/>
      <path id="ID0.8560941652394831" fill="#B0C1CF" stroke="none" stroke-linecap="round" d="M 232.6537 38.235 L 233.6177 36.6828 L 234.4153 35.8509 L 235.0946 37.5807 L 235.9015 39.0894 L 235.4617 39.9692 L 234.1284 40.1972 L 232.6128 39.7985 L 232.6537 38.235 Z " stroke-width="0.14159976120123102"/>
    </g>
    <g id="ID0.7277544308453798">
      <path id="ID0.8515107058919966" fill="#B0C1CF" stroke="none" d="M 385.7752 55.3895 L 386.3992 55.2605 L 388.0053 63.0257 L 387.3813 63.1548 L 385.7752 55.3895 Z " stroke-width="0.14159976326831167"/>
      <path id="ID0.5577249256893992" fill="#B0C1CF" stroke="none" stroke-linecap="round" d="M 385.4141 57.4886 L 386.5067 56.8288 L 387.3434 57.3787 L 388.0272 57.888 L 388.1586 58.873 L 386.9273 59.5615 L 385.8706 59.3462 L 385.3089 58.3779 L 385.4141 57.4886 Z " stroke-width="0.14159976326831167"/>
      <path id="ID0.8560941652394831" fill="#B0C1CF" stroke="none" stroke-linecap="round" d="M 384.5147 54.9749 L 385.2535 53.3038 L 385.9278 52.3691 L 386.8409 53.9877 L 387.8498 55.3696 L 387.5365 56.3019 L 386.2479 56.7131 L 384.6915 56.5289 L 384.5147 54.9749 Z " stroke-width="0.14159976326831167"/>
    </g>
    <g id="ID0.13338996097445488">
      <path id="ID0.5138625972904265" fill="#B0C1CF" stroke="none" d="M 398.6135 52.5671 L 399.3003 52.5328 L 399.3814 54.156 L 398.6946 54.1903 L 398.6135 52.5671 Z " stroke-width="0.0625093268397966"/>
      <path id="ID0.6377782253548503" fill="#B0C1CF" stroke="none" stroke-linecap="round" d="M 397.9036 51.4702 L 398.4219 50.5681 L 399.0774 50.5353 L 399.8328 51.2486 L 400.4898 52.4989 L 398.8978 52.5784 L 397.3698 52.686 L 397.9036 51.4702 Z " stroke-width="0.0625093268397966"/>
      <path id="ID0.6377782253548503" fill="#B0C1CF" stroke="none" stroke-linecap="round" d="M 397.7933 49.6954 L 398.3257 48.7644 L 398.9812 48.7317 L 399.7302 49.6299 L 400.2936 50.8848 L 398.8017 50.7747 L 397.389 50.9986 L 397.7933 49.6954 Z " stroke-width="0.0625093268397966"/>
      <path id="ID0.6377782253548503" fill="#B0C1CF" stroke="none" stroke-linecap="round" d="M 397.8052 47.8037 L 398.5622 46.6707 L 399.6836 47.8194 L 400.2446 49.0275 L 398.755 48.9642 L 397.2479 49.1772 L 397.8052 47.8037 Z " stroke-width="0.0625093268397966"/>
    </g>
    <g id="ID0.9161517578177154">
      <path id="ID0.7481145667843521" fill="#B0C1CF" stroke="none" d="M 405.8821 13.1796 L 406.2341 13.1423 L 407.0901 21.2053 L 406.7381 21.2427 L 405.8821 13.1796 Z " stroke-width="0.12339519748073584"/>
      <path id="ID0.7664037430658937" fill="#B0C1CF" stroke="none" stroke-linecap="round" d="M 404.9565 12.5087 L 405.6506 10.9991 L 406.8928 11.9697 L 407.8093 14.2314 L 406.077 13.3384 L 404.6981 14.4336 L 404.9565 12.5087 Z " stroke-width="0.12339519748073584"/>
      <path id="ID0.8637174661271274" fill="#B0C1CF" stroke="none" stroke-linecap="round" d="M 406.3968 15.1875 L 406.9029 15.0045 L 407.7535 15.5327 L 406.8821 15.4129 L 406.3722 15.6794 L 406.3968 15.1875 Z " stroke-width="0.2221113554653245"/>
      <path id="ID0.8637174661271274" fill="#B0C1CF" stroke="none" stroke-linecap="round" d="M 406.4426 17.5617 L 406.1556 17.5409 L 405.7417 17.8669 L 406.1235 17.7751 L 406.5399 17.8078 L 406.4426 17.5617 Z " stroke-width="0.12339519748073584"/>
    </g>
    <g id="ID0.5372698470018804">
      <path id="ID0.996752165723592" fill="#B0C1CF" stroke="none" d="M 410.6799 18.2128 L 411.0334 18.2115 L 411.1611 20.7962 L 410.8075 20.7975 L 410.6799 18.2128 Z " stroke-width="0.12388700341187782"/>
      <path id="ID0.3925567790865898" fill="#B0C1CF" stroke="none" stroke-linecap="round" d="M 409.9721 16.9147 L 409.4239 16.5549 L 409.406 16.193 L 409.5496 15.5203 L 409.9104 14.9502 L 410.6023 14.6374 L 411.4866 15.3579 L 411.7307 16.0032 L 411.2309 16.6256 L 411.6795 17.1151 L 411.8971 17.9415 L 411.218 18.5128 L 410.0423 18.3363 L 409.3552 18.0287 L 409.3889 17.2789 L 409.9721 16.9147 Z " stroke-width="0.12388700341187782"/>
      <path id="ID0.4457426266744733" fill="#B0C1CF" stroke="none" stroke-linecap="round" d="M 410.0767 19.0397 L 410.4175 18.7799 L 410.8444 18.83 L 410.8281 19.2178 L 410.4064 19.2711 L 410.0767 19.0397 Z " stroke-width="0.12388700341187782"/>
    </g>
    <g id="ID0.8695859415456653">
      <path id="ID0.7277065478265285" fill="#B0C1CF" stroke="none" d="M 425.6125 10.3272 L 424.9446 10.3272 L 424.9446 18.9648 L 425.6125 18.9648 L 425.6125 10.3272 Z " stroke-width="0.12544164646254705"/>
      <path id="ID0.8004378951154649" fill="#B0C1CF" stroke="none" stroke-linecap="round" d="M 425.8379 8.3342 L 425.2501 8.3342 L 424.6089 7.9094 L 424.1013 8.3696 L 423.5135 9.0422 L 423.3265 10.4582 L 423.3532 11.8034 L 423.7539 12.83 L 424.5287 13.2902 L 425.544 13.3256 L 426.5325 13.1132 L 427.0668 12.7238 L 427.3073 11.1662 L 427.0668 9.467 L 426.3722 8.1926 L 425.8379 8.3342 Z " stroke-width="0.12544164646254705"/>
      <path id="ID0.23617623001337051" fill="#B0C1CF" stroke="none" stroke-linecap="round" d="M 426.4895 13.969 L 425.875 13.792 L 425.3941 14.0752 L 425.3674 14.7832 L 425.9551 15.208 L 426.5964 14.8186 L 426.8902 14.4292 L 426.4895 13.969 Z " stroke-width="0.12544164646254705"/>
      <path id="ID0.23617623001337051" fill="#B0C1CF" stroke="none" stroke-linecap="round" d="M 424.4478 15.9646 L 424.7684 15.6814 L 425.1852 15.5752 L 425.1691 16.177 L 424.6882 16.2832 L 424.4478 15.9646 Z " stroke-width="0.12544164646254705"/>
    </g>
    <g id="ID0.32532088877633214">
      <path id="ID0.5138625972904265" fill="#B0C1CF" stroke="none" d="M 435.3993 13.9581 L 436.022 13.8852 L 436.1944 15.357 L 435.5717 15.43 L 435.3993 13.9581 Z " stroke-width="0.05699612722937468"/>
      <path id="ID0.6377782253548503" fill="#B0C1CF" stroke="none" stroke-linecap="round" d="M 434.3903 12.462 L 434.7101 12.0085 L 436.1254 11.8427 L 436.6421 12.2126 L 436.788 13.458 L 436.5231 13.8907 L 434.9663 14.0731 L 434.5328 13.6791 L 434.3903 12.462 Z " stroke-width="0.05699612722937468"/>
      <path id="ID0.6377782253548503" fill="#B0C1CF" stroke="none" stroke-linecap="round" d="M 434.1694 10.609 L 434.4611 10.1954 L 435.7517 10.0442 L 436.223 10.3815 L 436.356 11.5173 L 436.1144 11.9119 L 434.6947 12.0782 L 434.2994 11.7189 L 434.1694 10.609 Z " stroke-width="0.05197760247231502"/>
      <path id="ID0.6377782253548503" fill="#B0C1CF" stroke="none" stroke-linecap="round" d="M 434.1344 9.0581 L 434.3681 8.7268 L 435.402 8.6057 L 435.7796 8.8759 L 435.8861 9.7857 L 435.6926 10.1019 L 434.5553 10.2351 L 434.2386 9.9473 L 434.1344 9.0581 Z " stroke-width="0.041639519420799395"/>
    </g>
    <g id="ID0.15554087748751044">
      <path id="ID0.8482902436517179" fill="#B0C1CF" stroke="none" d="M 454.6353 7.4446 L 455.1982 7.5073 L 454.908 10.1108 L 454.3451 10.0481 L 454.6353 7.4446 Z " stroke-width="0.14159977118081304"/>
      <path id="ID0.5404099025763571" fill="#B0C1CF" stroke="none" stroke-linecap="round" d="M 454.1635 6.9469 L 454.9431 6.6633 L 455.3355 6.9778 L 455.8108 7.1875 L 455.967 7.8318 L 455.7181 8.5307 L 454.958 8.7665 L 454.0199 8.4269 L 453.7911 7.7317 L 454.1635 6.9469 Z " stroke-width="0.14159977118081304"/>
    </g>
    <g id="ID0.13338996097445488">
      <path id="ID0.5138625972904265" fill="#B0C1CF" stroke="none" d="M 473.1984 9.2019 L 473.8834 9.2613 L 473.7431 10.8804 L 473.058 10.821 L 473.1984 9.2019 Z " stroke-width="0.06250932741210126"/>
      <path id="ID0.6377782253548503" fill="#B0C1CF" stroke="none" stroke-linecap="round" d="M 472.6443 8.0186 L 473.2803 7.1954 L 473.9342 7.2521 L 474.5856 8.0615 L 475.0665 9.3894 L 473.4785 9.2517 L 471.9501 9.1506 L 472.6443 8.0186 Z " stroke-width="0.06250932741210126"/>
      <path id="ID0.6377782253548503" fill="#B0C1CF" stroke="none" stroke-linecap="round" d="M 472.7763 6.2453 L 473.4303 5.3954 L 474.0842 5.4521 L 474.7041 6.4438 L 475.0916 7.7637 L 473.6285 7.4517 L 472.1985 7.4815 L 472.7763 6.2453 Z " stroke-width="0.06250932741210126"/>
      <path id="ID0.6377782253548503" fill="#B0C1CF" stroke="none" stroke-linecap="round" d="M 473.0453 4.3729 L 473.9494 3.3532 L 474.9041 4.6438 L 475.2957 5.917 L 473.8285 5.6517 L 472.3064 5.6578 L 473.0453 4.3729 Z " stroke-width="0.06250932741210126"/>
    </g>
    <path id="ID0.31683381740003824" fill="url(#grad_1-,0,0,1,1,-124)" stroke="none" d="M 1 7 L 481 7 L 481 175 L 1 175 L 1 7 Z " stroke-width="1"/>
  </g>
</svg>