<svg xmlns="http://www.w3.org/2000/svg" xmlns:xlink="http://www.w3.org/1999/xlink" version="1.1" width="481" height="190.7445068359375" viewBox="-0.5 0.7554999589920044 481 190.7445068359375">
  <defs>
    <linearGradient id="grad_1" y2="1" x2="0">
      <stop offset="0" stop-color="#A1B2BD" stop-opacity="0"/>
      <stop offset="1" stop-color="#A1B2BD" stop-opacity="1"/>
    </linearGradient>
  <linearGradient id="grad_1-,0,0,1,0,-169" y2="191" x2="0" x1="0" y1="32" gradientUnits="userSpaceOnUse">
      <stop offset="0" stop-color="#A1B2BD" stop-opacity="0"/>
      <stop offset="1" stop-color="#A1B2BD" stop-opacity="1"/>
    </linearGradient></defs>
  <!-- Exported by Scratch - http://scratch.mit.edu/ -->
  <g id="ID0.7177833439782262">
    <path id="ID0.11866143811494112" fill="#B0C1CF" stroke="none" stroke-linecap="round" d="M 0 20 L 86 39 L 150 69 L 210 102 L 250 109 L 296 86 L 346 71 L 420 32 L 447 20 L 480 20 L 480 191 L 0 191 L 0 20 Z " stroke-width="1"/>
    <g id="ID0.13338996097445488">
      <path id="ID0.5138625972904265" fill="#B0C1CF" stroke="none" d="M 248.4334 106.2322 L 249.6254 106.0242 L 250.2903 109.8343 L 249.0983 110.0423 L 248.4334 106.2322 Z " stroke-width="0.13082143018363204"/>
      <path id="ID0.6377782253548503" fill="#B0C1CF" stroke="none" stroke-linecap="round" d="M 246.9698 103.7977 L 247.5871 101.576 L 248.7249 101.3774 L 250.2779 102.9185 L 251.8315 105.743 L 249.0683 106.2251 L 246.4262 106.7617 L 246.9698 103.7977 Z " stroke-width="0.13082143018363204"/>
      <path id="ID0.6377782253548503" fill="#B0C1CF" stroke="none" stroke-linecap="round" d="M 246.1542 99.6184 L 246.7871 97.326 L 247.9249 97.1274 L 249.5262 99.1055 L 250.9173 101.9584 L 248.2683 101.9751 L 245.8657 102.7643 L 246.1542 99.6184 Z " stroke-width="0.13082143018363204"/>
      <path id="ID0.6377782253548503" fill="#B0C1CF" stroke="none" stroke-linecap="round" d="M 245.4806 95.0663 L 246.4418 92.256 L 248.7762 94.7555 L 250.1482 97.4984 L 247.5183 97.6251 L 244.9468 98.4061 L 245.4806 95.0663 Z " stroke-width="0.13082143018363204"/>
    </g>
    <g id="ID0.7277544308453798">
      <path id="ID0.8515107058919966" fill="#B0C1CF" stroke="none" d="M 197.6223 71.3915 L 199.7395 71.5302 L 198.0137 97.8784 L 195.8964 97.7397 L 197.6223 71.3915 Z " stroke-width="0.4715127702760145"/>
      <path id="ID0.5577249256893992" fill="#B0C1CF" stroke="none" stroke-linecap="round" d="M 194.603 77.809 L 198.6948 76.6595 L 200.8932 79.1661 L 202.6365 81.4067 L 202.1855 84.6848 L 197.6233 85.8035 L 194.4222 84.1763 L 193.4771 80.5704 L 194.603 77.809 Z " stroke-width="0.4715127702760145"/>
      <path id="ID0.8560941652394831" fill="#B0C1CF" stroke="none" stroke-linecap="round" d="M 193.9771 69.027 L 197.8295 64.3178 L 200.822 61.915 L 202.3188 67.9196 L 204.3323 73.2492 L 202.5006 75.9644 L 198 76.1421 L 193.1676 74.1717 L 193.9771 69.027 Z " stroke-width="0.4715127702760145"/>
    </g>
    <g id="ID0.07672071224078536">
      <path id="ID0.5755643504671752" fill="#B0C1CF" stroke="none" stroke-linecap="round" d="M 278.97 85.113 L 280.4744 84.9267 L 281.9234 96.6275 L 280.419 96.8138 L 278.97 85.113 Z " stroke-width="0.13474494930782566"/>
      <path id="ID0.6377782253548503" fill="#B0C1CF" stroke="none" stroke-linecap="round" d="M 276.5745 90.3076 L 276.576 88.9496 L 277.7852 87.4761 L 278.9944 86.0025 L 280.4902 86.021 L 281.1496 86.6861 L 281.8345 87.0086 L 283.5322 89.5342 L 281.1303 88.9966 L 280.2703 88.3564 L 279.5052 88.7566 L 278.1425 89.2648 L 276.5745 90.3076 Z " stroke-width="0.13474494930782566"/>
      <path id="ID0.6377782253548503" fill="#B0C1CF" stroke="none" stroke-linecap="round" d="M 276.4136 86.1677 L 277.2811 83.8539 L 278.49 82.652 L 280.2494 82.3322 L 281.3514 83.282 L 282.7024 85.6944 L 282.1755 86.0991 L 281.4693 86.1526 L 280.7379 86.2771 L 279.2001 86.4675 L 278.4357 86.3246 L 277.0233 86.4316 L 276.4136 86.1677 Z " stroke-width="0.13474494930782566"/>
    </g>
    <g id="ID0.32532088877633214">
      <path id="ID0.5138625972904265" fill="#B0C1CF" stroke="none" d="M 225.8586 104.713 L 224.2036 104.5793 L 223.8877 108.4911 L 225.5427 108.6248 L 225.8586 104.713 Z " stroke-width="0.1509434109502277"/>
      <path id="ID0.6377782253548503" fill="#B0C1CF" stroke="none" stroke-linecap="round" d="M 228.377 100.6593 L 227.4871 99.4896 L 223.7258 99.1858 L 222.3934 100.214 L 222.1261 103.524 L 222.8686 104.644 L 227.006 104.9781 L 228.1158 103.8941 L 228.377 100.6593 Z " stroke-width="0.1509434109502277"/>
      <path id="ID0.6377782253548503" fill="#B0C1CF" stroke="none" stroke-linecap="round" d="M 228.7284 95.64 L 227.9169 94.5732 L 224.4867 94.2962 L 223.2717 95.2338 L 223.0279 98.2524 L 223.705 99.2737 L 227.4782 99.5784 L 228.4902 98.5899 L 228.7284 95.64 Z " stroke-width="0.13765278183084872"/>
      <path id="ID0.6377782253548503" fill="#B0C1CF" stroke="none" stroke-linecap="round" d="M 228.7332 91.4591 L 228.0831 90.6045 L 225.3352 90.3826 L 224.3618 91.1337 L 224.1666 93.5519 L 224.709 94.3701 L 227.7317 94.6142 L 228.5424 93.8223 L 228.7332 91.4591 Z " stroke-width="0.11027433979101593"/>
    </g>
    <g id="ID0.07672071224078536">
      <path id="ID0.5755643504671752" fill="#B0C1CF" stroke="none" stroke-linecap="round" d="M 301.8683 71.4519 L 303.6859 71.3805 L 304.2412 85.518 L 302.4236 85.5894 L 301.8683 71.4519 Z " stroke-width="0.16169601961180122"/>
      <path id="ID0.6377782253548503" fill="#B0C1CF" stroke="none" stroke-linecap="round" d="M 299.7913 78.2169 L 300.0558 76.7097 L 301.109 74.686 L 301.7299 74.0143 L 304.1725 74.4039 L 305.0668 75.5419 L 306.3746 78.9697 L 305.0694 78.6973 L 304.0984 78.695 L 303.3023 77.9981 L 302.4509 77.9506 L 302.0161 78.2104 L 299.7913 78.2169 Z " stroke-width="0.16169601961180122"/>
      <path id="ID0.6377782253548503" fill="#B0C1CF" stroke="none" stroke-linecap="round" d="M 298.7652 74.4261 L 300.2405 71.8195 L 302.561 69.0988 L 304.0279 71.428 L 305.7397 74.8399 L 304.6752 74.5176 L 303.7802 74.391 L 301.8818 74.4655 L 298.7652 74.4261 Z " stroke-width="0.16169601961180122"/>
    </g>
    <g id="ID0.32532088877633214">
      <path id="ID0.5138625972904265" fill="#B0C1CF" stroke="none" d="M 146.3586 65.163 L 144.7036 65.0293 L 144.3877 68.9411 L 146.0427 69.0748 L 146.3586 65.163 Z " stroke-width="0.1509434109502277"/>
      <path id="ID0.6377782253548503" fill="#B0C1CF" stroke="none" stroke-linecap="round" d="M 148.877 61.1593 L 147.9871 59.9896 L 144.2258 59.6858 L 142.8934 60.714 L 142.6261 64.024 L 143.3686 65.144 L 147.506 65.4781 L 148.6158 64.3941 L 148.877 61.1593 Z " stroke-width="0.1509434109502277"/>
      <path id="ID0.6377782253548503" fill="#B0C1CF" stroke="none" stroke-linecap="round" d="M 149.2284 56.09 L 148.4169 55.0232 L 144.9867 54.7462 L 143.7717 55.6838 L 143.5279 58.7024 L 144.205 59.7237 L 147.9782 60.0284 L 148.9902 59.0399 L 149.2284 56.09 Z " stroke-width="0.13765278183084872"/>
      <path id="ID0.6377782253548503" fill="#B0C1CF" stroke="none" stroke-linecap="round" d="M 149.2332 51.9591 L 148.5831 51.1045 L 145.8352 50.8826 L 144.8618 51.6337 L 144.6666 54.0519 L 145.209 54.8701 L 148.2317 55.1142 L 149.0424 54.3223 L 149.2332 51.9591 Z " stroke-width="0.11027433979101593"/>
    </g>
    <g id="ID0.7277544308453798">
      <path id="ID0.8515107058919966" fill="#B0C1CF" stroke="none" d="M 57.4843 13.088 L 59.1605 13.2095 L 57.7941 36.3005 L 56.118 36.1789 L 57.4843 13.088 Z " stroke-width="0.39373878902360276"/>
      <path id="ID0.5577249256893992" fill="#B0C1CF" stroke="none" stroke-linecap="round" d="M 55.0941 18.7122 L 58.3334 17.7047 L 60.0738 19.9015 L 61.4539 21.865 L 61.0969 24.7379 L 57.4851 25.7183 L 54.9509 24.2922 L 54.2027 21.1322 L 55.0941 18.7122 Z " stroke-width="0.39373878902360276"/>
      <path id="ID0.8560941652394831" fill="#B0C1CF" stroke="none" stroke-linecap="round" d="M 54.5902 11.0467 L 57.64 6.9198 L 60.0091 4.814 L 61.194 10.0762 L 62.7881 14.747 L 61.338 17.1265 L 57.775 17.2822 L 53.9493 15.5554 L 54.5902 11.0467 Z " stroke-width="0.39373878902360276"/>
    </g>
    <g id="ID0.13338996097445488">
      <path id="ID0.5138625972904265" fill="#B0C1CF" stroke="none" d="M 16.2488 23.9886 L 17.4588 23.9936 L 17.4428 27.8612 L 16.2328 27.8562 L 16.2488 23.9886 Z " stroke-width="0.13082142629124932"/>
      <path id="ID0.6377782253548503" fill="#B0C1CF" stroke="none" stroke-linecap="round" d="M 15.22 21.3193 L 16.2186 19.2408 L 17.3736 19.2456 L 18.6312 21.0359 L 19.6636 24.0897 L 16.8586 24.0781 L 14.1633 24.1413 L 15.22 21.3193 Z " stroke-width="0.13082142629124932"/>
      <path id="ID0.6377782253548503" fill="#B0C1CF" stroke="none" stroke-linecap="round" d="M 15.1922 17.1361 L 16.2186 14.9908 L 17.3736 14.9956 L 18.6019 17.2246 L 19.4693 20.2777 L 16.8586 19.8281 L 14.3546 20.1822 L 15.1922 17.1361 Z " stroke-width="0.13082142629124932"/>
      <path id="ID0.6377782253548503" fill="#B0C1CF" stroke="none" stroke-linecap="round" d="M 15.303 12.4506 L 16.7438 9.8533 L 18.6019 12.7246 L 19.4697 15.6661 L 16.8586 15.3281 L 14.1898 15.6443 L 15.303 12.4506 Z " stroke-width="0.13082142629124932"/>
    </g>
    <g id="ID0.07672071224078536">
      <path id="ID0.5755643504671752" fill="#B0C1CF" stroke="none" stroke-linecap="round" d="M 378.47 44.713 L 379.9744 44.5267 L 381.4234 56.2275 L 379.919 56.4138 L 378.47 44.713 Z " stroke-width="0.13474494930782566"/>
      <path id="ID0.6377782253548503" fill="#B0C1CF" stroke="none" stroke-linecap="round" d="M 376.0745 49.9076 L 376.076 48.5496 L 377.2852 47.0761 L 378.4944 45.6025 L 379.9902 45.621 L 380.6496 46.2861 L 381.3345 46.6086 L 383.0322 49.1342 L 380.6303 48.5966 L 379.7703 47.9564 L 379.0052 48.3566 L 377.6425 48.8648 L 376.0745 49.9076 Z " stroke-width="0.13474494930782566"/>
      <path id="ID0.6377782253548503" fill="#B0C1CF" stroke="none" stroke-linecap="round" d="M 375.9136 45.7677 L 376.7811 43.4539 L 377.99 42.252 L 379.7494 41.9322 L 380.8514 42.882 L 382.2024 45.2944 L 381.6755 45.6991 L 380.9693 45.7526 L 380.2379 45.8771 L 378.7001 46.0675 L 377.9357 45.9246 L 376.5233 46.0316 L 375.9136 45.7677 Z " stroke-width="0.13474494930782566"/>
    </g>
    <g id="ID0.32532088877633214">
      <path id="ID0.5138625972904265" fill="#B0C1CF" stroke="none" d="M 346.3258 69.0093 L 344.6873 69.278 L 345.3224 73.1508 L 346.9608 72.8821 L 346.3258 69.0093 Z " stroke-width="0.15094340443578003"/>
      <path id="ID0.6377782253548503" fill="#B0C1CF" stroke="none" stroke-linecap="round" d="M 347.8227 64.5195 L 346.6775 63.5983 L 342.9536 64.2089 L 341.9079 65.5276 L 342.4452 68.8046 L 343.4355 69.7129 L 347.5317 69.0412 L 348.3479 67.722 L 347.8227 64.5195 Z " stroke-width="0.15094340443578003"/>
      <path id="ID0.6377782253548503" fill="#B0C1CF" stroke="none" stroke-linecap="round" d="M 346.9537 59.5602 L 345.9093 58.7201 L 342.5133 59.277 L 341.5597 60.4795 L 342.0498 63.468 L 342.9528 64.2964 L 346.6883 63.6838 L 347.4326 62.4807 L 346.9537 59.5602 Z " stroke-width="0.13765278990703958"/>
      <path id="ID0.6377782253548503" fill="#B0C1CF" stroke="none" stroke-linecap="round" d="M 345.9806 55.4792 L 345.1439 54.8062 L 342.4234 55.2523 L 341.6594 56.2157 L 342.052 58.6097 L 342.7754 59.2733 L 345.768 58.7826 L 346.3643 57.8188 L 345.9806 55.4792 Z " stroke-width="0.11027434028171701"/>
    </g>
    <g id="ID0.13338996097445488">
      <path id="ID0.5138625972904265" fill="#B0C1CF" stroke="none" d="M 321.7364 77.2529 L 322.9464 77.2546 L 322.9411 81.1223 L 321.7311 81.1206 L 321.7364 77.2529 Z " stroke-width="0.13082142471024716"/>
      <path id="ID0.6377782253548503" fill="#B0C1CF" stroke="none" stroke-linecap="round" d="M 320.7008 74.6336 L 321.6937 72.5524 L 322.8487 72.554 L 324.1112 74.3408 L 325.152 77.3917 L 322.347 77.3879 L 319.6519 77.4585 L 320.7008 74.6336 Z " stroke-width="0.13082142471024716"/>
      <path id="ID0.6377782253548503" fill="#B0C1CF" stroke="none" stroke-linecap="round" d="M 320.6232 70.4505 L 321.6437 68.3024 L 322.7987 68.304 L 324.0331 70.5296 L 324.9089 73.5803 L 322.297 73.1379 L 319.794 73.4989 L 320.6232 70.4505 Z " stroke-width="0.13082142471024716"/>
      <path id="ID0.6377782253548503" fill="#B0C1CF" stroke="none" stroke-linecap="round" d="M 320.7335 65.7647 L 322.1671 63.1634 L 324.0331 66.0296 L 324.9091 68.9687 L 322.297 68.6379 L 319.6291 68.9615 L 320.7335 65.7647 Z " stroke-width="0.13082142471024716"/>
    </g>
    <g id="ID0.7277544308453798">
      <path id="ID0.8515107058919966" fill="#B0C1CF" stroke="none" d="M 420.4613 10.6096 L 418.3509 10.8295 L 421.0874 37.092 L 423.1978 36.8721 L 420.4613 10.6096 Z " stroke-width="0.471512773305774"/>
      <path id="ID0.5577249256893992" fill="#B0C1CF" stroke="none" stroke-linecap="round" d="M 423.7248 16.9065 L 419.5919 15.9149 L 417.4914 18.5041 L 415.8354 20.8099 L 416.4119 24.0683 L 421.0138 25.011 L 424.15 23.262 L 424.9559 19.6226 L 423.7248 16.9065 Z " stroke-width="0.471512773305774"/>
      <path id="ID0.8560941652394831" fill="#B0C1CF" stroke="none" stroke-linecap="round" d="M 424.0032 8.0994 L 419.9728 3.5416 L 416.8902 1.2555 L 415.6252 7.3131 L 413.8178 12.7162 L 415.7524 15.359 L 420.2565 15.3637 L 425.0097 13.2092 L 424.0032 8.0994 Z " stroke-width="0.471512773305774"/>
    </g>
  </g>
  <path id="ID0.7154794754460454" fill="url(#grad_1-,0,0,1,0,-169)" stroke="none" d="M 0 32 L 480 32 L 480 191 L 0 191 L 0 32 Z " stroke-width="1"/>
</svg>