<svg xmlns="http://www.w3.org/2000/svg" xmlns:xlink="http://www.w3.org/1999/xlink" version="1.1" width="250" height="221.2032928466797" viewBox="0 -0.20330005884170532 250 221.2032928466797">
  <!-- Exported by Scratch - http://scratch.mit.edu/ -->
  <g id="ID0.7415933050215244">
    <path id="ID0.970099562779069" fill="none" stroke="#000000" stroke-width="2" d="M 1 168 L 49 168 L 49 210 L 1 210 L 1 168 Z "/>
    <path id="ID0.46581505658105016" fill="none" stroke="#000000" stroke-width="2" d="M 101 167 L 133 167 L 133 218 L 101 218 L 101 167 Z "/>
    <path id="ID0.33620689949020743" fill="none" stroke="#000000" stroke-width="2" d="M 168 139 L 249 139 L 249 220 L 168 220 L 168 139 Z "/>
    <path id="ID0.24157473351806402" fill="none" stroke="#000000" stroke-width="2" d="M 111 52 L 133 52 L 133 101 L 111 101 L 111 52 Z "/>
    <path id="ID0.6365181463770568" fill="none" stroke="#000000" stroke-width="2" d="M 14 116 C 17.587 116 20.837 117.457 23.19 119.81 C 25.543 122.163 27 125.413 27 129 C 27 132.587 25.543 135.837 23.19 138.19 C 20.837 140.543 17.587 142 14 142 C 10.413 142 7.163 140.543 4.81 138.19 C 2.457 135.837 1 132.587 1 129 C 1 125.413 2.457 122.163 4.81 119.81 C 7.163 117.457 10.413 116 14 116 Z "/>
    <path id="ID0.21194283058866858" fill="none" stroke="#000000" stroke-width="2" d="M 219 5 L 249 5 L 249 139 L 219 139 L 219 5 Z "/>
    <path id="ID0.3779942882247269" fill="none" stroke="#000000" stroke-width="2" d="M 220 51 C 223.862 51 227.362 52.569 229.897 55.103 C 232.431 57.638 234 61.138 234 65 C 234 68.862 232.431 72.362 229.897 74.897 C 227.362 77.431 223.862 79 220 79 C 216.138 79 212.638 77.431 210.103 74.897 C 207.569 72.362 206 68.862 206 65 C 206 61.138 207.569 57.638 210.103 55.103 C 212.638 52.569 216.138 51 220 51 Z "/>
    <path id="ID0.36396704288199544" fill="none" stroke="#000000" stroke-width="2" stroke-linecap="round" d="M 201 99 L 201 28 "/>
    <path id="ID0.9444101587869227" fill="none" stroke="#000000" stroke-width="2" stroke-linecap="round" d="M 195 38 L 200 20 L 207 38 "/>
    <path id="ID0.9444101587869227" fill="none" stroke="#000000" stroke-width="2" stroke-linecap="round" d="M 194.75 91 L 199.75 109 L 206.75 91 "/>
    <path id="ID0.6851268266327679" fill="none" stroke="#000000" stroke-width="2" d="M 1 69 L 13 69 L 13 167 L 1 167 L 1 69 Z "/>
    <path id="ID0.11917586298659444" fill="none" stroke="#000000" stroke-width="2" d="M 1 48 L 41 48 L 41 69 L 1 69 L 1 48 Z "/>
    <path id="ID0.7891739285551012" fill="none" stroke="#003FFF" stroke-width="2" stroke-linecap="round" d="M 24 163 C 24 163 23.601 156.671 25 154 C 27.414 149.392 32.674 146.652 35 142 C 37.132 137.736 39.156 132.625 38 128 C 35.652 118.609 31.447 109.221 25 102 C 22.302 98.978 16.474 102.084 13 100 C 11.723 99.234 13.824 96.914 15 96 C 17.002 94.443 19.798 94.258 22 93 C 24.487 91.579 26.141 89.293 29 88 C 40.437 82.826 52.011 77.721 64 74 C 71.425 71.696 79.249 70.186 87 70 C 92.641 69.892 105.238 79.546 104 75 C 100.784 63.132 90.837 45.768 79 36 C 67.527 27.403 52.153 22.338 38 23 C 29.272 23.407 18 40 18 40 "/>
    <path id="ID0.06659356877207756" fill="none" stroke="#FF0000" stroke-width="2" stroke-linecap="round" d="M 38 163 C 38 163 39.151 160.849 40 160 C 42.503 157.497 45.369 155.368 48 153 C 48.7 152.37 48.45 151.738 50 151 C 56.198 148.049 62.29 144.451 69 143 C 74.859 141.733 81.024 142.558 87 143 C 90.288 143.27 95.177 144.047 100 146 C 105.37 148.383 109.92 158.861 117 156 C 129.863 150.574 132.569 130.987 145 125 C 153.313 121.02 163.994 133.763 173 131 C 179.971 128.028 179.695 116.804 184 111 C 185.966 108.369 187.884 105.062 191 104 C 198.484 101.44 214.381 106.648 214 102 C 213.881 94.648 198.908 85.838 190 80 C 187.16 78.143 183.395 78.094 180 78 C 171.339 77.759 162.527 77.486 154 79 C 150.534 79.634 144.57 86.983 143 85 C 142.089 82.021 148.127 74.222 149 69 C 149.524 65.721 149 62.33 149 59 C 149 58.001 150.136 57.167 149 56 C 144.455 51.331 141.292 45.271 136 43 C 131.962 41.772 128.122 47.703 125 47 C 120.87 45.987 118.75 41.031 115 39 C 110.647 36.642 105.873 34.875 101 34 C 92.78 32.525 84.313 31.196 76 32 C 63.453 33.214 39 40 39 40 "/>
  </g>
  <path id="ID0.2853028499521315" fill="#FF0000" stroke="none" d="M 33.7072 8.3698 L 43.0157 0.7967 L 198.2633 191.6218 L 188.9547 199.1949 L 33.7072 8.3698 Z " stroke-width="0.9999999912829711"/>
  <path id="ID0.2853028499521315" fill="#FF0000" stroke="none" d="M 215.5049 34.9917 L 221.8322 45.188 L 12.8072 174.8976 L 6.4799 164.7012 L 215.5049 34.9917 Z " stroke-width="1.0000000059276495"/>
</svg>