<svg xmlns="http://www.w3.org/2000/svg" xmlns:xlink="http://www.w3.org/1999/xlink" version="1.1" width="484.05701656064895" height="299.4828283282271" viewBox="-0.5285082803244596 2.0456916346077914 484.05701656064895 299.4828283282271">
  <defs>
    <linearGradient id="grad_1" y2="1" x2="0">
      <stop offset="0" stop-color="#6A8092" stop-opacity="0"/>
      <stop offset="1" stop-color="#6A8092" stop-opacity="1"/>
    </linearGradient>
  <linearGradient id="grad_1-,0,0,1,1,-102" y2="258" x2="1" x1="1" y1="80" gradientUnits="userSpaceOnUse">
      <stop offset="0" stop-color="#6A8092" stop-opacity="0"/>
      <stop offset="1" stop-color="#6A8092" stop-opacity="1"/>
    </linearGradient></defs>
  <!-- Exported by Scratch - http://scratch.mit.edu/ -->
  <g id="ID0.06653624214231968">
    <g id="ID0.8894725311547518">
      <g id="ID0.07672071224078536">
        <path id="ID0.5755643504671752" fill="#809BB7" stroke="none" stroke-linecap="round" d="M 191.2192 152.0745 L 195.6029 152.4773 L 192.4696 186.5728 L 188.0859 186.1699 L 191.2192 152.0745 Z " stroke-width="0.3913043375291269"/>
        <path id="ID0.6377782253548503" fill="#809BB7" stroke="none" stroke-linecap="round" d="M 184.187 167.4958 L 185.2976 163.9631 L 188.4639 159.4404 L 190.1658 158.025 L 195.9033 159.7311 L 197.6894 162.7442 L 199.7446 171.3815 L 196.6989 170.3157 L 194.3699 170.0034 L 192.6801 168.0799 L 190.6523 167.697 L 189.527 168.1831 L 184.187 167.4958 Z " stroke-width="0.3913043375291269"/>
        <path id="ID0.6377782253548503" fill="#809BB7" stroke="none" stroke-linecap="round" d="M 182.8804 158.2153 L 187.2436 152.4272 L 193.6704 146.6324 L 196.4544 152.6843 L 199.4837 161.4112 L 197.0314 160.3017 L 194.9241 159.715 L 190.3456 159.2943 L 182.8804 158.2153 Z " stroke-width="0.3913043375291269"/>
      </g>
      <g id="ID0.07672071224078536">
        <path id="ID0.5755643504671752" fill="#809BB7" stroke="none" stroke-linecap="round" d="M 267.957 157.8425 L 271.855 157.8425 L 271.855 188.1602 L 267.957 188.1602 L 267.957 157.8425 Z " stroke-width="0.34648701548576355"/>
        <path id="ID0.6377782253548503" fill="#809BB7" stroke="none" stroke-linecap="round" d="M 260.1465 170.307 L 260.5796 166.8421 L 264.1311 163.4639 L 267.6826 160.0856 L 271.4939 160.6053 L 272.9665 162.511 L 274.6123 163.5505 L 278.1465 170.5322 L 272.1869 168.4013 L 270.1946 166.4956 L 268.1157 167.2752 L 264.4776 168.1414 L 260.1465 170.307 Z " stroke-width="0.34648701548576355"/>
        <path id="ID0.6377782253548503" fill="#809BB7" stroke="none" stroke-linecap="round" d="M 261.0261 159.7682 L 263.9712 154.1378 L 267.4361 151.4525 L 272.027 151.1926 L 274.5391 153.9645 L 277.2244 160.5478 L 275.7518 161.414 L 273.9327 161.3274 L 272.027 161.414 L 268.0424 161.414 L 266.1368 160.8077 L 262.4987 160.6344 L 261.0261 159.7682 Z " stroke-width="0.34648701548576355"/>
      </g>
      <g id="ID0.32532088877633214">
        <path id="ID0.5138625972904265" fill="#809BB7" stroke="none" d="M 93.0744 122.3231 L 97.4935 122.5984 L 96.8428 133.0435 L 92.4237 132.7682 L 93.0744 122.3231 Z " stroke-width="0.40251569582254976"/>
        <path id="ID0.6377782253548503" fill="#809BB7" stroke="none" stroke-linecap="round" d="M 87.9418 110.6608 L 90.7345 107.9108 L 100.7779 108.5365 L 103.9046 111.756 L 103.354 120.5942 L 100.9692 123.2687 L 89.9215 122.5805 L 87.4037 119.2981 L 87.9418 110.6608 Z " stroke-width="0.40251569582254976"/>
        <path id="ID0.6377782253548503" fill="#809BB7" stroke="none" stroke-linecap="round" d="M 88.95 97.2611 L 91.4969 94.7533 L 100.656 95.3239 L 103.5073 98.2599 L 103.0052 106.3199 L 100.8304 108.7589 L 90.7554 108.1313 L 88.4594 105.1379 L 88.95 97.2611 Z " stroke-width="0.36707406472051884"/>
        <path id="ID0.6377782253548503" fill="#809BB7" stroke="none" stroke-linecap="round" d="M 90.4011 86.2478 L 92.4414 84.2388 L 99.7788 84.6959 L 102.063 87.048 L 101.6608 93.5049 L 99.9186 95.4588 L 91.8475 94.956 L 90.0081 92.558 L 90.4011 86.2478 Z " stroke-width="0.29406488317026613"/>
      </g>
      <g id="ID0.13338996097445488">
        <path id="ID0.5138625972904265" fill="#809BB7" stroke="none" d="M 406.95 120.75 L 411.35 120.75 L 411.35 131.15 L 406.95 131.15 L 406.95 120.75 Z " stroke-width="0.4000000059604645"/>
        <path id="ID0.6377782253548503" fill="#809BB7" stroke="none" stroke-linecap="round" d="M 403.09 113.71 L 406.69 108.11 L 410.89 108.11 L 415.49 112.91 L 419.29 121.11 L 409.09 121.11 L 399.29 121.31 L 403.09 113.71 Z " stroke-width="0.4000000059604645"/>
        <path id="ID0.6377782253548503" fill="#809BB7" stroke="none" stroke-linecap="round" d="M 402.89 102.29 L 406.59 96.51 L 410.79 96.51 L 415.29 102.49 L 418.49 110.69 L 408.99 109.51 L 399.89 110.49 L 402.89 102.29 Z " stroke-width="0.4000000059604645"/>
        <path id="ID0.6377782253548503" fill="#809BB7" stroke="none" stroke-linecap="round" d="M 403.29 89.84 L 408.49 82.84 L 415.29 90.54 L 418.49 98.44 L 408.99 97.56 L 399.29 98.44 L 403.29 89.84 Z " stroke-width="0.4000000059604645"/>
      </g>
      <path id="ID0.7201196262612939" fill="#809BB7" stroke="none" stroke-linecap="round" d="M 1 181 L 481 181 L 481 301 L 1 301 L 1 181 Z " stroke-width="1.0570165606489192"/>
      <path id="ID0.5511504686437547" fill="#809BB7" stroke="none" stroke-linecap="round" d="M 1 211 L 0 86 L 30 92 L 61 117 L 148 141 L 162 159 L 173 174 L 210 180 L 356 178 L 1 211 Z " stroke-width="1"/>
      <path id="ID0.20185740757733583" fill="#809BB7" stroke="none" stroke-linecap="round" d="M 350 145 L 384 124 L 422 124 L 441 90 L 463 78 L 483 78 L 481 210 L 272 183 L 344 175 L 350 145 Z " stroke-width="1"/>
      <g id="ID0.13338996097445488">
        <path id="ID0.5138625972904265" fill="#809BB7" stroke="none" d="M 23.9412 85.529 L 28.7971 85.529 L 28.7971 97.0067 L 23.9412 97.0067 L 23.9412 85.529 Z " stroke-width="0.4414507746696472"/>
        <path id="ID0.6377782253548503" fill="#809BB7" stroke="none" stroke-linecap="round" d="M 19.6853 77.8009 L 23.6584 71.6206 L 28.2936 71.6206 L 33.3703 76.918 L 37.5641 85.9678 L 26.3071 85.9678 L 15.4916 86.1885 L 19.6853 77.8009 Z " stroke-width="0.4414507746696472"/>
        <path id="ID0.6377782253548503" fill="#809BB7" stroke="none" stroke-linecap="round" d="M 19.525 65.1496 L 23.6084 58.7706 L 28.2436 58.7706 L 33.2099 65.3703 L 36.7416 74.4201 L 26.2571 73.1178 L 16.2141 74.1993 L 19.525 65.1496 Z " stroke-width="0.4414507746696472"/>
        <path id="ID0.6377782253548503" fill="#809BB7" stroke="none" stroke-linecap="round" d="M 19.9664 51.4478 L 25.7053 43.7224 L 33.2099 52.2203 L 36.7416 60.939 L 26.2571 59.9678 L 15.5519 60.939 L 19.9664 51.4478 Z " stroke-width="0.4414507746696472"/>
      </g>
      <g id="ID0.07672071224078536">
        <path id="ID0.5755643504671752" fill="#809BB7" stroke="none" stroke-linecap="round" d="M 363.7724 113.4322 L 359.125 113.4322 L 359.125 149.5788 L 363.7724 149.5788 L 363.7724 113.4322 Z " stroke-width="0.41310402750968933"/>
        <path id="ID0.6377782253548503" fill="#809BB7" stroke="none" stroke-linecap="round" d="M 369.6573 130.3004 L 368.8311 126.4792 L 365.9393 121.4187 L 364.2869 119.7663 L 358.0904 121.0056 L 355.9216 124.0006 L 352.9266 132.8823 L 356.2314 132.0561 L 358.71 131.9528 L 360.6723 130.0939 L 362.8411 129.8873 L 363.9771 130.507 L 369.6573 130.3004 Z " stroke-width="0.41310402750968933"/>
        <path id="ID0.6377782253548503" fill="#809BB7" stroke="none" stroke-linecap="round" d="M 371.9326 120.6863 L 367.9049 114.1799 L 361.7083 107.467 L 358.1969 113.5603 L 354.1692 122.442 L 356.8543 121.5125 L 359.1264 121.0994 L 363.9804 121.0994 L 371.9326 120.6863 Z " stroke-width="0.41310402750968933"/>
      </g>
      <g id="ID0.32532088877633214">
        <path id="ID0.5138625972904265" fill="#809BB7" stroke="none" d="M 217.3302 181.7142 L 214.4245 181.7142 L 214.4245 188.5821 L 217.3302 188.5821 L 217.3302 181.7142 Z " stroke-width="0.2641509473323822"/>
        <path id="ID0.6377782253548503" fill="#809BB7" stroke="none" stroke-linecap="round" d="M 221.1849 174.2604 L 219.4679 172.3453 L 212.8642 172.3453 L 210.6849 174.3264 L 210.6849 180.1377 L 212.1377 181.9868 L 219.4019 181.9868 L 221.1849 179.9396 L 221.1849 174.2604 Z " stroke-width="0.2641509473323822"/>
        <path id="ID0.6377782253548503" fill="#809BB7" stroke="none" stroke-linecap="round" d="M 221.0689 165.4878 L 219.5031 163.7413 L 213.4808 163.7413 L 211.4935 165.548 L 211.4935 170.8476 L 212.8184 172.5339 L 219.4429 172.5339 L 221.0689 170.667 L 221.0689 165.4878 Z " stroke-width="0.24089236557483673"/>
        <path id="ID0.6377782253548503" fill="#809BB7" stroke="none" stroke-linecap="round" d="M 220.545 158.1303 L 219.2906 156.7311 L 214.4661 156.7311 L 212.874 158.1785 L 212.874 162.4241 L 213.9354 163.7749 L 219.2424 163.7749 L 220.545 162.2793 L 220.545 158.1303 Z " stroke-width="0.1929800808429718"/>
      </g>
      <g id="ID0.07672071224078536">
        <path id="ID0.5755643504671752" fill="#809BB7" stroke="none" stroke-linecap="round" d="M 63.9103 82.3418 L 59.3037 81.7271 L 53.7021 123.7043 L 58.3087 124.319 L 63.9103 82.3418 Z " stroke-width="0.4499460668959237"/>
        <path id="ID0.6377782253548503" fill="#809BB7" stroke="none" stroke-linecap="round" d="M 67.1496 102.6674 L 66.9228 98.1205 L 64.8407 91.8612 L 63.4589 89.7237 L 57.1247 90.3433 L 54.5109 93.5345 L 50.1658 103.4528 L 53.5696 102.9304 L 56.0425 103.1384 L 58.2756 101.2391 L 60.4573 101.2861 L 61.4873 102.1559 L 67.1496 102.6674 Z " stroke-width="0.4499460668959237"/>
        <path id="ID0.6377782253548503" fill="#809BB7" stroke="none" stroke-linecap="round" d="M 70.8753 91.8475 L 67.8912 83.7588 L 62.7894 75.1434 L 58.3646 81.7551 L 52.9958 91.5368 L 55.8014 90.8125 L 58.1176 90.6333 L 62.9289 91.2754 L 70.8753 91.8475 Z " stroke-width="0.4499460668959237"/>
      </g>
      <g id="ID0.13338996097445488">
        <path id="ID0.5138625972904265" fill="#809BB7" stroke="none" d="M 297.7 176.2187 L 302.1 176.2187 L 302.1 190.2829 L 297.7 190.2829 L 297.7 176.2187 Z " stroke-width="0.47571427473619865"/>
        <path id="ID0.6377782253548503" fill="#809BB7" stroke="none" stroke-linecap="round" d="M 293.84 166.6392 L 297.44 159.0661 L 301.64 159.0661 L 306.24 165.5573 L 310.04 176.6464 L 299.84 176.6464 L 290.04 176.9169 L 293.84 166.6392 Z " stroke-width="0.47571427473619865"/>
        <path id="ID0.6377782253548503" fill="#809BB7" stroke="none" stroke-linecap="round" d="M 293.64 151.2326 L 297.34 143.4161 L 301.54 143.4161 L 306.04 151.5031 L 309.24 162.5922 L 299.74 160.9964 L 290.64 162.3217 L 293.64 151.2326 Z " stroke-width="0.47571427473619865"/>
        <path id="ID0.6377782253548503" fill="#809BB7" stroke="none" stroke-linecap="round" d="M 294.04 134.4564 L 299.24 124.9901 L 306.04 135.4031 L 309.24 146.0865 L 299.74 144.8964 L 290.04 146.0865 L 294.04 134.4564 Z " stroke-width="0.47571427473619865"/>
      </g>
      <g id="ID0.13338996097445488">
        <path id="ID0.5138625972904265" fill="#809BB7" stroke="none" d="M 242.8855 177.7306 L 247.9507 177.7306 L 247.9507 182.9526 L 242.8855 182.9526 L 242.8855 177.7306 Z " stroke-width="0.3552271044172614"/>
        <path id="ID0.6377782253548503" fill="#809BB7" stroke="none" stroke-linecap="round" d="M 238.4815 174.1965 L 242.6258 171.3846 L 247.4607 171.3846 L 252.7561 173.7948 L 257.1306 177.9122 L 245.3886 177.9122 L 234.1071 178.0126 L 238.4815 174.1965 Z " stroke-width="0.3552271044172614"/>
        <path id="ID0.6377782253548503" fill="#809BB7" stroke="none" stroke-linecap="round" d="M 238.2664 168.4869 L 242.5258 165.5846 L 247.3607 165.5846 L 252.541 168.5873 L 256.2248 172.7047 L 245.2886 172.1122 L 234.8129 172.6042 L 238.2664 168.4869 Z " stroke-width="0.3552271044172614"/>
        <path id="ID0.6377782253548503" fill="#809BB7" stroke="none" stroke-linecap="round" d="M 238.7269 162.2358 L 244.713 158.721 L 252.541 162.5873 L 256.2248 166.554 L 245.2886 166.1122 L 234.1222 166.554 L 238.7269 162.2358 Z " stroke-width="0.3552271044172614"/>
      </g>
      <g id="ID0.7277544308453798">
        <path id="ID0.8515107058919966" fill="#809BB7" stroke="none" d="M 132.6655 85.3788 L 137.1559 85.6729 L 133.4956 141.5532 L 129.0053 141.2591 L 132.6655 85.3788 Z " stroke-width="1.0000000128503022"/>
        <path id="ID0.5577249256893992" fill="#809BB7" stroke="none" stroke-linecap="round" d="M 126.2622 98.9894 L 134.9401 96.5514 L 139.6026 101.8675 L 143.3 106.6193 L 142.3435 113.5717 L 132.6677 115.9443 L 125.8788 112.4932 L 123.8743 104.8458 L 126.2622 98.9894 Z " stroke-width="1.0000000128503022"/>
        <path id="ID0.8560941652394831" fill="#809BB7" stroke="none" stroke-linecap="round" d="M 124.9605 80.3839 L 133.1308 70.3966 L 139.4775 65.3005 L 142.6519 78.0352 L 146.9222 89.3385 L 143.0375 95.0969 L 133.4925 95.4739 L 123.2437 91.295 L 124.9605 80.3839 Z " stroke-width="1.0000000128503022"/>
      </g>
      <g id="ID0.7277544308453798">
        <path id="ID0.8515107058919966" fill="#809BB7" stroke="none" d="M 333.3029 147.3971 L 330.3175 147.6584 L 333.8356 187.8496 L 336.821 187.5883 L 333.3029 147.3971 Z " stroke-width="0.6937359359033416"/>
        <path id="ID0.5577249256893992" fill="#809BB7" stroke="none" stroke-linecap="round" d="M 337.8313 157.1255 L 332.0037 155.466 L 329.0007 159.3449 L 326.6297 162.8068 L 327.4012 167.8017 L 333.8922 169.4031 L 338.3477 166.8435 L 339.535 161.3155 L 337.8313 157.1255 Z " stroke-width="0.6937359359033416"/>
        <path id="ID0.8560941652394831" fill="#809BB7" stroke="none" stroke-linecap="round" d="M 338.2779 143.615 L 332.6426 136.5147 L 328.3165 132.9157 L 326.4481 142.1193 L 323.8221 150.3043 L 326.521 154.4073 L 332.8863 154.5733 L 339.6324 151.4516 L 338.2779 143.615 Z " stroke-width="0.6937359359033416"/>
      </g>
      <g id="ID0.07672071224078536">
        <path id="ID0.5755643504671752" fill="#809BB7" stroke="none" stroke-linecap="round" d="M 116.0009 111.6328 L 119.8802 112.0134 L 116.4477 146.9974 L 112.5683 146.6168 L 116.0009 111.6328 Z " stroke-width="0.375130906757789"/>
        <path id="ID0.6377782253548503" fill="#809BB7" stroke="none" stroke-linecap="round" d="M 106.8022 125.2896 L 107.6255 121.3337 L 111.5425 117.7823 L 115.4595 114.2309 L 119.1938 115.2028 L 120.4436 117.5456 L 121.9638 118.9058 L 124.6906 127.3072 L 119.0008 124.2664 L 117.2338 121.8728 L 115.0765 122.5694 L 111.3577 123.2137 L 106.8022 125.2896 Z " stroke-width="0.375130906757789"/>
        <path id="ID0.6377782253548503" fill="#809BB7" stroke="none" stroke-linecap="round" d="M 108.8928 113.167 L 112.4614 106.9575 L 116.2137 104.1973 L 120.8121 104.3457 L 122.9983 107.7896 L 124.9254 115.6483 L 123.3618 116.5041 L 121.5612 116.2265 L 119.6549 116.1403 L 115.6893 115.7513 L 113.8614 114.8655 L 110.2603 114.3103 L 108.8928 113.167 Z " stroke-width="0.375130906757789"/>
      </g>
      <g id="ID0.7277544308453798">
        <path id="ID0.8515107058919966" fill="#809BB7" stroke="none" d="M 457.7008 25.6549 L 454.2059 26.2928 L 466.273 91.5981 L 469.7679 90.9602 L 457.7008 25.6549 Z " stroke-width="1.0073839836292438"/>
        <path id="ID0.5577249256893992" fill="#809BB7" stroke="none" stroke-linecap="round" d="M 464.9892 41.2016 L 457.7412 38.908 L 454.9354 45.4476 L 452.7985 51.2624 L 454.6952 59.3546 L 462.7198 61.5065 L 467.5099 57.0157 L 467.8354 47.9151 L 464.9892 41.2016 Z " stroke-width="1.0073839836292438"/>
        <path id="ID0.8560941652394831" fill="#809BB7" stroke="none" stroke-linecap="round" d="M 462.9249 19.3192 L 454.8375 8.1376 L 448.9924 2.5742 L 448.5794 17.7183 L 447.0665 31.2549 L 451.0777 37.7557 L 458.6713 37.5753 L 466.0719 32.0053 L 462.9249 19.3192 Z " stroke-width="1.0073839836292438"/>
      </g>
      <g id="ID0.32532088877633214">
        <path id="ID0.5138625972904265" fill="#809BB7" stroke="none" d="M 387.7826 120.6119 L 384.8981 120.962 L 385.9388 129.538 L 388.8233 129.1879 L 387.7826 120.6119 Z " stroke-width="0.30014659918754544"/>
        <path id="ID0.6377782253548503" fill="#809BB7" stroke="none" stroke-linecap="round" d="M 390.4776 110.9647 L 388.4829 108.7801 L 381.9272 109.5756 L 380.064 112.312 L 380.9446 119.5686 L 382.667 121.7025 L 389.8783 120.8274 L 391.3381 118.0563 L 390.4776 110.9647 Z " stroke-width="0.30014659918754544"/>
        <path id="ID0.6377782253548503" fill="#809BB7" stroke="none" stroke-linecap="round" d="M 388.9799 99.8873 L 387.1608 97.8951 L 381.1824 98.6205 L 379.4833 101.116 L 380.2863 107.7336 L 381.8571 109.6796 L 388.4334 108.8816 L 389.7646 106.3545 L 388.9799 99.8873 Z " stroke-width="0.2737185897414226"/>
        <path id="ID0.6377782253548503" fill="#809BB7" stroke="none" stroke-linecap="round" d="M 387.4015 90.8359 L 385.9443 89.24 L 381.1549 89.8211 L 379.7938 91.8202 L 380.4371 97.1217 L 381.6954 98.6806 L 386.9637 98.0414 L 388.0302 96.0169 L 387.4015 90.8359 Z " stroke-width="0.21927734261475096"/>
      </g>
      <g id="ID0.07672071224078536">
        <path id="ID0.5755643504671752" fill="#809BB7" stroke="none" stroke-linecap="round" d="M 433.5699 61.8441 L 429.1201 63.1852 L 441.3401 103.7331 L 445.7898 102.3921 L 433.5699 61.8441 Z " stroke-width="0.4499460465589498"/>
        <path id="ID0.6377782253548503" fill="#809BB7" stroke="none" stroke-linecap="round" d="M 444.9132 79.1099 L 442.8303 75.0618 L 438.3508 70.2195 L 436.21 68.8427 L 430.696 72.0209 L 429.632 76.0064 L 429.767 86.8338 L 432.6519 84.9534 L 434.9902 84.1224 L 436.2405 81.4708 L 438.2473 80.6133 L 439.5445 80.9806 L 444.9132 79.1099 Z " stroke-width="0.4499460465589498"/>
        <path id="ID0.6377782253548503" fill="#809BB7" stroke="none" stroke-linecap="round" d="M 443.8004 67.633 L 437.7443 61.4966 L 429.5419 55.7543 L 428.2398 63.6027 L 427.386 74.7282 L 429.6427 72.9107 L 431.6785 71.7917 L 436.326 70.391 L 443.8004 67.633 Z " stroke-width="0.4499460465589498"/>
      </g>
      <g id="ID0.13338996097445488">
        <path id="ID0.5138625972904265" fill="#809BB7" stroke="none" d="M 159.2663 151.9509 L 164.159 153.2614 L 161.5994 162.8183 L 156.7067 161.5079 L 159.2663 151.9509 Z " stroke-width="0.42239621242906994"/>
        <path id="ID0.6377782253548503" fill="#809BB7" stroke="none" stroke-linecap="round" d="M 156.695 144.3611 L 162.0764 140.2872 L 166.7467 141.538 L 170.6805 147.3189 L 172.8879 155.986 L 161.5456 152.9482 L 150.599 150.2133 L 156.695 144.3611 Z " stroke-width="0.42239621242906994"/>
        <path id="ID0.6377782253548503" fill="#809BB7" stroke="none" stroke-linecap="round" d="M 159.2895 133.7967 L 164.8264 129.5872 L 169.4967 130.838 L 173.0289 137.6735 L 174.569 146.1618 L 164.2956 142.2482 L 153.9354 140.4386 L 159.2895 133.7967 Z " stroke-width="0.42239621242906994"/>
        <path id="ID0.6377782253548503" fill="#809BB7" stroke="none" stroke-linecap="round" d="M 162.8074 122.4564 L 170.3125 117.5725 L 175.9789 126.6735 L 177.5929 134.8861 L 167.2456 131.2482 L 156.2428 129.168 L 162.8074 122.4564 Z " stroke-width="0.42239621242906994"/>
      </g>
    </g>
    <path id="ID0.9441407467238605" fill="url(#grad_1-,0,0,1,1,-102)" stroke="none" d="M 1 80 L 481 80 L 481 258 L 1 258 L 1 80 Z " stroke-width="1"/>
  </g>
</svg>