<svg xmlns="http://www.w3.org/2000/svg" xmlns:xlink="http://www.w3.org/1999/xlink" version="1.1" width="481" height="238.091796875" viewBox="-0.5 1.4082000255584717 481 238.091796875">
  <defs>
    <linearGradient id="grad_1" y2="1" x2="0">
      <stop offset="0" stop-color="#8799A8" stop-opacity="0"/>
      <stop offset="1" stop-color="#8799A8" stop-opacity="1"/>
    </linearGradient>
  <linearGradient id="grad_1-,0,0,1,0,-122" y2="238" x2="0" x1="0" y1="78" gradientUnits="userSpaceOnUse">
      <stop offset="0" stop-color="#8799A8" stop-opacity="0"/>
      <stop offset="1" stop-color="#8799A8" stop-opacity="1"/>
    </linearGradient></defs>
  <!-- Exported by Scratch - http://scratch.mit.edu/ -->
  <g id="ID0.625710743945092">
    <g id="ID0.7626319290138781">
      <path id="ID0.4794845120050013" fill="#A2B7C9" stroke="none" stroke-linecap="round" d="M 0 72 L 46 74 L 96 103 L 154 121 L 180 140 L 215 170 L 294 170 L 330 126 L 354 105 L 384 105 L 424 72 L 480 72 L 480 239 L 0 239 L 0 72 Z " stroke-width="1"/>
      <g id="ID0.32532088877633214">
        <path id="ID0.5138625972904265" fill="#A2B7C9" stroke="none" d="M 180.9027 141.9824 L 183.4917 142.7607 L 181.6521 148.8803 L 179.063 148.102 L 180.9027 141.9824 Z " stroke-width="0.2457728471503584"/>
        <path id="ID0.6377782253548503" fill="#A2B7C9" stroke="none" stroke-linecap="round" d="M 179.4535 134.3621 L 181.4964 133.1156 L 187.3806 134.8845 L 188.7917 137.2335 L 187.2351 142.4116 L 185.4453 143.67 L 178.9727 141.7242 L 177.9323 139.4226 L 179.4535 134.3621 Z " stroke-width="0.2457728471503584"/>
        <path id="ID0.6377782253548503" fill="#A2B7C9" stroke="none" stroke-linecap="round" d="M 181.9277 126.5104 L 183.7907 125.3737 L 189.1568 126.9868 L 190.4437 129.129 L 189.0242 133.8511 L 187.3919 134.9987 L 181.4892 133.2243 L 180.5405 131.1253 L 181.9277 126.5104 Z " stroke-width="0.22413246914292506"/>
        <path id="ID0.6377782253548503" fill="#A2B7C9" stroke="none" stroke-linecap="round" d="M 184.3057 120.181 L 185.7981 119.2704 L 190.0969 120.5626 L 191.1278 122.2787 L 189.9906 126.0617 L 188.683 126.981 L 183.9544 125.5595 L 183.1943 123.878 L 184.3057 120.181 Z " stroke-width="0.17955364258113254"/>
      </g>
      <g id="ID0.13338996097445488">
        <path id="ID0.5138625972904265" fill="#A2B7C9" stroke="none" d="M 206.7131 159.3127 L 210.1206 159.586 L 209.4748 167.6401 L 206.0673 167.3669 L 206.7131 159.3127 Z " stroke-width="0.3107685898246245"/>
        <path id="ID0.6377782253548503" fill="#A2B7C9" stroke="none" stroke-linecap="round" d="M 204.2064 153.623 L 207.342 149.5097 L 210.5947 149.7705 L 213.859 153.7734 L 216.2927 160.3597 L 208.3935 159.7264 L 200.7916 159.2727 L 204.2064 153.623 Z " stroke-width="0.3107685898246245"/>
        <path id="ID0.6377782253548503" fill="#A2B7C9" stroke="none" stroke-linecap="round" d="M 204.7177 144.7562 L 207.942 140.5097 L 211.1947 140.7705 L 214.3083 145.681 L 216.2774 152.2301 L 208.9935 150.7264 L 201.8853 150.9203 L 204.7177 144.7562 Z " stroke-width="0.3107685898246245"/>
        <path id="ID0.6377782253548503" fill="#A2B7C9" stroke="none" stroke-linecap="round" d="M 205.8086 135.1438 L 210.2703 130.0456 L 215.0583 136.431 L 217.046 142.7477 L 209.7435 141.4764 L 202.1768 141.5556 L 205.8086 135.1438 Z " stroke-width="0.3107685898246245"/>
      </g>
      <g id="ID0.07672071224078536">
        <path id="ID0.5755643504671752" fill="#A2B7C9" stroke="none" stroke-linecap="round" d="M 241.9943 143.9555 L 238.2236 143.7015 L 235.909 178.0615 L 239.6797 178.3155 L 241.9943 143.9555 Z " stroke-width="0.3658902238570146"/>
        <path id="ID0.6377782253548503" fill="#A2B7C9" stroke="none" stroke-linecap="round" d="M 245.7003 160.2608 L 245.2746 156.5833 L 243.2525 151.6148 L 242.0176 149.9538 L 236.9107 150.7932 L 234.9592 153.5216 L 231.9605 161.8007 L 234.6948 161.1959 L 236.7124 161.2332 L 238.4235 159.5734 L 240.1964 159.4956 L 241.0785 160.1467 L 245.7003 160.2608 Z " stroke-width="0.3658902238570146"/>
        <path id="ID0.6377782253548503" fill="#A2B7C9" stroke="none" stroke-linecap="round" d="M 248.1656 151.2673 L 245.3143 144.8624 L 240.7166 138.1426 L 237.4775 143.7428 L 233.6408 151.9654 L 235.879 151.2286 L 237.7489 150.9601 L 241.6871 151.2254 L 248.1656 151.2673 Z " stroke-width="0.3658902238570146"/>
      </g>
      <g id="ID0.7277544308453798">
        <path id="ID0.8515107058919966" fill="#A2B7C9" stroke="none" d="M 256.7038 129.5358 L 260.2326 129.767 L 257.3561 173.6807 L 253.8273 173.4496 L 256.7038 129.5358 Z " stroke-width="0.7858546668533417"/>
        <path id="ID0.5577249256893992" fill="#A2B7C9" stroke="none" stroke-linecap="round" d="M 251.6717 140.2317 L 258.4913 138.3158 L 262.1553 142.4935 L 265.0609 146.2278 L 264.3092 151.6913 L 256.7055 153.5559 L 251.3704 150.8438 L 249.7952 144.8341 L 251.6717 140.2317 Z " stroke-width="0.7858546668533417"/>
        <path id="ID0.8560941652394831" fill="#A2B7C9" stroke="none" stroke-linecap="round" d="M 250.6451 125.6283 L 257.0658 117.7797 L 262.0533 113.775 L 264.5479 123.7826 L 267.9038 132.6654 L 264.851 137.1906 L 257.35 137.4868 L 249.2959 134.2029 L 250.6451 125.6283 Z " stroke-width="0.7858546668533417"/>
      </g>
      <g id="ID0.07672071224078536">
        <path id="ID0.5755643504671752" fill="#A2B7C9" stroke="none" stroke-linecap="round" d="M 281.5388 153.6661 L 284.0201 153.4536 L 285.6734 172.7524 L 283.1922 172.965 L 281.5388 153.6661 Z " stroke-width="0.2213667158065246"/>
        <path id="ID0.6377782253548503" fill="#A2B7C9" stroke="none" stroke-linecap="round" d="M 277.2408 162.0232 L 277.3275 159.794 L 279.404 157.4499 L 281.4805 155.1057 L 283.935 155.2287 L 284.9763 156.3615 L 286.0806 156.9334 L 288.7111 161.1849 L 284.8013 160.1535 L 283.4291 159.0491 L 282.1483 159.6587 L 279.8797 160.4085 L 277.2408 162.0232 Z " stroke-width="0.2213667158065246"/>
        <path id="ID0.6377782253548503" fill="#A2B7C9" stroke="none" stroke-linecap="round" d="M 277.2095 155.2919 L 278.7772 151.5472 L 280.8363 149.6489 L 283.7446 149.2331 L 285.4948 150.8606 L 287.5631 154.9048 L 286.673 155.5365 L 285.5103 155.5806 L 284.302 155.7396 L 281.7655 155.9569 L 280.5194 155.6749 L 278.1941 155.763 L 277.2095 155.2919 Z " stroke-width="0.2213667158065246"/>
      </g>
      <g id="ID0.7277544308453798">
        <path id="ID0.8515107058919966" fill="#A2B7C9" stroke="none" d="M 87.4465 51.8749 L 85.0764 51.6523 L 77.5738 98.6271 L 79.9439 98.8498 L 87.4465 51.8749 Z " stroke-width="0.7065510600448643"/>
        <path id="ID0.5577249256893992" fill="#A2B7C9" stroke="none" stroke-linecap="round" d="M 88.4677 63.8908 L 84.3927 60.9537 L 81.0894 64.9005 L 78.3797 68.4773 L 77.7053 74.3739 L 82.3069 77.3605 L 86.3957 75.1903 L 88.7172 69.0227 L 88.4677 63.8908 Z " stroke-width="0.7065510600448643"/>
        <path id="ID0.8560941652394831" fill="#A2B7C9" stroke="none" stroke-linecap="round" d="M 92.2933 48.5013 L 89.7498 39.3225 L 87.3265 34.412 L 83.5451 44.6995 L 79.4379 53.6793 L 80.4775 58.8855 L 85.3471 60.1944 L 91.3462 57.778 L 92.2933 48.5013 Z " stroke-width="0.7065510600448643"/>
      </g>
      <g id="ID0.32532088877633214">
        <path id="ID0.5138625972904265" fill="#A2B7C9" stroke="none" d="M 46.6547 74.2423 L 49.3145 74.3227 L 48.4871 79.4287 L 45.8273 79.3484 L 46.6547 74.2423 Z " stroke-width="0.22071813804403173"/>
        <path id="ID0.6377782253548503" fill="#A2B7C9" stroke="none" stroke-linecap="round" d="M 44.0517 68.648 L 45.8541 67.2717 L 51.8992 67.4543 L 53.6554 68.9875 L 52.9553 73.308 L 51.4027 74.6425 L 44.753 74.4416 L 43.3675 72.8703 L 44.0517 68.648 Z " stroke-width="0.22071813804403173"/>
        <path id="ID0.6377782253548503" fill="#A2B7C9" stroke="none" stroke-linecap="round" d="M 45.2173 62.0742 L 46.861 60.8191 L 52.3738 60.9857 L 53.9754 62.3839 L 53.3369 66.3239 L 51.921 67.5409 L 45.8569 67.3577 L 44.5933 65.9248 L 45.2173 62.0742 Z " stroke-width="0.20128382919160728"/>
        <path id="ID0.6377782253548503" fill="#A2B7C9" stroke="none" stroke-linecap="round" d="M 46.5354 56.7274 L 47.8522 55.7219 L 52.2685 55.8554 L 53.5516 56.9755 L 53.0401 60.1319 L 51.9058 61.1068 L 47.0478 60.9601 L 46.0355 59.8121 L 46.5354 56.7274 Z " stroke-width="0.16124948304899311"/>
      </g>
      <g id="ID0.7277544308453798">
        <path id="ID0.8515107058919966" fill="#A2B7C9" stroke="none" d="M 365.9377 65.3013 L 363.2157 65.3022 L 361.4919 110.4681 L 364.214 110.4672 L 365.9377 65.3013 Z " stroke-width="0.7128794660646508"/>
        <path id="ID0.5577249256893992" fill="#A2B7C9" stroke="none" stroke-linecap="round" d="M 368.8338 76.5917 L 363.7844 74.1738 L 360.606 78.2075 L 358.0478 81.8377 L 358.1348 87.4833 L 363.7891 89.901 L 368.1158 87.48 L 369.8589 81.4305 L 368.8338 76.5917 Z " stroke-width="0.7128794660646508"/>
        <path id="ID0.8560941652394831" fill="#A2B7C9" stroke="none" stroke-linecap="round" d="M 370.9334 61.6669 L 366.7198 53.1999 L 363.2596 48.7651 L 360.4552 58.8476 L 357.0921 67.7205 L 359.0246 72.559 L 364.7404 73.3636 L 371.1997 70.5386 L 370.9334 61.6669 Z " stroke-width="0.7128794660646508"/>
      </g>
      <g id="ID0.13338996097445488">
        <path id="ID0.5138625972904265" fill="#A2B7C9" stroke="none" d="M 399.713 88.3534 L 396.3719 89.0766 L 398.0813 96.9737 L 401.4224 96.2505 L 399.713 88.3534 Z " stroke-width="0.3107686072320211"/>
        <path id="ID0.6377782253548503" fill="#A2B7C9" stroke="none" stroke-linecap="round" d="M 401.4413 82.418 L 397.7872 78.7574 L 394.598 79.4477 L 391.894 83.8486 L 390.3563 90.6997 L 398.1015 89.0232 L 405.5759 87.5643 L 401.4413 82.418 Z " stroke-width="0.3107686072320211"/>
        <path id="ID0.6377782253548503" fill="#A2B7C9" stroke="none" stroke-linecap="round" d="M 399.7468 73.6882 L 395.9872 69.9074 L 392.798 70.5977 L 390.3639 75.8782 L 389.2818 82.6307 L 396.3015 80.1732 L 403.3726 79.4217 L 399.7468 73.6882 Z " stroke-width="0.3107686072320211"/>
        <path id="ID0.6377782253548503" fill="#A2B7C9" stroke="none" stroke-linecap="round" d="M 397.4109 64.4243 L 392.3118 59.9636 L 388.4139 66.9282 L 387.2825 73.4529 L 394.3515 71.2232 L 401.8617 70.2971 L 397.4109 64.4243 Z " stroke-width="0.3107686072320211"/>
      </g>
      <g id="ID0.07672071224078536">
        <path id="ID0.5755643504671752" fill="#A2B7C9" stroke="none" stroke-linecap="round" d="M 338.2447 105.0389 L 335.7947 105.4855 L 339.2683 124.5411 L 341.7183 124.0945 L 338.2447 105.0389 Z " stroke-width="0.2213667062592884"/>
        <path id="ID0.6377782253548503" fill="#A2B7C9" stroke="none" stroke-linecap="round" d="M 344.5775 111.9657 L 343.9083 109.8376 L 341.289 108.1211 L 338.6697 106.4047 L 336.3337 107.168 L 335.6265 108.5345 L 334.7111 109.3764 L 333.2897 114.1696 L 336.7914 112.1474 L 337.8252 110.7214 L 339.2212 110.9732 L 341.6071 111.1008 L 344.5775 111.9657 Z " stroke-width="0.2213667062592884"/>
        <path id="ID0.6377782253548503" fill="#A2B7C9" stroke="none" stroke-linecap="round" d="M 342.8195 105.435 L 340.3233 102.2336 L 337.8379 100.9428 L 334.9225 101.3054 L 333.6612 103.3355 L 332.7277 107.7809 L 333.7525 108.1566 L 334.8859 107.8938 L 336.0936 107.7299 L 338.5981 107.2734 L 339.7264 106.6739 L 341.9932 106.1482 L 342.8195 105.435 Z " stroke-width="0.2213667062592884"/>
      </g>
      <g id="ID0.32532088877633214">
        <path id="ID0.5138625972904265" fill="#A2B7C9" stroke="none" d="M 315.0104 139.3122 L 317.6888 138.944 L 318.559 145.2746 L 315.8807 145.6428 L 315.0104 139.3122 Z " stroke-width="0.2457728516374035"/>
        <path id="ID0.6377782253548503" fill="#A2B7C9" stroke="none" stroke-linecap="round" d="M 310.5171 133.0341 L 311.8571 131.0513 L 317.9442 130.2145 L 320.2039 131.7645 L 320.9403 137.1211 L 319.8354 139.0096 L 313.1397 139.9301 L 311.2367 138.269 L 310.5171 133.0341 Z " stroke-width="0.2457728516374035"/>
        <path id="ID0.6377782253548503" fill="#A2B7C9" stroke="none" stroke-linecap="round" d="M 309.5351 124.8374 L 310.7571 123.0292 L 316.3082 122.2661 L 318.369 123.6796 L 319.0405 128.5646 L 318.033 130.2867 L 311.9267 131.1262 L 310.1914 129.6114 L 309.5351 124.8374 Z " stroke-width="0.2241324768011152"/>
        <path id="ID0.6377782253548503" fill="#A2B7C9" stroke="none" stroke-linecap="round" d="M 309.0422 118.0722 L 310.0211 116.6237 L 314.4682 116.0123 L 316.1191 117.1447 L 316.657 121.0581 L 315.8499 122.4377 L 310.9582 123.1102 L 309.568 121.8967 L 309.0422 118.0722 Z " stroke-width="0.17955364847439"/>
      </g>
      <g id="ID0.07672071224078536">
        <path id="ID0.5755643504671752" fill="#A2B7C9" stroke="none" stroke-linecap="round" d="M 303.4117 134.7914 L 300.3562 135.1099 L 303.2583 162.9524 L 306.3138 162.6339 L 303.4117 134.7914 Z " stroke-width="0.2974195374528571"/>
        <path id="ID0.6377782253548503" fill="#A2B7C9" stroke="none" stroke-linecap="round" d="M 308.6354 147.3755 L 307.7854 144.4887 L 305.4779 140.7889 L 304.2589 139.6294 L 300.2845 141.0086 L 299.099 143.4642 L 297.8431 150.5107 L 299.9495 149.6478 L 301.5708 149.3984 L 302.7116 147.8321 L 304.1209 147.5244 L 304.9175 147.9238 L 308.6354 147.3755 Z " stroke-width="0.2974195374528571"/>
        <path id="ID0.6377782253548503" fill="#A2B7C9" stroke="none" stroke-linecap="round" d="M 309.362 139.8559 L 306.1915 135.1202 L 301.5787 130.3741 L 299.7593 135.3082 L 297.8243 142.4255 L 299.5151 141.5255 L 300.9757 141.0516 L 304.1669 140.719 L 309.362 139.8559 Z " stroke-width="0.2974195374528571"/>
      </g>
      <g id="ID0.13338996097445488">
        <path id="ID0.5138625972904265" fill="#A2B7C9" stroke="none" d="M 152.3579 117.4733 L 154.8458 117.9377 L 153.7557 125.932 L 151.2679 125.4676 L 152.3579 117.4733 Z " stroke-width="0.27294595512694486"/>
        <path id="ID0.6377782253548503" fill="#A2B7C9" stroke="none" stroke-linecap="round" d="M 150.9765 111.6735 L 153.5989 107.7488 L 155.9737 108.1921 L 158.0715 112.3673 L 159.3606 119.0715 L 153.5934 117.995 L 148.0313 117.1144 L 150.9765 111.6735 Z " stroke-width="0.27294595512694486"/>
        <path id="ID0.6377782253548503" fill="#A2B7C9" stroke="none" stroke-linecap="round" d="M 152.0011 102.8013 L 154.6989 98.7488 L 157.0737 99.1921 L 158.9913 104.2638 L 159.9412 110.9047 L 154.6934 108.995 L 149.4454 108.7878 L 152.0011 102.8013 Z " stroke-width="0.27294595512694486"/>
        <path id="ID0.6377782253548503" fill="#A2B7C9" stroke="none" stroke-linecap="round" d="M 153.5796 93.3092 L 157.2535 88.4772 L 160.2913 95.1138 L 161.2726 101.5241 L 155.9934 99.845 L 150.4166 99.4976 L 153.5796 93.3092 Z " stroke-width="0.27294595512694486"/>
      </g>
      <g id="ID0.07672071224078536">
        <path id="ID0.5755643504671752" fill="#A2B7C9" stroke="none" stroke-linecap="round" d="M 124.6509 96.3682 L 127.1371 96.5118 L 126.0202 115.8492 L 123.534 115.7056 L 124.6509 96.3682 Z " stroke-width="0.22136671856722595"/>
        <path id="ID0.6377782253548503" fill="#A2B7C9" stroke="none" stroke-linecap="round" d="M 119.2103 103.9899 L 119.6142 101.7958 L 122.0038 99.7719 L 124.3935 97.748 L 126.8054 98.2199 L 127.6744 99.4897 L 128.6859 100.2133 L 130.6828 104.7966 L 126.9602 103.2179 L 125.7596 101.929 L 124.4049 102.3497 L 122.0525 102.7682 L 119.2103 103.9899 Z " stroke-width="0.22136671856722595"/>
        <path id="ID0.6377782253548503" fill="#A2B7C9" stroke="none" stroke-linecap="round" d="M 120.1437 97.2768 L 122.2296 93.7941 L 124.5385 92.209 L 127.4763 92.2124 L 128.9764 94.0729 L 130.4466 98.3708 L 129.4755 98.8691 L 128.3184 98.7468 L 127.0997 98.7319 L 124.5583 98.5851 L 123.3651 98.1281 L 121.051 97.8836 L 120.1437 97.2768 Z " stroke-width="0.22136671856722595"/>
      </g>
      <g id="ID0.7277544308453798">
        <path id="ID0.8515107058919966" fill="#A2B7C9" stroke="none" d="M 10.9649 22.0256 L 14.7644 22.3196 L 11.6673 78.1704 L 7.8679 77.8764 L 10.9649 22.0256 Z " stroke-width="0.925855562064065"/>
        <path id="ID0.5577249256893992" fill="#A2B7C9" stroke="none" stroke-linecap="round" d="M 5.5469 35.629 L 12.8896 33.1923 L 16.8347 38.5056 L 19.9631 43.2549 L 19.1538 50.2036 L 10.9668 52.575 L 5.2224 49.1257 L 3.5264 41.4824 L 5.5469 35.629 Z " stroke-width="0.925855562064065"/>
        <path id="ID0.8560941652394831" fill="#A2B7C9" stroke="none" stroke-linecap="round" d="M 4.4647 16.9836 L 11.3779 7.0016 L 16.748 1.9082 L 19.434 14.6362 L 23.0473 25.9335 L 19.7603 31.6889 L 11.6839 32.0656 L 3.012 27.889 L 4.4647 16.9836 Z " stroke-width="0.925855562064065"/>
      </g>
      <g id="ID0.13338996097445488">
        <path id="ID0.5138625972904265" fill="#A2B7C9" stroke="none" d="M 30.978 69.6027 L 34.3886 69.3707 L 34.9369 77.4321 L 31.5263 77.664 L 30.978 69.6027 Z " stroke-width="0.31076859528783485"/>
        <path id="ID0.6377782253548503" fill="#A2B7C9" stroke="none" stroke-linecap="round" d="M 27.709 64.3037 L 30.2042 59.7732 L 33.4597 59.5518 L 37.2784 63.0299 L 40.6562 69.1856 L 32.7499 69.7233 L 25.1641 70.395 L 27.709 64.3037 Z " stroke-width="0.31076859528783485"/>
        <path id="ID0.6377782253548503" fill="#A2B7C9" stroke="none" stroke-linecap="round" d="M 26.8909 55.5485 L 29.4542 50.8732 L 32.7097 50.6518 L 36.5131 55.0498 L 39.4258 61.2372 L 31.9999 60.8233 L 24.9978 62.0627 L 26.8909 55.5485 Z " stroke-width="0.31076859528783485"/>
        <path id="ID0.6377782253548503" fill="#A2B7C9" stroke="none" stroke-linecap="round" d="M 26.5746 45.8899 L 30.2362 40.1898 L 35.9131 45.7998 L 38.81 51.7546 L 31.3999 51.5733 L 23.9275 52.7669 L 26.5746 45.8899 Z " stroke-width="0.31076859528783485"/>
      </g>
      <g id="ID0.07672071224078536">
        <path id="ID0.5755643504671752" fill="#A2B7C9" stroke="none" stroke-linecap="round" d="M 66.7303 72.3519 L 64.2454 72.1881 L 62.9713 91.5157 L 65.4563 91.6796 L 66.7303 72.3519 Z " stroke-width="0.2213667135253061"/>
        <path id="ID0.6377782253548503" fill="#A2B7C9" stroke="none" stroke-linecap="round" d="M 71.2163 80.5993 L 71.0858 78.3722 L 68.9637 76.0693 L 66.8415 73.7664 L 64.3899 73.9376 L 63.3711 75.0906 L 62.2782 75.6841 L 59.7317 79.9864 L 63.6205 78.8784 L 64.9707 77.7473 L 66.2633 78.3316 L 68.5462 79.0367 L 71.2163 80.5993 Z " stroke-width="0.2213667135253061"/>
        <path id="ID0.6377782253548503" fill="#A2B7C9" stroke="none" stroke-linecap="round" d="M 71.0676 73.8255 L 69.4266 70.1123 L 67.3306 68.2549 L 64.4148 67.8963 L 62.6969 69.5578 L 60.7083 73.6418 L 61.6107 74.2559 L 62.774 74.2771 L 63.9852 74.4124 L 66.5254 74.5799 L 67.7658 74.2734 L 70.0924 74.3159 L 71.0676 73.8255 Z " stroke-width="0.2213667135253061"/>
      </g>
      <g id="ID0.32532088877633214">
        <path id="ID0.5138625972904265" fill="#A2B7C9" stroke="none" d="M 99.8177 100.7666 L 102.5061 101.0517 L 101.8321 107.4062 L 99.1437 107.121 L 99.8177 100.7666 Z " stroke-width="0.24577284155525378"/>
        <path id="ID0.6377782253548503" fill="#A2B7C9" stroke="none" stroke-linecap="round" d="M 97.0049 93.5334 L 98.7814 91.93 L 104.8915 92.5781 L 106.7134 94.6249 L 106.1431 100.0018 L 104.6174 101.57 L 97.8963 100.8571 L 96.4475 98.788 L 97.0049 93.5334 Z " stroke-width="0.24577284155525378"/>
        <path id="ID0.6377782253548503" fill="#A2B7C9" stroke="none" stroke-linecap="round" d="M 97.9969 85.3792 L 99.617 83.917 L 105.1891 84.508 L 106.8506 86.3746 L 106.3305 91.278 L 104.9391 92.7082 L 98.8099 92.0581 L 97.4886 90.1712 L 97.9969 85.3792 Z " stroke-width="0.22413246406368909"/>
        <path id="ID0.6377782253548503" fill="#A2B7C9" stroke="none" stroke-linecap="round" d="M 99.1605 78.7626 L 100.4584 77.5912 L 104.9222 78.0647 L 106.2532 79.5601 L 105.8366 83.4882 L 104.722 84.6339 L 99.8118 84.1131 L 98.7533 82.6015 L 99.1605 78.7626 Z " stroke-width="0.17955363923308174"/>
      </g>
    </g>
    <path id="ID0.5701395920477808" fill="url(#grad_1-,0,0,1,0,-122)" stroke="none" d="M 0 78 L 480 78 L 480 238 L 0 238 L 0 78 Z " stroke-width="1"/>
  </g>
</svg>