<svg xmlns="http://www.w3.org/2000/svg" xmlns:xlink="http://www.w3.org/1999/xlink" version="1.1" width="484.0174851999739" height="219.67379623513014" viewBox="-0.5890953831900729 -0.0846953683127536 484.0174851999739 219.67379623513014">
  <defs>
    <linearGradient id="grad_1" y2="1" x2="0">
      <stop offset="0" stop-color="#5F7587" stop-opacity="0"/>
      <stop offset="1" stop-color="#5F7587" stop-opacity="1"/>
    </linearGradient>
  <linearGradient id="grad_1-,0,0,1,0,-88" y2="219" x2="0" x1="0" y1="36" gradientUnits="userSpaceOnUse">
      <stop offset="0" stop-color="#5F7587" stop-opacity="0"/>
      <stop offset="1" stop-color="#5F7587" stop-opacity="1"/>
    </linearGradient></defs>
  <!-- Exported by Scratch - http://scratch.mit.edu/ -->
  <g id="ID0.32532088877633214">
    <path id="ID0.5138625972904265" fill="#809BB7" stroke="none" d="M 152.984 113.1574 L 154.7587 113.4365 L 154.0992 117.6312 L 152.3245 117.3521 L 152.984 113.1574 Z " stroke-width="0.16331579013099115"/>
    <path id="ID0.6377782253548503" fill="#809BB7" stroke="none" stroke-linecap="round" d="M 151.4019 108.2536 L 152.6345 107.2488 L 156.6678 107.883 L 157.8086 109.3023 L 157.2505 112.8516 L 156.1856 113.8415 L 151.7489 113.1438 L 150.8565 111.7223 L 151.4019 108.2536 Z " stroke-width="0.16331579013099115"/>
    <path id="ID0.6377782253548503" fill="#809BB7" stroke="none" stroke-linecap="round" d="M 152.2631 102.88 L 153.3871 101.9637 L 157.0653 102.5421 L 158.1056 103.8364 L 157.5967 107.0732 L 156.6255 107.9759 L 152.5795 107.3397 L 151.7657 106.0433 L 152.2631 102.88 Z " stroke-width="0.1489357866380271"/>
    <path id="ID0.6377782253548503" fill="#809BB7" stroke="none" stroke-linecap="round" d="M 153.2641 98.4575 L 154.1645 97.7234 L 157.1112 98.1867 L 157.9446 99.2236 L 157.5368 101.8167 L 156.7588 102.5398 L 153.5176 102.0301 L 152.8656 100.9916 L 153.2641 98.4575 Z " stroke-width="0.11931321614396377"/>
  </g>
  <g id="ID0.13338996097445488">
    <path id="ID0.5138625972904265" fill="#809BB7" stroke="none" d="M 173.1057 107.3067 L 175.5517 107.1369 L 175.8101 116.1183 L 173.3641 116.2881 L 173.1057 107.3067 Z " stroke-width="0.29061506351461824"/>
    <path id="ID0.6377782253548503" fill="#809BB7" stroke="none" stroke-linecap="round" d="M 170.763 101.4209 L 172.6251 96.4457 L 174.9599 96.2836 L 177.6363 100.2513 L 179.9525 107.1862 L 174.2823 107.5799 L 168.8394 108.1309 L 170.763 101.4209 Z " stroke-width="0.29061506351461824"/>
    <path id="ID0.6377782253548503" fill="#809BB7" stroke="none" stroke-linecap="round" d="M 170.4119 91.4802 L 172.3251 86.3457 L 174.6599 86.1836 L 177.31 91.1742 L 179.2927 98.1322 L 173.9823 97.4799 L 168.9479 98.6775 L 170.4119 91.4802 Z " stroke-width="0.29061506351461824"/>
    <path id="ID0.6377782253548503" fill="#809BB7" stroke="none" stroke-linecap="round" d="M 170.3218 80.7829 L 173.0386 74.537 L 177.01 80.9242 L 178.9852 87.6231 L 173.6823 87.2299 L 168.3119 88.3643 L 170.3218 80.7829 Z " stroke-width="0.29061506351461824"/>
  </g>
  <g id="ID0.07672071224078536">
    <path id="ID0.5755643504671752" fill="#809BB7" stroke="none" stroke-linecap="round" d="M 229.1027 67.9629 L 226.2972 68.1001 L 227.548 93.6653 L 230.3535 93.528 L 229.1027 67.9629 Z " stroke-width="0.27194542105553393"/>
    <path id="ID0.6377782253548503" fill="#809BB7" stroke="none" stroke-linecap="round" d="M 233.2575 79.7222 L 232.6265 77.044 L 230.7057 73.5502 L 229.651 72.4304 L 225.9532 73.4899 L 224.7476 75.6722 L 223.2469 82.0424 L 225.2134 81.3604 L 226.7061 81.2142 L 227.8263 79.8414 L 229.1284 79.6313 L 229.8357 80.036 L 233.2575 79.7222 Z " stroke-width="0.27194542105553393"/>
    <path id="ID0.6377782253548503" fill="#809BB7" stroke="none" stroke-linecap="round" d="M 234.2978 72.8835 L 231.6413 68.4007 L 227.6683 63.8359 L 225.7594 68.2492 L 223.6353 74.6499 L 225.2241 73.9132 L 226.5814 73.5539 L 229.5116 73.4105 L 234.2978 72.8835 Z " stroke-width="0.27194542105553393"/>
  </g>
  <g id="ID0.7277544308453798">
    <path id="ID0.8515107058919966" fill="#809BB7" stroke="none" d="M 121.9739 70.9238 L 124.7131 71.2253 L 120.9614 105.3125 L 118.2222 105.011 L 121.9739 70.9238 Z " stroke-width="0.6123749859687647"/>
    <path id="ID0.5577249256893992" fill="#809BB7" stroke="none" stroke-linecap="round" d="M 117.6881 79.0772 L 123.0631 77.8205 L 125.7716 81.199 L 127.9049 84.2061 L 127.1316 88.4335 L 121.148 89.6232 L 117.0881 87.3281 L 116.0688 82.5954 L 117.6881 79.0772 Z " stroke-width="0.6123749859687647"/>
    <path id="ID0.8560941652394831" fill="#809BB7" stroke="none" stroke-linecap="round" d="M 117.3849 67.6609 L 122.6536 61.772 L 126.6743 58.8261 L 128.2717 66.7028 L 130.5782 73.7335 L 128.0458 77.1512 L 122.1962 77.1235 L 116.0393 74.2896 L 117.3849 67.6609 Z " stroke-width="0.6123749859687647"/>
  </g>
  <g id="ID0.07672071224078536">
    <path id="ID0.5755643504671752" fill="#809BB7" stroke="none" stroke-linecap="round" d="M 186.7026 90.6678 L 189.0308 90.4928 L 190.6095 111.4881 L 188.2814 111.6632 L 186.7026 90.6678 Z " stroke-width="0.22468778170809633"/>
    <path id="ID0.6377782253548503" fill="#809BB7" stroke="none" stroke-linecap="round" d="M 182.7277 99.634 L 182.806 97.2151 L 184.7513 94.7161 L 186.6965 92.2171 L 189 92.4058 L 189.9788 93.6594 L 191.0159 94.3053 L 193.4903 98.9815 L 189.8199 97.7735 L 188.5307 96.5433 L 187.3296 97.1765 L 185.2018 97.9398 L 182.7277 99.634 Z " stroke-width="0.22468778170809633"/>
    <path id="ID0.6377782253548503" fill="#809BB7" stroke="none" stroke-linecap="round" d="M 182.6716 92.2793 L 184.1374 88.2479 L 186.067 86.2327 L 188.7956 85.8466 L 190.4403 87.6533 L 192.3869 92.0917 L 191.5525 92.7577 L 190.4615 92.7794 L 189.3278 92.925 L 186.9479 93.104 L 185.7782 92.7696 L 183.5962 92.8131 L 182.6716 92.2793 Z " stroke-width="0.22468778170809633"/>
  </g>
  <path id="ID0.4996579149737954" fill="#809BB7" stroke="none" stroke-linecap="round" d="M 0 50 L 38.5 52.5 L 59.5 60.5 L 73 61.5 L 87.5 69.5 L 87 78 L 84.5 85.5 L 87.5 92.5 L 103 100 L 129.5 106.5 L 152.5 115.5 L 176.5 113.5 L 201.5 108 L 207.5 104.5 L 212.5 95 L 221 89.5 L 235 89 L 249.5 90.5 L 263 101.5 L 278.5 108.5 L 282.5 119.5 L 293 123 L 307.5 123 L 324.5 121 L 340 112.5 L 358.5 104.5 L 379 87.5 L 404 78 L 403.5 69.5 L 407.5 63 L 423 60 L 447.5 61.25 L 470 65 L 480 64 L 480 218 L 0 218 L 0 50 Z " stroke-width="1"/>
  <g id="ID0.07672071224078536">
    <path id="ID0.5755643504671752" fill="#809BB7" stroke="none" stroke-linecap="round" d="M 84.9703 49.0479 L 82.96 48.7292 L 80.0554 67.048 L 82.0657 67.3667 L 84.9703 49.0479 Z " stroke-width="0.1970618852688813"/>
    <path id="ID0.6377782253548503" fill="#809BB7" stroke="none" stroke-linecap="round" d="M 86.158 57.9923 L 86.1076 55.9991 L 85.2634 53.2361 L 84.6815 52.2853 L 81.9015 52.4884 L 80.7226 53.8575 L 78.7134 58.1532 L 80.2093 57.9612 L 81.2898 58.0789 L 82.288 57.2713 L 83.2427 57.3154 L 83.6843 57.7074 L 86.158 57.9923 Z " stroke-width="0.1970618852688813"/>
    <path id="ID0.6377782253548503" fill="#809BB7" stroke="none" stroke-linecap="round" d="M 87.9205 53.2994 L 86.7011 49.7258 L 84.5601 45.8987 L 82.5516 48.7459 L 80.0956 52.9708 L 81.3318 52.6839 L 82.3478 52.6304 L 84.4475 52.9633 L 87.9205 53.2994 Z " stroke-width="0.1970618852688813"/>
  </g>
  <g id="ID0.7277544308453798">
    <path id="ID0.8515107058919966" fill="#809BB7" stroke="none" d="M 50.0146 16.9183 L 46.9838 16.8295 L 44.6865 61.4036 L 47.7173 61.4924 L 50.0146 16.9183 Z " stroke-width="0.7378829459708645"/>
    <path id="ID0.5577249256893992" fill="#809BB7" stroke="none" stroke-linecap="round" d="M 53.1446 28.1704 L 47.5428 25.6148 L 43.9701 29.4959 L 41.0914 32.9988 L 41.141 38.5805 L 47.4164 41.1558 L 52.254 38.9061 L 54.2455 32.9856 L 53.1446 28.1704 Z " stroke-width="0.7378829459708645"/>
    <path id="ID0.8560941652394831" fill="#809BB7" stroke="none" stroke-linecap="round" d="M 55.5946 13.5062 L 50.974 5.0006 L 47.1585 0.5044 L 43.9516 10.375 L 40.1328 19.032 L 42.244 23.8768 L 48.6014 24.8603 L 55.8168 22.2816 L 55.5946 13.5062 Z " stroke-width="0.7378829459708645"/>
  </g>
  <g id="ID0.32532088877633214">
    <path id="ID0.5138625972904265" fill="#809BB7" stroke="none" d="M 5.5813 46.3174 L 8.2888 46.5844 L 7.6403 54.4946 L 4.9328 54.2275 L 5.5813 46.3174 Z " stroke-width="0.27778669476208406"/>
    <path id="ID0.6377782253548503" fill="#809BB7" stroke="none" stroke-linecap="round" d="M 2.6858 37.3961 L 4.4665 35.3482 L 10.62 35.9552 L 12.4636 38.4373 L 11.9148 45.1305 L 10.3864 47.1266 L 3.6176 46.4589 L 2.1495 43.9372 L 2.6858 37.3961 Z " stroke-width="0.27778669476208406"/>
    <path id="ID0.6377782253548503" fill="#809BB7" stroke="none" stroke-linecap="round" d="M 3.6442 27.2678 L 5.2682 25.4003 L 10.8799 25.9538 L 12.5611 28.2173 L 12.0607 34.3212 L 10.6669 36.1416 L 4.494 35.5327 L 3.1552 33.233 L 3.6442 27.2678 Z " stroke-width="0.2533274885494053"/>
    <path id="ID0.6377782253548503" fill="#809BB7" stroke="none" stroke-linecap="round" d="M 4.7888 18.9447 L 6.0897 17.4486 L 10.5853 17.892 L 11.9321 19.7053 L 11.5312 24.5952 L 10.4146 26.0535 L 5.4695 25.5657 L 4.397 23.7234 L 4.7888 18.9447 Z " stroke-width="0.2029419361516366"/>
  </g>
  <g id="ID0.07672071224078536">
    <path id="ID0.5755643504671752" fill="#809BB7" stroke="none" stroke-linecap="round" d="M 19.3398 39.533 L 21.3017 39.558 L 20.4584 53.3691 L 18.4965 53.3441 L 19.3398 39.533 Z " stroke-width="0.16638217347708364"/>
    <path id="ID0.6377782253548503" fill="#809BB7" stroke="none" stroke-linecap="round" d="M 15.1002 45.1664 L 15.4146 43.5908 L 17.2961 42.0746 L 19.1776 40.5584 L 21.0814 40.8196 L 21.7696 41.6972 L 22.569 42.1813 L 24.1536 45.3845 L 21.2134 44.3755 L 20.2636 43.4946 L 19.1956 43.8364 L 17.3404 44.2077 L 15.1002 45.1664 Z " stroke-width="0.16638217347708364"/>
    <path id="ID0.6377782253548503" fill="#809BB7" stroke="none" stroke-linecap="round" d="M 15.8577 40.356 L 17.4966 37.8099 L 19.3152 36.6089 L 21.6332 36.52 L 22.8204 37.7988 L 23.9888 40.815 L 23.2235 41.2002 L 22.3104 41.1491 L 21.3488 41.1763 L 19.3433 41.1507 L 18.401 40.8623 L 16.5747 40.76 L 15.8577 40.356 Z " stroke-width="0.16638217347708364"/>
  </g>
  <g id="ID0.13338996097445488">
    <path id="ID0.5138625972904265" fill="#809BB7" stroke="none" d="M 65.9634 56.7887 L 68.3952 57.0728 L 67.6477 63.4618 L 65.2158 63.1777 L 65.9634 56.7887 Z " stroke-width="0.23532287764492035"/>
    <path id="ID0.6377782253548503" fill="#809BB7" stroke="none" stroke-linecap="round" d="M 64.3627 52.2621 L 66.755 49.0544 L 69.0763 49.3256 L 71.2737 52.5714 L 72.7846 57.8543 L 67.147 57.1956 L 61.7162 56.6856 L 64.3627 52.2621 Z " stroke-width="0.23532287764492035"/>
    <path id="ID0.6377782253548503" fill="#809BB7" stroke="none" stroke-linecap="round" d="M 65.0945 45.2663 L 67.555 41.9544 L 69.8763 42.2256 L 71.9336 46.1899 L 73.1129 51.434 L 67.947 50.0956 L 62.847 50.11 L 65.0945 45.2663 Z " stroke-width="0.23532287764492035"/>
    <path id="ID0.6377782253548503" fill="#809BB7" stroke="none" stroke-linecap="round" d="M 66.2015 37.6349 L 69.5787 33.6705 L 72.7836 38.8399 L 73.9844 43.8997 L 68.797 42.7456 L 63.3726 42.6598 L 66.2015 37.6349 Z " stroke-width="0.23532287764492035"/>
  </g>
  <g id="ID0.5213190782815218">
    <path id="ID0.1596489236690104" fill="#809BB7" stroke="none" d="M 136.9979 102.0999 L 138.9578 102.2434 L 137.8582 117.2692 L 135.8983 117.1258 L 136.9979 102.0999 Z " stroke-width="0.41543493717953134"/>
    <path id="ID0.8456291356123984" fill="#809BB7" stroke="none" stroke-linecap="round" d="M 134.5907 101.0283 L 136.0487 99.0552 L 135.9691 95.6559 L 137.6687 93.372 L 140.4147 93.2446 L 141.7929 96.8483 L 140.7227 99.5067 L 141.2777 102.3934 L 141.0865 105.0066 L 138.8504 107.1417 L 135.4219 106.1246 L 134.2269 104.5046 L 134.5907 101.0283 Z " stroke-width="0.436695522555147"/>
  </g>
  <g id="ID0.16197650181129575">
    <path id="ID0.2429629685357213" fill="#809BB7" stroke="none" d="M 295.8863 79.4531 L 298.9305 79.327 L 300.9878 128.9854 L 297.9436 129.1116 L 295.8863 79.4531 Z " stroke-width="0.7617020860792398"/>
    <path id="ID0.4719710564240813" fill="#809BB7" stroke="none" stroke-linecap="round" d="M 290.9577 70.8823 L 288.2063 73.4739 L 291.4744 64.9526 L 297.4536 57.4625 L 301.2498 61.6888 L 307.5973 72.2894 L 301.9535 69.4738 L 305.3535 73.3353 L 308.6027 78.156 L 302.4433 76.6959 L 307.0873 82.9835 L 308.4339 87.883 L 300.3404 85.7407 L 295.362 85.1846 L 286.0066 89.3839 L 290.0752 81.7824 L 292.248 79.0241 L 286.4602 81.9322 L 290.307 73.5775 L 291.7503 71.6118 L 290.9577 70.8823 Z " stroke-width="0.7617020860792398"/>
    <path id="ID0.5574884423986077" fill="#809BB7" stroke="none" stroke-linecap="round" d="M 298.9516 93.4204 L 301.5512 96.3621 L 302.7074 101.2695 L 298.1974 98.2164 L 298.9516 93.4204 Z " stroke-width="0.7617020860792398"/>
    <path id="ID0.5574884423986077" fill="#809BB7" stroke="none" stroke-linecap="round" d="M 298.0366 106.3906 L 296.184 109.5167 L 294.4154 112.83 L 297.9121 109.8263 L 298.0366 106.3906 Z " stroke-width="0.7617020860792398"/>
  </g>
  <g id="ID0.5213190782815218">
    <path id="ID0.1596489236690104" fill="#809BB7" stroke="none" d="M 33.1093 35.9015 L 31.1557 35.6893 L 29.0536 55.0396 L 31.0073 55.2518 L 33.1093 35.9015 Z " stroke-width="0.4861924962685049"/>
    <path id="ID0.8456291356123984" fill="#809BB7" stroke="none" stroke-linecap="round" d="M 35.7055 35.0607 L 34.6925 32.2551 L 35.4903 27.9436 L 34.3059 24.6937 L 31.6382 23.9783 L 29.5228 28.2885 L 30.0102 31.8883 L 28.8545 35.4515 L 28.4889 38.8167 L 30.2312 41.9854 L 33.8109 41.3811 L 35.3266 39.5595 L 35.7055 35.0607 Z " stroke-width="0.5044798571010288"/>
  </g>
  <g id="ID0.16197650181129575">
    <path id="ID0.2429629685357213" fill="#809BB7" stroke="none" d="M 107.8953 82.6312 L 109.4045 82.7969 L 106.7014 107.4169 L 105.1921 107.2512 L 107.8953 82.6312 Z " stroke-width="0.3795860250686782"/>
    <path id="ID0.4719710564240813" fill="#809BB7" stroke="none" stroke-linecap="round" d="M 106.1441 78.0308 L 104.5946 79.1017 L 106.8425 75.148 L 110.349 71.9053 L 111.903 74.2716 L 114.2369 79.9695 L 111.667 78.1599 L 113.0531 80.3169 L 114.2931 82.9351 L 111.3678 81.7547 L 113.1852 85.2002 L 113.4819 87.7149 L 109.6547 86.0536 L 107.2436 85.407 L 102.32 86.7757 L 104.8935 83.3351 L 106.1704 82.1388 L 103.1012 83.1383 L 105.6218 79.31 L 106.48 78.4495 L 106.1441 78.0308 Z " stroke-width="0.3795860250686782"/>
    <path id="ID0.5574884423986077" fill="#809BB7" stroke="none" stroke-linecap="round" d="M 108.3525 89.7316 L 109.4131 91.3755 L 109.6155 93.8799 L 107.622 92.038 L 108.3525 89.7316 Z " stroke-width="0.3795860250686782"/>
    <path id="ID0.5574884423986077" fill="#809BB7" stroke="none" stroke-linecap="round" d="M 106.9576 96.0904 L 105.8108 97.492 L 104.6915 98.992 L 106.6391 97.7738 L 106.9576 96.0904 Z " stroke-width="0.3795860250686782"/>
  </g>
  <g id="ID0.07672071224078536">
    <path id="ID0.5755643504671752" fill="#809BB7" stroke="none" stroke-linecap="round" d="M 98.6604 88.6521 L 100.2373 88.8623 L 98.3413 103.0827 L 96.7644 102.8725 L 98.6604 88.6521 Z " stroke-width="0.15309821048928662"/>
    <path id="ID0.6377782253548503" fill="#809BB7" stroke="none" stroke-linecap="round" d="M 94.7473 94.0595 L 95.1391 92.4577 L 96.7871 91.0647 L 98.4351 89.6716 L 99.9445 90.121 L 100.421 91.0943 L 101.0218 91.6706 L 102.0149 95.136 L 99.7373 93.815 L 99.0505 92.8137 L 98.1607 93.0673 L 96.6348 93.2773 L 94.7473 94.0595 Z " stroke-width="0.15309821048928662"/>
    <path id="ID0.6377782253548503" fill="#809BB7" stroke="none" stroke-linecap="round" d="M 95.7589 89.1545 L 97.3024 86.6724 L 98.872 85.5998 L 100.7455 85.7255 L 101.5884 87.1612 L 102.263 90.3939 L 101.6131 90.7207 L 100.8826 90.582 L 100.1063 90.5198 L 98.4944 90.3049 L 97.7614 89.9177 L 96.3004 89.6403 L 95.7589 89.1545 Z " stroke-width="0.15309821048928662"/>
  </g>
  <g id="ID0.32532088877633214">
    <path id="ID0.5138625972904265" fill="#809BB7" stroke="none" d="M 88.1187 90.7438 L 90.0457 91.2777 L 88.9956 96.0953 L 87.0686 95.5614 L 88.1187 90.7438 Z " stroke-width="0.18560228915353724"/>
    <path id="ID0.6377782253548503" fill="#809BB7" stroke="none" stroke-linecap="round" d="M 86.7463 84.8311 L 88.1778 83.8032 L 92.5573 85.0165 L 93.6996 86.8066 L 92.8111 90.883 L 91.5649 91.9131 L 86.7474 90.5784 L 85.8779 88.8148 L 86.7463 84.8311 Z " stroke-width="0.18560228915353724"/>
    <path id="ID0.6377782253548503" fill="#809BB7" stroke="none" stroke-linecap="round" d="M 88.118 78.6299 L 89.4234 77.6925 L 93.4173 78.799 L 94.4591 80.4315 L 93.6488 84.149 L 92.5123 85.0884 L 88.119 83.8712 L 87.3261 82.2629 L 88.118 78.6299 Z " stroke-width="0.1692599583270732"/>
    <path id="ID0.6377782253548503" fill="#809BB7" stroke="none" stroke-linecap="round" d="M 89.5467 73.6146 L 90.5925 72.8636 L 93.7921 73.7501 L 94.6266 75.0578 L 93.9775 78.0359 L 93.067 78.7885 L 89.5475 77.8134 L 88.9123 76.525 L 89.5467 73.6146 Z " stroke-width="0.1355950138367029"/>
  </g>
  <g id="ID0.13338996097445488">
    <path id="ID0.5138625972904265" fill="#809BB7" stroke="none" d="M 34.1337 52.2677 L 35.3134 52.4055 L 34.9507 55.5046 L 33.7711 55.3668 L 34.1337 52.2677 Z " stroke-width="0.11414916017765152"/>
    <path id="ID0.6377782253548503" fill="#809BB7" stroke="none" stroke-linecap="round" d="M 33.326 50.0902 L 34.4864 48.5342 L 35.6124 48.6658 L 36.6783 50.2403 L 37.4112 52.8028 L 34.6765 52.4833 L 32.0422 52.2359 L 33.326 50.0902 Z " stroke-width="0.11414916017765152"/>
    <path id="ID0.6377782253548503" fill="#809BB7" stroke="none" stroke-linecap="round" d="M 33.6929 46.6907 L 34.8864 45.0842 L 36.0124 45.2158 L 37.0103 47.1388 L 37.5824 49.6825 L 35.0765 49.0333 L 32.6027 49.0403 L 33.6929 46.6907 Z " stroke-width="0.11414916017765152"/>
    <path id="ID0.6377782253548503" fill="#809BB7" stroke="none" stroke-linecap="round" d="M 34.2175 43.0043 L 35.8557 41.0812 L 37.4103 43.5888 L 37.9928 46.0431 L 35.4765 45.4833 L 32.8453 45.4417 L 34.2175 43.0043 Z " stroke-width="0.11414916017765152"/>
  </g>
  <g id="ID0.07672071224078536">
    <path id="ID0.5755643504671752" fill="#809BB7" stroke="none" stroke-linecap="round" d="M 15.103 42.5011 L 13.568 42.2925 L 11.6673 56.2799 L 13.2023 56.4885 L 15.103 42.5011 Z " stroke-width="0.14997654764377705"/>
    <path id="ID0.6377782253548503" fill="#809BB7" stroke="none" stroke-linecap="round" d="M 16.1371 49.2561 L 16.0651 47.7403 L 15.3761 45.6523 L 14.9173 44.9387 L 12.8055 45.1402 L 11.9317 46.2018 L 10.4754 49.5043 L 11.6104 49.3329 L 12.4345 49.4042 L 13.1803 48.7729 L 13.9075 48.7903 L 14.2502 49.0811 L 16.1371 49.2561 Z " stroke-width="0.14997654764377705"/>
    <path id="ID0.6377782253548503" fill="#809BB7" stroke="none" stroke-linecap="round" d="M 17.4119 45.6846 L 16.4237 42.9861 L 14.73 40.1104 L 13.2499 42.3106 L 11.4525 45.5668 L 12.3883 45.3276 L 13.1604 45.2697 L 14.7636 45.4876 L 17.4119 45.6846 Z " stroke-width="0.14997654764377705"/>
  </g>
  <g id="ID0.7277544308453798">
    <path id="ID0.8515107058919966" fill="#809BB7" stroke="none" d="M 383.4394 54.8677 L 385.1552 54.6596 L 392.2576 86.7225 L 390.5418 86.9306 L 383.4394 54.8677 Z " stroke-width="0.4940550601412353"/>
    <path id="ID0.5577249256893992" fill="#809BB7" stroke="none" stroke-linecap="round" d="M 383.1179 63.1378 L 385.9784 61.027 L 388.519 63.6585 L 390.6149 66.05 L 391.3121 70.081 L 388.0702 72.238 L 385.0207 70.8441 L 383.1162 66.6656 L 383.1179 63.1378 Z " stroke-width="0.4940550601412353"/>
    <path id="ID0.8560941652394831" fill="#809BB7" stroke="none" stroke-linecap="round" d="M 379.8142 52.6981 L 381.3422 46.3394 L 382.9324 42.9129 L 386.043 49.8848 L 389.3446 55.9516 L 388.771 59.5488 L 385.2755 60.5607 L 380.828 59.0424 L 379.8142 52.6981 Z " stroke-width="0.4940550601412353"/>
  </g>
  <g id="ID0.5372698470018804">
    <path id="ID0.996752165723592" fill="#809BB7" stroke="none" d="M 315.6675 111.7832 L 316.9329 111.8654 L 315.9829 126.4788 L 314.7176 126.3965 L 315.6675 111.7832 Z " stroke-width="0.5479024371525839"/>
    <path id="ID0.3925567790865898" fill="#809BB7" stroke="none" stroke-linecap="round" d="M 313.8674 104.1759 L 312.1023 102.0067 L 312.2353 99.9608 L 313.115 96.2025 L 314.7159 93.078 L 317.3607 91.489 L 320.1316 95.7781 L 320.6533 99.4808 L 318.5273 102.8646 L 319.8652 105.7399 L 320.1939 110.4573 L 317.4542 113.5077 L 313.3449 112.2133 L 311.0547 110.3034 L 311.5833 106.082 L 313.8674 104.1759 Z " stroke-width="0.5479024371525839"/>
    <path id="ID0.4457426266744733" fill="#809BB7" stroke="none" stroke-linecap="round" d="M 313.1203 116.1499 L 314.4807 114.7709 L 315.9801 115.1618 L 315.7111 117.3456 L 314.1737 117.5392 L 313.1203 116.1499 Z " stroke-width="0.5479024371525839"/>
  </g>
  <g id="ID0.9161517578177154">
    <path id="ID0.7481145667843521" fill="#809BB7" stroke="none" d="M 417.4243 21.5764 L 419.0438 21.5967 L 418.3979 73.0972 L 416.7784 73.0769 L 417.4243 21.5764 Z " stroke-width="0.6478555662998242"/>
    <path id="ID0.7664037430658937" fill="#809BB7" stroke="none" stroke-linecap="round" d="M 413.5984 16.6691 L 417.599 7.6486 L 422.6941 14.6775 L 425.5843 29.6156 L 418.2198 22.7202 L 411.3427 28.6271 L 413.5984 16.6691 Z " stroke-width="0.6478555662998242"/>
    <path id="ID0.8637174661271274" fill="#809BB7" stroke="none" stroke-linecap="round" d="M 418.2869 34.7458 L 420.6875 33.9596 L 424.2533 37.9112 L 420.3638 36.5212 L 417.8983 37.8315 L 418.2869 34.7458 Z " stroke-width="1.1661399954926928"/>
    <path id="ID0.8637174661271274" fill="#809BB7" stroke="none" stroke-linecap="round" d="M 417.6488 49.6353 L 416.3573 49.2952 L 414.2944 51.051 L 416.0799 50.7495 L 417.9524 51.2589 L 417.6488 49.6353 Z " stroke-width="0.6478555662998242"/>
  </g>
  <g id="ID0.15554087748751044">
    <path id="ID0.8482902436517179" fill="#809BB7" stroke="none" d="M 199.3163 99.3379 L 202.3727 99.1953 L 203.0325 113.3314 L 199.9761 113.4741 L 199.3163 99.3379 Z " stroke-width="0.7649484471126536"/>
    <path id="ID0.5404099025763571" fill="#809BB7" stroke="none" stroke-linecap="round" d="M 196.2956 97.0546 L 200.2145 94.8806 L 202.5746 96.2255 L 205.2883 96.9412 L 206.6678 100.2462 L 205.9328 104.186 L 202.0778 106.0889 L 196.7848 105.0725 L 194.9743 101.5578 L 196.2956 97.0546 Z " stroke-width="0.7649484471126536"/>
  </g>
  <g id="ID0.8695859415456653">
    <path id="ID0.7277065478265285" fill="#809BB7" stroke="none" d="M 243.7432 62.2885 L 247.0034 62.3721 L 246.1875 94.1911 L 242.9273 94.1075 L 243.7432 62.2885 Z " stroke-width="0.5217948782871118"/>
    <path id="ID0.8004378951154649" fill="#809BB7" stroke="none" stroke-linecap="round" d="M 242.7903 54.9573 L 245.6593 55.0309 L 248.8291 53.5463 L 251.2634 55.3051 L 254.0688 57.8564 L 254.8479 63.096 L 254.5904 68.0481 L 252.5373 71.7797 L 248.7121 73.378 L 243.7533 73.3813 L 238.9484 72.4752 L 236.377 70.9738 L 235.3505 65.2059 L 236.6847 58.9765 L 240.1956 54.3688 L 242.7903 54.9573 Z " stroke-width="0.5217948782871118"/>
    <path id="ID0.23617623001337051" fill="#809BB7" stroke="none" stroke-linecap="round" d="M 239.0898 75.6957 L 242.1059 75.1206 L 244.4264 76.224 L 244.49 78.8354 L 241.5809 80.3268 L 238.488 78.812 L 237.0903 77.3408 L 239.0898 75.6957 Z " stroke-width="0.5217948782871118"/>
    <path id="ID0.23617623001337051" fill="#809BB7" stroke="none" stroke-linecap="round" d="M 248.9506 83.2818 L 247.4125 82.1984 L 245.3882 81.7551 L 245.4096 83.974 L 247.7469 84.4254 L 248.9506 83.2818 Z " stroke-width="0.5217948782871118"/>
  </g>
  <g id="ID0.15554087748751044">
    <path id="ID0.8482902436517179" fill="#809BB7" stroke="none" d="M 54.796 50.6149 L 56.7601 51.0185 L 54.8934 60.1024 L 52.9293 59.6988 L 54.796 50.6149 Z " stroke-width="0.5012854088432497"/>
    <path id="ID0.5404099025763571" fill="#809BB7" stroke="none" stroke-linecap="round" d="M 53.3187 48.6696 L 56.1589 47.9227 L 57.4403 49.1583 L 59.0479 50.0516 L 59.3895 52.3735 L 58.2857 54.7567 L 55.5299 55.3419 L 52.3329 53.8405 L 51.7514 51.3157 L 53.3187 48.6696 Z " stroke-width="0.5012854088432497"/>
  </g>
  <g id="ID0.9161517578177154">
    <path id="ID0.7481145667843521" fill="#809BB7" stroke="none" d="M 147.268 70.5265 L 149.0338 70.6652 L 145.3252 117.8788 L 143.5593 117.7401 L 147.268 70.5265 Z " stroke-width="0.6545504127844887"/>
    <path id="ID0.7664037430658937" fill="#809BB7" stroke="none" stroke-linecap="round" d="M 143.3798 65.7395 L 148.2709 57.758 L 153.4202 64.5861 L 155.7024 78.5089 L 148.0693 71.6351 L 140.2212 76.5459 L 143.3798 65.7395 Z " stroke-width="0.6545504127844887"/>
    <path id="ID0.8637174661271274" fill="#809BB7" stroke="none" stroke-linecap="round" d="M 147.4263 82.6557 L 150.0915 82.1122 L 153.7516 86.0029 L 149.5889 84.439 L 146.8224 85.4586 L 147.4263 82.6557 Z " stroke-width="1.1781907663801459"/>
    <path id="ID0.8637174661271274" fill="#809BB7" stroke="none" stroke-linecap="round" d="M 145.8208 96.184 L 144.4315 95.7761 L 142.0782 97.2345 L 144.044 97.0901 L 146.0574 97.6964 L 145.8208 96.184 Z " stroke-width="0.6545504127844887"/>
  </g>
  <g id="ID0.8695859415456653">
    <path id="ID0.7277065478265285" fill="#809BB7" stroke="none" d="M 131.2285 91.1048 L 132.4367 91.294 L 129.4664 110.6369 L 128.2581 110.4477 L 131.2285 91.1048 Z " stroke-width="0.2657153922508485"/>
    <path id="ID0.8004378951154649" fill="#809BB7" stroke="none" stroke-linecap="round" d="M 131.5078 86.5977 L 132.5711 86.7642 L 133.8771 85.9946 L 134.6371 87.1689 L 135.469 88.8416 L 135.3204 92.0656 L 134.8095 95.0704 L 133.7315 97.2559 L 132.1717 98.067 L 130.323 97.8587 L 128.6078 97.103 L 127.7751 96.0796 L 127.8758 92.5235 L 128.8951 88.7864 L 130.5899 86.1293 L 131.5078 86.5977 Z " stroke-width="0.2657153922508485"/>
    <path id="ID0.23617623001337051" fill="#809BB7" stroke="none" stroke-linecap="round" d="M 128.4043 99.1029 L 129.5767 98.8806 L 130.3493 99.651 L 130.1542 101.244 L 128.9448 102.0288 L 127.9188 100.9752 L 127.5211 100.0199 L 128.4043 99.1029 Z " stroke-width="0.2657153922508485"/>
    <path id="ID0.23617623001337051" fill="#809BB7" stroke="none" stroke-linecap="round" d="M 131.4324 104.1388 L 130.9498 103.4138 L 130.2324 103.0579 L 130.0545 104.4101 L 130.8879 104.7841 L 131.4324 104.1388 Z " stroke-width="0.2657153922508485"/>
  </g>
  <g id="ID0.7277544308453798">
    <path id="ID0.8515107058919966" fill="#809BB7" stroke="none" d="M 464.1875 33.0393 L 461.1559 33.0214 L 459.4694 68.3563 L 462.501 68.3742 L 464.1875 33.0393 Z " stroke-width="0.652767776114984"/>
    <path id="ID0.5577249256893992" fill="#809BB7" stroke="none" stroke-linecap="round" d="M 467.4711 41.8949 L 461.8351 39.9682 L 458.3161 43.1032 L 455.4859 45.9267 L 455.6119 50.3455 L 461.9216 52.2762 L 466.7277 50.4112 L 468.6378 45.6888 L 467.4711 41.8949 Z " stroke-width="0.652767776114984"/>
    <path id="ID0.8560941652394831" fill="#809BB7" stroke="none" stroke-linecap="round" d="M 469.7144 30.2683 L 464.9779 23.6131 L 461.1015 20.1189 L 458.0303 27.9902 L 454.3306 34.9111 L 456.5078 38.7109 L 462.8777 39.3797 L 470.0568 37.213 L 469.7144 30.2683 Z " stroke-width="0.652767776114984"/>
  </g>
  <g id="ID0.8695859415456653">
    <path id="ID0.7277065478265285" fill="#809BB7" stroke="none" d="M 366.5803 77.8686 L 364.3053 78.3166 L 369.169 102.9447 L 371.4441 102.4967 L 366.5803 77.8686 Z " stroke-width="0.3917914385777192"/>
    <path id="ID0.8004378951154649" fill="#809BB7" stroke="none" stroke-linecap="round" d="M 366.3023 72.0612 L 364.3003 72.4555 L 361.877 71.6743 L 360.4071 73.327 L 358.7839 75.639 L 358.9442 79.8018 L 359.7926 83.6194 L 361.7357 86.2778 L 364.6339 87.0702 L 368.1119 86.4902 L 371.3593 85.2215 L 372.9601 83.7528 L 372.902 79.1504 L 371.1262 74.4668 L 368.0426 71.2991 L 366.3023 72.0612 Z " stroke-width="0.3917914385777192"/>
    <path id="ID0.23617623001337051" fill="#809BB7" stroke="none" stroke-linecap="round" d="M 371.6426 87.7904 L 369.4499 87.6979 L 367.9713 88.8279 L 368.279 90.8645 L 370.5202 91.6815 L 372.485 90.1411 L 373.2667 88.8337 L 371.6426 87.7904 Z " stroke-width="0.3917914385777192"/>
    <path id="ID0.23617623001337051" fill="#809BB7" stroke="none" stroke-linecap="round" d="M 365.7579 94.8072 L 366.6904 93.7847 L 368.0503 93.2023 L 368.3345 94.929 L 366.7563 95.5543 L 365.7579 94.8072 Z " stroke-width="0.3917914385777192"/>
  </g>
  <g id="ID0.07672071224078536">
    <path id="ID0.5755643504671752" fill="#809BB7" stroke="none" stroke-linecap="round" d="M 216.2839 78.6333 L 217.7931 78.3754 L 220.1241 95.1791 L 218.6148 95.4369 L 216.2839 78.6333 Z " stroke-width="0.16744651778363198"/>
    <path id="ID0.6377782253548503" fill="#809BB7" stroke="none" stroke-linecap="round" d="M 214.2594 86.0572 L 214.1607 84.1082 L 215.2761 82.0008 L 216.3915 79.8935 L 217.9072 79.9295 L 218.6239 80.8883 L 219.3411 81.3555 L 221.2463 84.9914 L 218.7749 84.2046 L 217.857 83.2801 L 217.112 83.8497 L 215.7699 84.5705 L 214.2594 86.0572 Z " stroke-width="0.16744651778363198"/>
    <path id="ID0.6377782253548503" fill="#809BB7" stroke="none" stroke-linecap="round" d="M 213.7814 80.1594 L 214.4889 76.8439 L 215.624 75.1264 L 217.3817 74.6787 L 218.5674 76.0488 L 220.1133 79.52 L 219.6097 80.0975 L 218.8987 80.1698 L 218.1675 80.3439 L 216.6247 80.6075 L 215.8402 80.3975 L 214.4182 80.5421 L 213.7814 80.1594 Z " stroke-width="0.16744651778363198"/>
  </g>
  <g id="ID0.13338996097445488">
    <path id="ID0.5138625972904265" fill="#809BB7" stroke="none" d="M 255.1551 91.9887 L 257.0436 92.3858 L 256.2925 96.2223 L 254.404 95.8253 L 255.1551 91.9887 Z " stroke-width="0.1633721740312289"/>
    <path id="ID0.6377782253548503" fill="#809BB7" stroke="none" stroke-linecap="round" d="M 253.9518 89.0429 L 255.9014 87.3019 L 257.7041 87.6808 L 259.3317 89.8666 L 260.3705 93.2344 L 255.9926 92.3141 L 251.772 91.5036 L 253.9518 89.0429 Z " stroke-width="0.1633721740312289"/>
    <path id="ID0.6377782253548503" fill="#809BB7" stroke="none" stroke-linecap="round" d="M 254.7459 84.8003 L 256.7514 83.0019 L 258.5541 83.3808 L 260.0536 85.9929 L 260.8348 89.3066 L 256.8426 88.0141 L 252.8661 87.5545 L 254.7459 84.8003 Z " stroke-width="0.1633721740312289"/>
    <path id="ID0.6377782253548503" fill="#809BB7" stroke="none" stroke-linecap="round" d="M 255.8037 80.2519 L 258.5411 78.1388 L 260.9036 81.5929 L 261.7065 84.7959 L 257.6926 83.6141 L 253.4658 83.0635 L 255.8037 80.2519 Z " stroke-width="0.1633721740312289"/>
  </g>
  <g id="ID0.07672071224078536">
    <path id="ID0.5755643504671752" fill="#809BB7" stroke="none" stroke-linecap="round" d="M 163.7891 96.3865 L 162.2538 96.3194 L 163.1203 119.4533 L 164.6556 119.5205 L 163.7891 96.3865 Z " stroke-width="0.20999917938371968"/>
    <path id="ID0.6377782253548503" fill="#809BB7" stroke="none" stroke-linecap="round" d="M 167.235 105.9989 L 166.9654 103.3476 L 165.47 100.7087 L 163.9746 98.0697 L 162.4883 98.4006 L 161.9627 99.8294 L 161.3442 100.5942 L 160.1517 105.8607 L 162.4381 104.3374 L 163.1684 102.9176 L 164.0095 103.5483 L 165.4672 104.2719 L 167.235 105.9989 Z " stroke-width="0.20999917938371968"/>
    <path id="ID0.6377782253548503" fill="#809BB7" stroke="none" stroke-linecap="round" d="M 166.6111 97.9509 L 165.2902 93.6039 L 163.8487 91.4952 L 162.033 91.2178 L 161.1228 93.2896 L 160.2533 98.2668 L 160.8581 98.9531 L 161.5721 98.9183 L 162.3252 99.0173 L 163.8946 99.0859 L 164.6278 98.656 L 166.0559 98.5865 L 166.6111 97.9509 Z " stroke-width="0.20999917938371968"/>
  </g>
  <g id="ID0.16197650181129575">
    <path id="ID0.2429629685357213" fill="#809BB7" stroke="none" d="M 205.1756 79.3081 L 206.2199 79.0218 L 212.8531 99.5588 L 211.8088 99.8451 L 205.1756 79.3081 Z " stroke-width="0.30204445752819076"/>
    <path id="ID0.4719710564240813" fill="#809BB7" stroke="none" stroke-linecap="round" d="M 202.45 76.0834 L 201.8013 77.3747 L 201.9232 73.5725 L 203.1114 69.992 L 204.936 71.4618 L 208.408 75.3922 L 206.1086 74.6521 L 207.7518 76.0003 L 209.4569 77.7598 L 207.1396 77.6243 L 209.5049 79.888 L 210.5573 81.8265 L 207.4856 81.5551 L 205.6869 81.7056 L 202.9317 84.174 L 203.4417 80.6937 L 203.8692 79.3774 L 202.2016 81.0337 L 202.5447 77.2565 L 202.8127 76.3265 L 202.45 76.0834 Z " stroke-width="0.30204445752819076"/>
    <path id="ID0.5574884423986077" fill="#809BB7" stroke="none" stroke-linecap="round" d="M 207.8889 84.8778 L 209.144 85.9042 L 210.1312 87.8605 L 208.1979 86.9344 L 207.8889 84.8778 Z " stroke-width="0.30204445752819076"/>
    <path id="ID0.5574884423986077" fill="#809BB7" stroke="none" stroke-linecap="round" d="M 209.1629 90.3553 L 208.8907 91.8004 L 208.6701 93.3169 L 209.529 91.7967 L 209.1629 90.3553 Z " stroke-width="0.30204445752819076"/>
  </g>
  <g id="ID0.5372698470018804">
    <path id="ID0.996752165723592" fill="#809BB7" stroke="none" d="M 266.2381 90.6408 L 264.9751 90.5285 L 263.716 104.5942 L 264.9791 104.7065 L 266.2381 90.6408 Z " stroke-width="0.5368224340650318"/>
    <path id="ID0.3925567790865898" fill="#809BB7" stroke="none" stroke-linecap="round" d="M 269.1509 83.6471 L 271.2218 81.8463 L 271.398 79.8771 L 271.0938 76.1639 L 269.9815 72.946 L 267.6064 71.0336 L 264.2225 74.7025 L 263.1499 78.1515 L 264.7423 81.6957 L 262.9874 84.2334 L 261.953 88.6783 L 264.2021 91.9973 L 268.4584 91.3832 L 271.0093 89.9087 L 271.1218 85.8072 L 269.1509 83.6471 Z " stroke-width="0.5368224340650318"/>
    <path id="ID0.4457426266744733" fill="#809BB7" stroke="none" stroke-linecap="round" d="M 268.1114 95.1735 L 266.9742 93.6546 L 265.4334 93.8012 L 265.3708 95.9223 L 266.8613 96.3383 L 268.1114 95.1735 Z " stroke-width="0.5368224340650318"/>
  </g>
  <g id="ID0.7277544308453798">
    <path id="ID0.8515107058919966" fill="#809BB7" stroke="none" d="M 291.1582 103.3398 L 289.5757 103.5775 L 291.7716 123.1236 L 293.3542 122.8859 L 291.1582 103.3398 Z " stroke-width="0.35331599148146464"/>
    <path id="ID0.5577249256893992" fill="#809BB7" stroke="none" stroke-linecap="round" d="M 293.6414 107.9357 L 290.5345 107.3377 L 288.9722 109.3471 L 287.7419 111.1291 L 288.1923 113.5459 L 291.6509 114.0911 L 293.995 112.6741 L 294.5801 109.9242 L 293.6414 107.9357 Z " stroke-width="0.35331599148146464"/>
    <path id="ID0.8560941652394831" fill="#809BB7" stroke="none" stroke-linecap="round" d="M 293.8014 101.3455 L 290.7521 98.0769 L 288.4263 96.4742 L 287.5098 101.0485 L 286.1827 105.1521 L 287.6489 107.0614 L 291.0291 106.9085 L 294.5845 105.132 L 293.8014 101.3455 Z " stroke-width="0.35331599148146464"/>
  </g>
  <g id="ID0.07672071224078536">
    <path id="ID0.5755643504671752" fill="#809BB7" stroke="none" stroke-linecap="round" d="M 274.9899 96.0306 L 277.4964 96.8326 L 274.6908 109.8026 L 272.1843 109.0006 L 274.9899 96.0306 Z " stroke-width="0.19685701268054676"/>
    <path id="ID0.6377782253548503" fill="#809BB7" stroke="none" stroke-linecap="round" d="M 268.8568 99.7235 L 269.456 98.3304 L 272.0522 97.6159 L 274.6485 96.9014 L 277.0511 97.9079 L 277.8217 99.0261 L 278.7837 99.8094 L 280.4102 103.5234 L 276.7753 101.3856 L 275.6706 100.1604 L 274.2617 100.0662 L 271.8421 99.6882 L 268.8568 99.7235 Z " stroke-width="0.19685701268054676"/>
    <path id="ID0.6377782253548503" fill="#809BB7" stroke="none" stroke-linecap="round" d="M 270.3745 95.3834 L 272.7893 93.5807 L 275.2658 93.1448 L 278.2419 93.9782 L 279.6006 95.6809 L 280.718 99.0497 L 279.691 99.1173 L 278.5294 98.706 L 277.296 98.3509 L 274.7338 97.5311 L 273.5646 96.8796 L 271.2413 96.057 L 270.3745 95.3834 Z " stroke-width="0.19685701268054676"/>
  </g>
  <g id="ID0.13338996097445488">
    <path id="ID0.5138625972904265" fill="#809BB7" stroke="none" d="M 111.9858 100.4446 L 113.8662 100.874 L 113.5445 102.9965 L 111.6641 102.5671 L 111.9858 100.4446 Z " stroke-width="0.13697719666520747"/>
    <path id="ID0.6377782253548503" fill="#809BB7" stroke="none" stroke-linecap="round" d="M 110.5583 98.6433 L 112.27 97.8518 L 114.0649 98.2617 L 115.8823 99.6902 L 117.2526 101.7346 L 112.8936 100.7391 L 108.6993 99.8235 L 110.5583 98.6433 Z " stroke-width="0.13697719666520747"/>
    <path id="ID0.6377782253548503" fill="#809BB7" stroke="none" stroke-linecap="round" d="M 110.86 96.2703 L 112.62 95.4518 L 114.4149 95.8617 L 116.1531 97.5213 L 117.267 99.5071 L 113.2436 98.3391 L 109.3243 97.651 L 110.86 96.2703 Z " stroke-width="0.13697719666520747"/>
    <path id="ID0.6377782253548503" fill="#809BB7" stroke="none" stroke-linecap="round" d="M 111.3964 93.8073 L 113.8352 92.8862 L 116.5031 95.1213 L 117.6262 97.0459 L 113.5936 95.9391 L 109.421 95.1721 L 111.3964 93.8073 Z " stroke-width="0.13697719666520747"/>
  </g>
  <g id="ID0.07672071224078536">
    <path id="ID0.5755643504671752" fill="#809BB7" stroke="none" stroke-linecap="round" d="M 357.4996 89.1771 L 359.2579 88.8374 L 362.4537 108.2097 L 360.6954 108.5494 L 357.4996 89.1771 Z " stroke-width="0.19448980399176724"/>
    <path id="ID0.6377782253548503" fill="#809BB7" stroke="none" stroke-linecap="round" d="M 355.328 97.8195 L 355.1581 95.5677 L 356.404 93.0996 L 357.6499 90.6314 L 359.4239 90.6313 L 360.289 91.7206 L 361.141 92.2413 L 363.4711 96.3945 L 360.5583 95.5523 L 359.4587 94.5083 L 358.6031 95.1876 L 357.0534 96.0582 L 355.328 97.8195 Z " stroke-width="0.19448980399176724"/>
    <path id="ID0.6377782253548503" fill="#809BB7" stroke="none" stroke-linecap="round" d="M 354.5831 91.0071 L 355.3181 87.1527 L 356.598 85.1348 L 358.6414 84.5686 L 360.0668 86.1209 L 361.972 90.0933 L 361.399 90.7752 L 360.5694 90.8784 L 359.7189 91.0999 L 357.9215 91.4472 L 356.998 91.2258 L 355.3386 91.4322 L 354.5831 91.0071 Z " stroke-width="0.19448980399176724"/>
  </g>
  <g id="ID0.9161517578177154">
    <path id="ID0.7481145667843521" fill="#809BB7" stroke="none" d="M 339.114 85.289 L 340.7333 85.3263 L 339.8501 123.6003 L 338.2309 123.5629 L 339.114 85.289 Z " stroke-width="0.5707967570467808"/>
    <path id="ID0.7664037430658937" fill="#809BB7" stroke="none" stroke-linecap="round" d="M 335.3113 81.5886 L 339.3529 74.9382 L 344.4149 80.2331 L 347.2359 91.3771 L 339.9042 86.1502 L 333.0008 90.4465 L 335.3113 81.5886 Z " stroke-width="0.5707967570467808"/>
    <path id="ID0.8637174661271274" fill="#809BB7" stroke="none" stroke-linecap="round" d="M 339.9427 95.1452 L 342.3466 94.5938 L 345.8937 97.5802 L 342.0112 96.4935 L 339.5399 97.4336 L 339.9427 95.1452 Z " stroke-width="1.0274341601547408"/>
    <path id="ID0.8637174661271274" fill="#809BB7" stroke="none" stroke-linecap="round" d="M 339.2216 106.1186 L 337.9317 105.848 L 335.861 107.1249 L 337.6477 106.9253 L 339.5176 107.3297 L 339.2216 106.1186 Z " stroke-width="0.5707967570467808"/>
  </g>
  <g id="ID0.13338996097445488">
    <path id="ID0.5138625972904265" fill="#809BB7" stroke="none" d="M 306.857 121.9657 L 304.928 121.9909 L 304.8486 124.9566 L 306.7776 124.9315 L 306.857 121.9657 Z " stroke-width="0.14791562379344725"/>
    <path id="ID0.6377782253548503" fill="#809BB7" stroke="none" stroke-linecap="round" d="M 308.5901 119.9225 L 307.0545 118.346 L 305.2132 118.37 L 303.1599 119.7651 L 301.4314 122.1251 L 305.9032 122.0669 L 310.1981 122.068 L 308.5901 119.9225 Z " stroke-width="0.14791562379344725"/>
    <path id="ID0.6377782253548503" fill="#809BB7" stroke="none" stroke-linecap="round" d="M 308.7326 116.6732 L 307.1545 115.046 L 305.3132 115.07 L 303.2947 116.801 L 301.8293 119.1577 L 306.0032 118.7669 L 309.9852 118.9945 L 308.7326 116.6732 Z " stroke-width="0.14791562379344725"/>
    <path id="ID0.6377782253548503" fill="#809BB7" stroke="none" stroke-linecap="round" d="M 308.661 113.1329 L 306.4347 111.1664 L 303.3947 113.401 L 301.9315 115.6721 L 306.1032 115.3669 L 310.349 115.5625 L 308.661 113.1329 Z " stroke-width="0.14791562379344725"/>
  </g>
  <g id="ID0.32532088877633214">
    <path id="ID0.5138625972904265" fill="#809BB7" stroke="none" d="M 327.4009 116.7169 L 325.7544 117.0766 L 326.11 121.9603 L 327.7564 121.6006 L 327.4009 116.7169 Z " stroke-width="0.1706243367786982"/>
    <path id="ID0.6377782253548503" fill="#809BB7" stroke="none" stroke-linecap="round" d="M 329.17 110.9658 L 328.098 109.8166 L 324.3561 110.634 L 323.2238 112.3125 L 323.5247 116.4449 L 324.4436 117.5799 L 328.5596 116.6806 L 329.464 115.0042 L 329.17 110.9658 Z " stroke-width="0.1706243367786982"/>
    <path id="ID0.6377782253548503" fill="#809BB7" stroke="none" stroke-linecap="round" d="M 328.6861 104.6804 L 327.7085 103.6324 L 324.2961 104.3779 L 323.2636 105.9086 L 323.5379 109.6771 L 324.3759 110.7121 L 328.1295 109.8921 L 328.9542 108.3633 L 328.6861 104.6804 Z " stroke-width="0.1556008137207236"/>
    <path id="ID0.6377782253548503" fill="#809BB7" stroke="none" stroke-linecap="round" d="M 328.0444 99.5537 L 327.2612 98.7141 L 324.5276 99.3113 L 323.7004 100.5376 L 323.9201 103.5565 L 324.5915 104.3857 L 327.5985 103.7287 L 328.2592 102.504 L 328.0444 99.5537 Z " stroke-width="0.12465260417430593"/>
  </g>
  <g id="ID0.15554087748751044">
    <path id="ID0.8482902436517179" fill="#809BB7" stroke="none" d="M 331.8491 104.9718 L 333.529 104.7212 L 335.349 116.8681 L 333.6691 117.1187 L 331.8491 104.9718 Z " stroke-width="0.557261792667525"/>
    <path id="ID0.5404099025763571" fill="#809BB7" stroke="none" stroke-linecap="round" d="M 329.9596 103.1076 L 331.9086 101.0715 L 333.3554 102.1311 L 334.9335 102.6341 L 336.0383 105.4228 L 336.0361 108.8466 L 334.0947 110.6466 L 331.0556 109.9923 L 329.6903 107.0411 L 329.9596 103.1076 Z " stroke-width="0.557261792667525"/>
  </g>
  <g id="ID0.16197650181129575">
    <path id="ID0.2429629685357213" fill="#809BB7" stroke="none" d="M 351.3084 95.5943 L 352.0147 95.6107 L 352.3198 109.6874 L 351.6136 109.671 L 351.3084 95.5943 Z " stroke-width="0.19705574369683782"/>
    <path id="ID0.4719710564240813" fill="#809BB7" stroke="none" stroke-linecap="round" d="M 350.2438 93.1105 L 349.5969 93.7963 L 350.3842 91.4427 L 351.7964 89.427 L 352.662 90.6869 L 354.097 93.7928 L 352.7982 92.9002 L 353.5732 94.0502 L 354.3098 95.4688 L 352.8868 94.9507 L 353.9418 96.8079 L 354.237 98.2164 L 352.3679 97.4723 L 351.2155 97.2299 L 349.0318 98.2575 L 350.0015 96.1776 L 350.5148 95.4348 L 349.1628 96.1582 L 350.0836 93.8615 L 350.4251 93.3304 L 350.2438 93.1105 Z " stroke-width="0.19705574369683782"/>
    <path id="ID0.5574884423986077" fill="#809BB7" stroke="none" stroke-linecap="round" d="M 352.0028 99.6213 L 352.5954 100.4976 L 352.8465 101.905 L 351.8114 100.9646 L 352.0028 99.6213 Z " stroke-width="0.19705574369683782"/>
    <path id="ID0.5574884423986077" fill="#809BB7" stroke="none" stroke-linecap="round" d="M 351.7483 103.2923 L 351.3079 104.1446 L 350.8864 105.0512 L 351.7076 104.2617 L 351.7483 103.2923 Z " stroke-width="0.19705574369683782"/>
  </g>
  <g id="ID0.07672071224078536">
    <path id="ID0.5755643504671752" fill="#809BB7" stroke="none" stroke-linecap="round" d="M 346.1492 104.634 L 344.2612 105.2257 L 344.956 111.4065 L 346.844 110.8148 L 346.1492 104.634 Z " stroke-width="0.13379049134226204"/>
    <path id="ID0.6377782253548503" fill="#809BB7" stroke="none" stroke-linecap="round" d="M 350.22 106.0096 L 349.9308 105.3689 L 348.1332 105.2193 L 346.3356 105.0697 L 344.5015 105.7542 L 343.8319 106.3662 L 343.0586 106.8279 L 341.5068 108.7877 L 344.3445 107.4487 L 345.2658 106.7578 L 346.2906 106.6012 L 348.0726 106.2255 L 350.22 106.0096 Z " stroke-width="0.13379049134226204"/>
    <path id="ID0.6377782253548503" fill="#809BB7" stroke="none" stroke-linecap="round" d="M 349.5388 103.9511 L 347.9833 103.2503 L 346.2435 103.2288 L 344.0139 103.8727 L 342.8607 104.8191 L 341.711 106.5688 L 342.4441 106.5219 L 343.3232 106.2281 L 344.2482 105.9565 L 346.1781 105.3517 L 347.0873 104.9388 L 348.8454 104.3512 L 349.5388 103.9511 Z " stroke-width="0.13379049134226204"/>
  </g>
  <g id="ID0.13338996097445488">
    <path id="ID0.5138625972904265" fill="#809BB7" stroke="none" d="M 382.5474 82.6026 L 380.6499 82.9597 L 381.7183 88.2661 L 383.6158 87.909 L 382.5474 82.6026 Z " stroke-width="0.192543721658221"/>
    <path id="ID0.6377782253548503" fill="#809BB7" stroke="none" stroke-linecap="round" d="M 383.548 78.7179 L 381.4202 76.1527 L 379.609 76.4936 L 378.1183 79.316 L 377.322 83.8083 L 381.7207 82.9806 L 385.9675 82.2873 L 383.548 78.7179 Z " stroke-width="0.192543721658221"/>
    <path id="ID0.6377782253548503" fill="#809BB7" stroke="none" stroke-linecap="round" d="M 382.4096 72.8016 L 380.2202 70.1527 L 378.409 70.4936 L 377.0827 73.91 L 376.545 78.3536 L 380.5207 76.9806 L 384.5458 76.7421 L 382.4096 72.8016 Z " stroke-width="0.192543721658221"/>
    <path id="ID0.6377782253548503" fill="#809BB7" stroke="none" stroke-linecap="round" d="M 380.9858 66.5289 L 378.0242 63.3793 L 375.8827 67.86 L 375.3142 72.1505 L 379.3207 70.9306 L 383.5942 70.5924 L 380.9858 66.5289 Z " stroke-width="0.192543721658221"/>
  </g>
  <g id="ID0.32532088877633214">
    <path id="ID0.5138625972904265" fill="#809BB7" stroke="none" d="M 411.9869 59.7786 L 410.3915 60.2188 L 411.2949 64.083 L 412.8903 63.6429 L 411.9869 59.7786 Z " stroke-width="0.15148764545922142"/>
    <path id="ID0.6377782253548503" fill="#809BB7" stroke="none" stroke-linecap="round" d="M 413.1071 55.023 L 411.9125 54.2055 L 408.2865 55.2058 L 407.3506 56.6506 L 408.115 59.9204 L 409.156 60.7407 L 413.1445 59.6403 L 413.8542 58.2184 L 413.1071 55.023 Z " stroke-width="0.15148764545922142"/>
    <path id="ID0.6377782253548503" fill="#809BB7" stroke="none" stroke-linecap="round" d="M 411.9282 50.0637 L 410.8387 49.3182 L 407.5321 50.2305 L 406.6785 51.5481 L 407.3757 54.5299 L 408.3249 55.278 L 411.9623 54.2745 L 412.6095 52.9778 L 411.9282 50.0637 Z " stroke-width="0.13814911872187524"/>
    <path id="ID0.6377782253548503" fill="#809BB7" stroke="none" stroke-linecap="round" d="M 410.7226 46.0237 L 409.8498 45.4265 L 407.2008 46.1573 L 406.5171 47.2128 L 407.0755 49.6016 L 407.836 50.2009 L 410.7499 49.397 L 411.2684 48.3582 L 410.7226 46.0237 Z " stroke-width="0.11067196095263404"/>
  </g>
  <g id="ID0.07672071224078536">
    <path id="ID0.5755643504671752" fill="#809BB7" stroke="none" stroke-linecap="round" d="M 399.4537 67.5339 L 397.9135 67.6994 L 399.4209 81.7346 L 400.9612 81.5691 L 399.4537 67.5339 Z " stroke-width="0.1499765437534337"/>
    <path id="ID0.6377782253548503" fill="#809BB7" stroke="none" stroke-linecap="round" d="M 402.0851 73.8391 L 401.6519 72.3848 L 400.4825 70.5228 L 399.8659 69.94 L 397.864 70.6418 L 397.2701 71.8819 L 396.6479 75.4372 L 397.7087 74.9987 L 398.5259 74.8704 L 399.0987 74.0788 L 399.8088 73.9214 L 400.2112 74.1215 L 402.0851 73.8391 Z " stroke-width="0.1499765437534337"/>
    <path id="ID0.6377782253548503" fill="#809BB7" stroke="none" stroke-linecap="round" d="M 402.48 70.0768 L 400.8738 67.6938 L 398.5402 65.3078 L 397.6306 67.7988 L 396.6662 71.3908 L 397.5173 70.9343 L 398.2531 70.693 L 399.8618 70.5202 L 402.48 70.0768 Z " stroke-width="0.1499765437534337"/>
  </g>
  <g id="ID0.9161517578177154">
    <path id="ID0.7481145667843521" fill="#809BB7" stroke="none" d="M 400.4954 56.4824 L 401.7119 55.8855 L 407.5757 72.7554 L 406.3593 73.3523 L 400.4954 56.4824 Z " stroke-width="0.4144182883128543"/>
    <path id="ID0.7664037430658937" fill="#809BB7" stroke="none" stroke-linecap="round" d="M 397.0228 56.3235 L 398.9096 51.9201 L 403.5951 52.2911 L 407.6028 56.0376 L 401.2327 56.5553 L 396.806 61.0252 L 397.0228 56.3235 Z " stroke-width="0.4144182883128543"/>
    <path id="ID0.8637174661271274" fill="#809BB7" stroke="none" stroke-linecap="round" d="M 402.7911 60.3833 L 404.4936 59.2348 L 407.6534 59.1821 L 404.5667 60.1826 L 402.8801 61.5244 L 402.7911 60.3833 Z " stroke-width="0.7459529230786848"/>
    <path id="ID0.8637174661271274" fill="#809BB7" stroke="none" stroke-linecap="round" d="M 404.0898 65.4955 L 403.0798 65.8669 L 401.7499 67.2026 L 403.0511 66.4399 L 404.5175 65.9066 L 404.0898 65.4955 Z " stroke-width="0.4144182883128543"/>
  </g>
  <g id="ID0.7277544308453798">
    <path id="ID0.8515107058919966" fill="#809BB7" stroke="none" d="M 394.882 73.5578 L 393.9081 73.6697 L 395.2594 82.8721 L 396.2333 82.7601 L 394.882 73.5578 Z " stroke-width="0.19366805443614074"/>
    <path id="ID0.5577249256893992" fill="#809BB7" stroke="none" stroke-linecap="round" d="M 396.4101 75.7216 L 394.4982 75.44 L 393.5367 76.386 L 392.7796 77.225 L 393.0568 78.3629 L 395.1851 78.6195 L 396.6277 77.9524 L 396.9877 76.6578 L 396.4101 75.7216 Z " stroke-width="0.19366805443614074"/>
    <path id="ID0.8560941652394831" fill="#809BB7" stroke="none" stroke-linecap="round" d="M 396.5509 72.6247 L 394.6744 71.0858 L 393.2431 70.3313 L 392.6791 72.4849 L 391.8624 74.4169 L 392.7647 75.3158 L 394.8448 75.2438 L 397.0327 74.4074 L 396.5509 72.6247 Z " stroke-width="0.19366805443614074"/>
  </g>
  <g id="ID0.15554087748751044">
    <path id="ID0.8482902436517179" fill="#809BB7" stroke="none" d="M 235.4369 83.8831 L 237.8036 84.07 L 237.6384 90.4679 L 235.2718 90.281 L 235.4369 83.8831 Z " stroke-width="0.4855828701828402"/>
    <path id="ID0.5404099025763571" fill="#809BB7" stroke="none" stroke-linecap="round" d="M 233.2191 82.5796 L 236.3485 81.9257 L 238.1065 82.723 L 240.1675 83.267 L 241.0748 84.8634 L 240.3193 86.5711 L 237.2522 87.1086 L 233.2141 86.2178 L 231.984 84.4919 L 233.2191 82.5796 Z " stroke-width="0.4855828701828402"/>
  </g>
  <g id="ID0.7277544308453798">
    <path id="ID0.8515107058919966" fill="#809BB7" stroke="none" d="M 456.2231 55.5381 L 455.2492 55.4262 L 454.4774 64.6952 L 455.4513 64.8071 L 456.2231 55.5381 Z " stroke-width="0.1936680581565307"/>
    <path id="ID0.5577249256893992" fill="#809BB7" stroke="none" stroke-linecap="round" d="M 457.2205 57.9922 L 455.4223 57.2842 L 454.2713 57.9874 L 453.3436 58.6327 L 453.3553 59.8038 L 455.3699 60.5367 L 456.9262 60.2142 L 457.5706 59.0351 L 457.2205 57.9922 Z " stroke-width="0.1936680581565307"/>
    <path id="ID0.8560941652394831" fill="#809BB7" stroke="none" stroke-linecap="round" d="M 458.0316 55.022 L 456.5532 53.0975 L 455.3305 52.0379 L 454.2925 54.0074 L 453.0588 55.7037 L 453.7336 56.7838 L 455.7758 57.1857 L 458.0964 56.8676 L 458.0316 55.022 Z " stroke-width="0.1936680581565307"/>
  </g>
  <g id="ID0.13338996097445488">
    <path id="ID0.5138625972904265" fill="#809BB7" stroke="none" d="M 424.0432 56.3079 L 423.0574 56.452 L 422.9315 60.8174 L 423.9173 60.6733 L 424.0432 56.3079 Z " stroke-width="0.13336243154890443"/>
    <path id="ID0.6377782253548503" fill="#809BB7" stroke="none" stroke-linecap="round" d="M 425.0147 53.2221 L 424.2759 50.9894 L 423.335 51.1269 L 422.2462 53.2923 L 421.2955 56.8587 L 423.5808 56.5247 L 425.774 56.2878 L 425.0147 53.2221 Z " stroke-width="0.13336243154890443"/>
    <path id="ID0.6377782253548503" fill="#809BB7" stroke="none" stroke-linecap="round" d="M 425.1849 48.3444 L 424.4259 46.0394 L 423.485 46.1769 L 422.4043 48.8344 L 421.5881 52.3811 L 423.7308 51.5747 L 425.7577 51.6881 L 425.1849 48.3444 Z " stroke-width="0.13336243154890443"/>
    <path id="ID0.6377782253548503" fill="#809BB7" stroke="none" stroke-linecap="round" d="M 425.2513 43.1976 L 424.1711 40.4297 L 422.5543 43.8844 L 421.7417 47.3051 L 423.8808 46.6247 L 426.0434 46.6765 L 425.2513 43.1976 Z " stroke-width="0.13336243154890443"/>
  </g>
  <g id="ID0.5213190782815218">
    <path id="ID0.1596489236690104" fill="#809BB7" stroke="none" d="M 435.9338 46.8275 L 432.6814 47.3779 L 433.3182 65.8073 L 436.5705 65.2568 L 435.9338 46.8275 Z " stroke-width="0.5982879287867917"/>
    <path id="ID0.8456291356123984" fill="#809BB7" stroke="none" stroke-linecap="round" d="M 439.9841 45.0869 L 437.7282 42.9165 L 438.1272 38.6848 L 435.4961 36.1749 L 430.9651 36.5388 L 428.4024 41.2709 L 429.9633 44.365 L 428.8184 48.0512 L 428.9291 51.2563 L 432.4591 53.4798 L 438.2088 51.5664 L 440.3124 49.3298 L 439.9841 45.0869 Z " stroke-width="0.6395269282511983"/>
  </g>
  <g id="ID0.07672071224078536">
    <path id="ID0.5755643504671752" fill="#809BB7" stroke="none" stroke-linecap="round" d="M 447.7187 52.5611 L 445.6825 52.9883 L 444.3062 62.0419 L 446.3425 61.6147 L 447.7187 52.5611 Z " stroke-width="0.14800794804987277"/>
    <path id="ID0.6377782253548503" fill="#809BB7" stroke="none" stroke-linecap="round" d="M 451.1972 55.457 L 451.1282 54.4698 L 449.4264 53.8502 L 447.7245 53.2306 L 445.71 53.8035 L 444.8542 54.534 L 443.9473 55.0248 L 441.7842 57.497 L 444.9941 56.2075 L 446.1213 55.4201 L 447.1719 55.4251 L 449.033 55.285 L 451.1972 55.457 Z " stroke-width="0.14800794804987277"/>
    <path id="ID0.6377782253548503" fill="#809BB7" stroke="none" stroke-linecap="round" d="M 451.2461 52.3441 L 449.9632 50.9855 L 448.2752 50.5633 L 445.8888 50.9889 L 444.4507 52.0919 L 442.7491 54.3521 L 443.4791 54.4494 L 444.4332 54.2242 L 445.4248 54.0412 L 447.5062 53.6045 L 448.5292 53.2146 L 450.4376 52.7641 L 451.2461 52.3441 Z " stroke-width="0.14800794804987277"/>
  </g>
  <g id="ID0.9161517578177154">
    <path id="ID0.7481145667843521" fill="#809BB7" stroke="none" d="M 474.1767 49.5654 L 475.9402 49.4603 L 473.7914 67.1828 L 472.0279 67.288 L 474.1767 49.5654 Z " stroke-width="0.5235215895798546"/>
    <path id="ID0.7664037430658937" fill="#809BB7" stroke="none" stroke-linecap="round" d="M 470.1471 48.1459 L 474.7579 44.7725 L 480.1104 46.8325 L 482.8393 51.76 L 475.0112 49.903 L 467.3546 52.4067 L 470.1471 48.1459 Z " stroke-width="0.5235215895798546"/>
    <path id="ID0.8637174661271274" fill="#809BB7" stroke="none" stroke-linecap="round" d="M 474.7792 54.0303 L 477.4162 53.5942 L 481.1892 54.7038 L 476.9917 54.496 L 474.2694 55.1164 L 474.7792 54.0303 Z " stroke-width="0.9423388670331586"/>
    <path id="ID0.8637174661271274" fill="#809BB7" stroke="none" stroke-linecap="round" d="M 473.5504 59.1575 L 472.1531 59.1302 L 469.8568 59.8757 L 471.8102 59.6486 L 473.8355 59.6938 L 473.5504 59.1575 Z " stroke-width="0.5235215895798546"/>
  </g>
  <path id="ID0.457275272347033" fill="url(#grad_1-,0,0,1,0,-88)" stroke="none" d="M 0 36 L 480 36 L 480 219 L 0 219 L 0 36 Z " stroke-width="1"/>
</svg>