<svg xmlns="http://www.w3.org/2000/svg" xmlns:xlink="http://www.w3.org/1999/xlink" version="1.1" width="392" height="290" viewBox="0 0 392 290">
  <!-- Exported by Scratch - http://scratch.mit.edu/ -->
  <path id="ID0.2895426354371011" fill="none" stroke="#000000" stroke-width="2" stroke-linecap="round" d="M 27 288 L 27 260 "/>
  <path id="ID0.5810184893198311" fill="none" stroke="#000000" stroke-width="2" stroke-linecap="round" d="M 27 257 L 7 257 "/>
  <path id="ID0.2503021531738341" fill="none" stroke="#000000" stroke-width="2" stroke-linecap="round" d="M 7 259 L 7 215 "/>
  <path id="ID0.38969052070751786" fill="none" stroke="#000000" stroke-width="2" stroke-linecap="round" d="M 8 211 L 18 211 "/>
  <path id="ID0.7801951561123133" fill="none" stroke="#000000" stroke-width="2" stroke-linecap="round" d="M 18 213 L 18 1 "/>
  <path id="ID0.13518235739320517" fill="none" stroke="#000000" stroke-width="2" stroke-linecap="round" d="M 93 178 L 93 120 "/>
  <path id="ID0.6507185120135546" fill="none" stroke="#000000" stroke-width="2" stroke-linecap="round" d="M 92 182 L 103 182 "/>
  <path id="ID0.5481700850650668" fill="none" stroke="#000000" stroke-width="2" stroke-linecap="round" d="M 104 175 L 104 43 "/>
  <path id="ID0.8640206144191325" fill="none" stroke="#000000" stroke-width="2" stroke-linecap="round" d="M 89 68 L 89 40 "/>
  <path id="ID0.88785072369501" fill="none" stroke="#000000" stroke-width="2" stroke-linecap="round" d="M 89 39 L 104 39 "/>
  <path id="ID0.8831504550762475" fill="none" stroke="#000000" stroke-width="2" stroke-linecap="round" d="M 97 31 C 99.483 31 101.733 32.008 103.362 33.638 C 104.992 35.267 106 37.517 106 40 C 106 42.483 104.992 44.733 103.362 46.362 C 101.733 47.992 99.483 49 97 49 C 94.517 49 92.267 47.992 90.638 46.362 C 89.008 44.733 88 42.483 88 40 C 88 37.517 89.008 35.267 90.638 33.638 C 92.267 32.008 94.517 31 97 31 Z "/>
  <path id="ID0.13355308631435037" fill="none" stroke="#000000" stroke-width="2" d="M 88.5 77 C 93.052 77 97.177 78.849 100.164 81.836 C 103.151 84.823 105 88.948 105 93.5 C 105 98.052 103.151 102.177 100.164 105.164 C 97.177 108.151 93.052 110 88.5 110 C 83.948 110 79.823 108.151 76.836 105.164 C 73.849 102.177 72 98.052 72 93.5 C 72 88.948 73.849 84.823 76.836 81.836 C 79.823 78.849 83.948 77 88.5 77 Z "/>
  <path id="ID0.13355308631435037" fill="none" stroke="#000000" stroke-width="2" d="M 17.5 113 C 22.052 113 26.177 114.849 29.164 117.836 C 32.151 120.823 34 124.948 34 129.5 C 34 134.052 32.151 138.177 29.164 141.164 C 26.177 144.151 22.052 146 17.5 146 C 12.948 146 8.823 144.151 5.836 141.164 C 2.849 138.177 1 134.052 1 129.5 C 1 124.948 2.849 120.823 5.836 117.836 C 8.823 114.849 12.948 113 17.5 113 Z "/>
  <path id="ID0.5805245940573514" fill="none" stroke="#000000" stroke-width="2" stroke-linecap="round" d="M 218 145 L 218 72 "/>
  <path id="ID0.8597861151210964" fill="none" stroke="#000000" stroke-width="2" stroke-linecap="round" d="M 217 152 L 232 152 "/>
  <path id="ID0.37942364532500505" fill="none" stroke="#000000" stroke-width="2" stroke-linecap="round" d="M 232 142 L 232 71 "/>
  <path id="ID0.04808001685887575" fill="none" stroke="#000000" stroke-width="2" stroke-linecap="round" d="M 231 65 L 219 65 "/>
  <path id="ID0.8831504550762475" fill="none" stroke="#000000" stroke-width="2" stroke-linecap="round" d="M 224 55 C 226.483 55 228.733 56.008 230.362 57.638 C 231.992 59.267 233 61.517 233 64 C 233 66.483 231.992 68.733 230.362 70.362 C 228.733 71.992 226.483 73 224 73 C 221.517 73 219.267 71.992 217.638 70.362 C 216.008 68.733 215 66.483 215 64 C 215 61.517 216.008 59.267 217.638 57.638 C 219.267 56.008 221.517 55 224 55 Z "/>
  <path id="ID0.9712750161997974" fill="none" stroke="#000000" stroke-width="2" stroke-linecap="round" d="M 335 183 L 335 82 "/>
  <path id="ID0.9177874992601573" fill="none" stroke="#000000" stroke-width="2" stroke-linecap="round" d="M 334 79 L 391 79 "/>
  <path id="ID0.06103403912857175" fill="none" stroke="#000000" stroke-width="2" stroke-linecap="round" d="M 362.5 60.7 C 362.5 60.7 362.539 66.529 364 69 C 364.603 70.011 366.637 69.984 367.5 69.2 C 369.084 67.741 370.15 63.7 370.15 63.7 "/>
  <path id="ID0.3170551578514278" fill="#000000" stroke="none" d="M 353.5 52 C 354.19 52 354.815 52.616 355.267 53.612 C 355.72 54.608 356 55.983 356 57.5 C 356 59.017 355.72 60.392 355.267 61.388 C 354.815 62.384 354.19 63 353.5 63 C 352.81 63 352.185 62.384 351.733 61.388 C 351.28 60.392 351 59.017 351 57.5 C 351 55.983 351.28 54.608 351.733 53.612 C 352.185 52.616 352.81 52 353.5 52 Z " stroke-width="1"/>
  <path id="ID0.3170551578514278" fill="#000000" stroke="none" stroke-linecap="round" d="M 380.5 58 C 381.19 58 381.815 58.616 382.267 59.612 C 382.72 60.608 383 61.983 383 63.5 C 383 65.017 382.72 66.392 382.267 67.388 C 381.815 68.384 381.19 69 380.5 69 C 379.81 69 379.185 68.384 378.733 67.388 C 378.28 66.392 378 65.017 378 63.5 C 378 61.983 378.28 60.608 378.733 59.612 C 379.185 58.616 379.81 58 380.5 58 Z " stroke-width="1"/>
  <path id="ID0.8406278388574719" fill="none" stroke="#000000" stroke-width="2" stroke-linecap="round" d="M 335 188 L 388 188 "/>
  <path id="ID0.4594341176562011" fill="none" stroke="#000000" stroke-width="2" stroke-linecap="round" d="M 334 251 L 378 251 "/>
  <path id="ID0.207372410222888" fill="none" stroke="#000000" stroke-width="2" stroke-linecap="round" d="M 335 258 L 335 289 "/>
</svg>