<svg xmlns="http://www.w3.org/2000/svg" xmlns:xlink="http://www.w3.org/1999/xlink" version="1.1" width="145" height="135.75" viewBox="0 0.25 145 135.75">
  <!-- Exported by Scratch - http://scratch.mit.edu/ -->
  <path id="ID0.3505642144009471" fill="none" stroke="#000000" stroke-width="2" stroke-linecap="round" d="M 52 135 L 93 135 "/>
  <path id="ID0.500224172603339" fill="none" stroke="#000000" stroke-width="2" d="M 1 101 L 13 101 L 13 113 L 1 113 L 1 101 Z "/>
  <path id="ID0.500224172603339" fill="none" stroke="#000000" stroke-width="2" d="M 1 55 L 13 55 L 13 67 L 1 67 L 1 55 Z "/>
  <path id="ID0.500224172603339" fill="none" stroke="#000000" stroke-width="2" d="M 132 104 L 144 104 L 144 116 L 132 116 L 132 104 Z "/>
  <path id="ID0.500224172603339" fill="none" stroke="#000000" stroke-width="2" d="M 132 54 L 144 54 L 144 66 L 132 66 L 132 54 Z "/>
  <path id="ID0.15670932549983263" fill="none" stroke="#000000" stroke-width="2" d="M 50 31 L 98 31 L 98 43 L 50 43 L 50 31 Z "/>
  <path id="ID0.5113920159637928" fill="none" stroke="#000000" stroke-width="2" stroke-linecap="round" d="M 82.7 1.25 C 82.7 1.25 77.677 6.322 75.95 9 C 74.612 11.136 73.877 13.748 73.2 16 C 72.616 17.939 72.635 20.03 72.2 22 C 72.049 22.675 72.377 24.442 71.95 24 C 70.464 22.484 70.061 20.126 68.7 18.5 C 67.406 16.961 64.45 14.75 64.45 14.75 "/>
</svg>