<svg xmlns="http://www.w3.org/2000/svg" xmlns:xlink="http://www.w3.org/1999/xlink" version="1.1" width="136" height="233" viewBox="0 0 136 233">
  <!-- Exported by Scratch - http://scratch.mit.edu/ -->
  <path id="ID0.31948744086548686" fill="none" stroke="#000000" stroke-width="2" d="M 58 217 L 98 217 L 98 232 L 58 232 L 58 217 Z "/>
  <path id="ID0.3001633626408875" fill="none" stroke="#000000" stroke-width="2" d="M 17 166 L 29 166 L 29 202 L 17 202 L 17 166 Z "/>
  <path id="ID0.7251558937132359" fill="none" stroke="#000000" stroke-width="2" d="M 117 112 L 132 112 L 132 171 L 117 171 L 117 112 Z "/>
  <path id="ID0.214651208370924" fill="none" stroke="#000000" stroke-width="2" d="M 49 121 L 98 121 L 98 132 L 49 132 L 49 121 Z "/>
  <path id="ID0.7235346562229097" fill="none" stroke="#000000" stroke-width="2" d="M 1 64 L 13 64 L 13 103 L 1 103 L 1 64 Z "/>
  <path id="ID0.610235451720655" fill="none" stroke="#000000" stroke-width="2" d="M 1 1 L 15 1 L 15 39 L 1 39 L 1 1 Z "/>
  <path id="ID0.15429793624207377" fill="none" stroke="#000000" stroke-width="2" d="M 57 30 L 135 30 L 135 43 L 57 43 L 57 30 Z "/>
</svg>