<svg xmlns="http://www.w3.org/2000/svg" xmlns:xlink="http://www.w3.org/1999/xlink" version="1.1" width="323.9000060558319" height="105.1532027721405" viewBox="-0.6499999761581421 -0.6499999761581421 323.9000060558319 105.1532027721405">
  <!-- Exported by Scratch - http://scratch.mit.edu/ -->
  <g id="ID0.32532088877633214">
    <path id="ID0.5138625972904265" fill="#809BB7" stroke="none" d="M 85.5285 90.4172 L 89.9529 90.5893 L 89.5461 101.0468 L 85.1218 100.8747 L 85.5285 90.4172 Z " stroke-width="0.40251568441071467"/>
    <path id="ID0.6377782253548503" fill="#809BB7" stroke="none" stroke-linecap="round" d="M 80.1092 78.8376 L 82.837 76.0232 L 92.8923 76.4144 L 96.0932 79.56 L 95.749 88.4087 L 93.4273 91.1381 L 82.3665 90.7079 L 79.7728 87.4851 L 80.1092 78.8376 Z " stroke-width="0.40251568441071467"/>
    <path id="ID0.6377782253548503" fill="#809BB7" stroke="none" stroke-linecap="round" d="M 80.8074 65.4236 L 83.295 62.857 L 92.4649 63.2137 L 95.384 66.0824 L 95.0701 74.1519 L 92.9529 76.6411 L 82.866 76.2487 L 80.5007 73.3097 L 80.8074 65.4236 Z " stroke-width="0.3670740577066728"/>
    <path id="ID0.6377782253548503" fill="#809BB7" stroke="none" stroke-linecap="round" d="M 81.9789 54.4869 L 83.9717 52.4308 L 91.3178 52.7165 L 93.6563 55.0147 L 93.4048 61.4792 L 91.7087 63.4732 L 83.628 63.1589 L 81.7331 60.8045 L 81.9789 54.4869 Z " stroke-width="0.2940648880432058"/>
  </g>
  <g id="ID0.13338996097445488">
    <path id="ID0.5138625972904265" fill="#809BB7" stroke="none" d="M 56.9412 88.529 L 61.7971 88.529 L 61.7971 100.0067 L 56.9412 100.0067 L 56.9412 88.529 Z " stroke-width="0.4414507746696472"/>
    <path id="ID0.6377782253548503" fill="#809BB7" stroke="none" stroke-linecap="round" d="M 52.6353 80.8009 L 56.6084 74.6206 L 61.2436 74.6206 L 66.3203 79.918 L 70.5141 88.9678 L 59.2571 88.9678 L 48.4416 89.1885 L 52.6353 80.8009 Z " stroke-width="0.4414507746696472"/>
    <path id="ID0.6377782253548503" fill="#809BB7" stroke="none" stroke-linecap="round" d="M 52.525 68.1496 L 56.6084 61.7706 L 61.2436 61.7706 L 66.2099 68.3703 L 69.7416 77.4201 L 59.2571 76.1178 L 49.2141 77.1993 L 52.525 68.1496 Z " stroke-width="0.4414507746696472"/>
    <path id="ID0.6377782253548503" fill="#809BB7" stroke="none" stroke-linecap="round" d="M 52.9664 54.4478 L 58.7053 46.7224 L 66.2099 55.2203 L 69.7416 63.939 L 59.2571 62.9678 L 48.5519 63.939 L 52.9664 54.4478 Z " stroke-width="0.4414507746696472"/>
  </g>
  <g id="ID0.07672071224078536">
    <path id="ID0.5755643504671752" fill="#809BB7" stroke="none" stroke-linecap="round" d="M 169.9103 52.3418 L 165.3037 51.7271 L 159.7021 93.7043 L 164.3087 94.319 L 169.9103 52.3418 Z " stroke-width="0.4499460668959237"/>
    <path id="ID0.6377782253548503" fill="#809BB7" stroke="none" stroke-linecap="round" d="M 173.1496 72.6674 L 172.9228 68.1205 L 170.8407 61.8612 L 169.4589 59.7237 L 163.1247 60.3433 L 160.5109 63.5345 L 156.1658 73.4528 L 159.5696 72.9304 L 162.0425 73.1384 L 164.2756 71.2391 L 166.4573 71.2861 L 167.4873 72.1559 L 173.1496 72.6674 Z " stroke-width="0.4499460668959237"/>
    <path id="ID0.6377782253548503" fill="#809BB7" stroke="none" stroke-linecap="round" d="M 176.8753 61.8475 L 173.8912 53.7588 L 168.7894 45.1434 L 164.3646 51.7551 L 158.9958 61.5368 L 161.8014 60.8125 L 164.1176 60.6333 L 168.9289 61.2754 L 176.8753 61.8475 Z " stroke-width="0.4499460668959237"/>
  </g>
  <g id="ID0.7277544308453798">
    <path id="ID0.8515107058919966" fill="#809BB7" stroke="none" d="M 108.7155 47.4288 L 113.2059 47.7229 L 109.5456 103.6032 L 105.0553 103.3091 L 108.7155 47.4288 Z " stroke-width="1.0000000128503022"/>
    <path id="ID0.5577249256893992" fill="#809BB7" stroke="none" stroke-linecap="round" d="M 102.3122 61.0394 L 110.9901 58.6014 L 115.6526 63.9175 L 119.35 68.6693 L 118.3935 75.6217 L 108.7177 77.9943 L 101.9288 74.5432 L 99.9243 66.8958 L 102.3122 61.0394 Z " stroke-width="1.0000000128503022"/>
    <path id="ID0.8560941652394831" fill="#809BB7" stroke="none" stroke-linecap="round" d="M 100.9605 42.4339 L 109.1308 32.4466 L 115.4775 27.3505 L 118.6519 40.0852 L 122.9222 51.3885 L 119.0375 57.1469 L 109.4925 57.5239 L 99.2437 53.345 L 100.9605 42.4339 Z " stroke-width="1.0000000128503022"/>
  </g>
  <g id="ID0.07672071224078536">
    <path id="ID0.5755643504671752" fill="#809BB7" stroke="none" stroke-linecap="round" d="M 140.9509 63.6328 L 144.8302 64.0134 L 141.3977 98.9974 L 137.5183 98.6168 L 140.9509 63.6328 Z " stroke-width="0.375130906757789"/>
    <path id="ID0.6377782253548503" fill="#809BB7" stroke="none" stroke-linecap="round" d="M 131.8022 77.2896 L 132.6255 73.3337 L 136.5425 69.7823 L 140.4595 66.2309 L 144.1938 67.2028 L 145.4436 69.5456 L 146.9638 70.9058 L 149.6906 79.3072 L 144.0008 76.2664 L 142.2338 73.8728 L 140.0765 74.5694 L 136.3577 75.2137 L 131.8022 77.2896 Z " stroke-width="0.375130906757789"/>
    <path id="ID0.6377782253548503" fill="#809BB7" stroke="none" stroke-linecap="round" d="M 133.8928 65.167 L 137.4614 58.9575 L 141.2137 56.1973 L 145.8121 56.3457 L 147.9983 59.7896 L 149.9254 67.6483 L 148.3618 68.5041 L 146.5612 68.2265 L 144.6549 68.1403 L 140.6893 67.7513 L 138.8614 66.8655 L 135.2603 66.3103 L 133.8928 65.167 Z " stroke-width="0.375130906757789"/>
  </g>
  <g id="ID0.5213190782815218">
    <path id="ID0.1596489236690104" fill="#809BB7" stroke="none" d="M 189.95 67 L 194.45 67 L 194.45 101.5 L 189.95 101.5 L 189.95 67 Z " stroke-width="0.9513148682441204"/>
    <path id="ID0.8456291356123984" fill="#809BB7" stroke="none" stroke-linecap="round" d="M 184.25 65 L 187.25 60.25 L 186.5 52.5 L 190 47 L 196.25 46.25 L 200 54.25 L 198 60.5 L 199.75 67 L 199.75 73 L 195 78.25 L 187 76.5 L 184 73 L 184.25 65 Z " stroke-width="1"/>
  </g>
  <g id="ID0.16197650181129575">
    <path id="ID0.2429629685357213" fill="#809BB7" stroke="none" d="M 223.75 37.5 L 227.75 37.5 L 227.75 102.75 L 223.75 102.75 L 223.75 37.5 Z " stroke-width="1"/>
    <path id="ID0.4719710564240813" fill="#809BB7" stroke="none" stroke-linecap="round" d="M 217.75 26 L 214 29.25 L 218.75 18.25 L 227 8.75 L 231.75 14.5 L 239.5 28.75 L 232.25 24.75 L 236.5 30 L 240.5 36.5 L 232.5 34.25 L 238.25 42.75 L 239.75 49.25 L 229.25 46 L 222.75 45 L 210.25 50 L 216 40.25 L 219 36.75 L 211.25 40.25 L 216.75 29.5 L 218.75 27 L 217.75 26 Z " stroke-width="1"/>
    <path id="ID0.5574884423986077" fill="#809BB7" stroke="none" stroke-linecap="round" d="M 227 56 L 230.25 60 L 231.5 66.5 L 225.75 62.25 L 227 56 Z " stroke-width="1"/>
    <path id="ID0.5574884423986077" fill="#809BB7" stroke="none" stroke-linecap="round" d="M 225.1 73 L 222.5 77 L 220 81.25 L 224.75 77.5 L 225.1 73 Z " stroke-width="1"/>
  </g>
  <g id="ID0.5372698470018804">
    <path id="ID0.996752165723592" fill="#809BB7" stroke="none" d="M 262.5 77.75 L 265 77.75 L 265 102.75 L 262.5 102.75 L 262.5 77.75 Z " stroke-width="1"/>
    <path id="ID0.3925567790865898" fill="#809BB7" stroke="none" stroke-linecap="round" d="M 258 65 L 254.25 61.5 L 254.25 58 L 255.5 51.5 L 258.25 46 L 263.25 43 L 269.25 50 L 270.75 56.25 L 267 62.25 L 270 67 L 271.25 75 L 266.25 80.5 L 258 78.75 L 253.25 75.75 L 253.75 68.5 L 258 65 Z " stroke-width="1"/>
    <path id="ID0.4457426266744733" fill="#809BB7" stroke="none" stroke-linecap="round" d="M 258 85.5 L 260.5 83 L 263.5 83.5 L 263.25 87.25 L 260.25 87.75 L 258 85.5 Z " stroke-width="1"/>
  </g>
  <g id="ID0.9161517578177154">
    <path id="ID0.7481145667843521" fill="#809BB7" stroke="none" d="M 286.75 21.75 L 289.25 21.75 L 289.25 101.25 L 286.75 101.25 L 286.75 21.75 Z " stroke-width="1"/>
    <path id="ID0.7664037430658937" fill="#809BB7" stroke="none" stroke-linecap="round" d="M 280.75 14.25 L 286.75 0.25 L 294.75 11 L 299.5 34 L 288 23.5 L 277.5 32.75 L 280.75 14.25 Z " stroke-width="1"/>
    <path id="ID0.8637174661271274" fill="#809BB7" stroke="none" stroke-linecap="round" d="M 288.3 42.05 L 291.99 40.79 L 297.57 46.82 L 291.54 44.75 L 287.76 46.82 L 288.3 42.05 Z " stroke-width="1.7999999523162842"/>
    <path id="ID0.8637174661271274" fill="#809BB7" stroke="none" stroke-linecap="round" d="M 287.65 65 L 285.65 64.5 L 282.5 67.25 L 285.25 66.75 L 288.15 67.5 L 287.65 65 Z " stroke-width="1"/>
  </g>
  <g id="ID0.15554087748751044">
    <path id="ID0.8482902436517179" fill="#809BB7" stroke="none" d="M 312.75 81 L 316.75 81 L 316.75 99.5 L 312.75 99.5 L 312.75 81 Z " stroke-width="1"/>
    <path id="ID0.5404099025763571" fill="#809BB7" stroke="none" stroke-linecap="round" d="M 309 77.85 L 314.25 75.25 L 317.25 77.15 L 320.75 78.25 L 322.35 82.65 L 321.15 87.75 L 316 90 L 309.15 88.35 L 307 83.65 L 309 77.85 Z " stroke-width="1"/>
  </g>
  <g id="ID0.8695859415456653">
    <path id="ID0.7277065478265285" fill="#809BB7" stroke="none" d="M 16.25 40.5 L 22.5 40.5 L 22.5 101.5 L 16.25 101.5 L 16.25 40.5 Z " stroke-width="1"/>
    <path id="ID0.8004378951154649" fill="#809BB7" stroke="none" stroke-linecap="round" d="M 14 26.5 L 19.5 26.5 L 25.5 23.5 L 30.25 26.75 L 35.75 31.5 L 37.5 41.5 L 37.25 51 L 33.5 58.25 L 26.25 61.5 L 16.75 61.75 L 7.5 60.25 L 2.5 57.5 L 0.25 46.5 L 2.5 34.5 L 9 25.5 L 14 26.5 Z " stroke-width="1"/>
    <path id="ID0.23617623001337051" fill="#809BB7" stroke="none" stroke-linecap="round" d="M 8 66.5 L 13.75 65.25 L 18.25 67.25 L 18.5 72.25 L 13 75.25 L 7 72.5 L 4.25 69.75 L 8 66.5 Z " stroke-width="1"/>
    <path id="ID0.23617623001337051" fill="#809BB7" stroke="none" stroke-linecap="round" d="M 27.25 80.5 L 24.25 78.5 L 20.35 77.75 L 20.5 82 L 25 82.75 L 27.25 80.5 Z " stroke-width="1"/>
  </g>
</svg>