<svg xmlns="http://www.w3.org/2000/svg" xmlns:xlink="http://www.w3.org/1999/xlink" version="1.1" width="149" height="212" viewBox="0 0 149 212">
  <!-- Exported by Scratch - http://scratch.mit.edu/ -->
  <path id="ID0.7541516702622175" fill="none" stroke="#000000" stroke-width="2" stroke-linecap="round" d="M 42 211 L 93 211 "/>
  <path id="ID0.004035745281726122" fill="none" stroke="#000000" stroke-width="2" stroke-linecap="round" d="M 40 203 L 40 5 "/>
  <path id="ID0.17306403582915664" fill="none" stroke="#000000" stroke-width="2" stroke-linecap="round" d="M 46 1 L 93 1 "/>
  <path id="ID0.7643507812172174" fill="none" stroke="#000000" stroke-width="2" stroke-linecap="round" d="M 93 204 L 93 11 "/>
  <path id="ID0.4847663938999176" fill="none" stroke="#000000" stroke-width="2" d="M 40 61 C 44.138 61 47.888 62.681 50.604 65.396 C 53.319 68.112 55 71.862 55 76 C 55 80.138 53.319 83.888 50.604 86.604 C 47.888 89.319 44.138 91 40 91 C 35.862 91 32.112 89.319 29.396 86.604 C 26.681 83.888 25 80.138 25 76 C 25 71.862 26.681 68.112 29.396 65.396 C 32.112 62.681 35.862 61 40 61 Z "/>
  <path id="ID0.4847663938999176" fill="none" stroke="#000000" stroke-width="2" d="M 93 133 C 97.138 133 100.888 134.681 103.604 137.396 C 106.319 140.112 108 143.862 108 148 C 108 152.138 106.319 155.888 103.604 158.604 C 100.888 161.319 97.138 163 93 163 C 88.862 163 85.112 161.319 82.396 158.604 C 79.681 155.888 78 152.138 78 148 C 78 143.862 79.681 140.112 82.396 137.396 C 85.112 134.681 88.862 133 93 133 Z "/>
  <g id="ID0.8083833628334105">
    <path id="ID0.4136994634754956" fill="none" stroke="#000000" stroke-width="2" stroke-linecap="round" d="M 136 149 L 136 62 "/>
    <path id="ID0.02296196948736906" fill="none" stroke="#000000" stroke-width="2" stroke-linecap="round" d="M 127 68 L 137 48 L 148 67 "/>
    <path id="ID0.02296196948736906" fill="none" stroke="#000000" stroke-width="2" stroke-linecap="round" d="M 127 143.55 L 137 163.55 L 148 144.55 "/>
  </g>
  <g id="ID0.8083833628334105">
    <path id="ID0.4136994634754956" fill="none" stroke="#000000" stroke-width="2" stroke-linecap="round" d="M 10 145.5 L 10 58.5 "/>
    <path id="ID0.02296196948736906" fill="none" stroke="#000000" stroke-width="2" stroke-linecap="round" d="M 1 64.5 L 11 44.5 L 22 63.5 "/>
    <path id="ID0.02296196948736906" fill="none" stroke="#000000" stroke-width="2" stroke-linecap="round" d="M 1 140.05 L 11 160.05 L 22 141.05 "/>
  </g>
  <text id="ID0.056970978155732155" fill="#000000" text-anchor="start" font-family="Sans Serif" font-size="22" transform="matrix(1 0 0 1 45.25 3.4)" stroke-width="1" alignment-baseline="text-before-edge" xml:space="preserve"><tspan x="0" style="white-space: pre" dy="1.13em">Yes</tspan></text>
  <path id="ID0.37003575544804335" fill="none" stroke="#000000" stroke-width="2" d="M 58 35 L 78 35 L 78 44 L 58 44 L 58 35 Z "/>
</svg>