<svg xmlns="http://www.w3.org/2000/svg" xmlns:xlink="http://www.w3.org/1999/xlink" version="1.1" width="487" height="109" viewBox="0 1 487 109">
  <!-- Exported by Scratch - http://scratch.mit.edu/ -->
  <path id="ID0.12528047617524862" fill="none" stroke="#000000" stroke-width="2" d="M 88 34 L 101 34 L 101 108 L 88 108 L 88 34 Z "/>
  <path id="ID0.47196014970541" fill="none" stroke="#000000" stroke-width="2" d="M 100 90 L 147 90 L 147 108 L 100 108 L 100 90 Z "/>
  <path id="ID0.6439059334807098" fill="none" stroke="#000000" stroke-width="2" d="M 191 90 L 301 90 L 301 108 L 191 108 L 191 90 Z "/>
  <path id="ID0.5887633827514946" fill="none" stroke="#000000" stroke-width="2" d="M 352 90 L 469 90 L 469 107 L 352 107 L 352 90 Z "/>
  <path id="ID0.13198369648307562" fill="none" stroke="#000000" stroke-width="2" d="M 226 57 L 301 57 L 301 89 L 226 89 L 226 57 Z "/>
  <path id="ID0.954256430733949" fill="none" stroke="#000000" stroke-width="2" d="M 190 15 L 204 15 L 204 61 L 190 61 L 190 15 Z "/>
  <path id="ID0.5373345911502838" fill="none" stroke="#000000" stroke-width="2" d="M 352 31 L 422 31 L 422 68 L 352 68 L 352 31 Z "/>
  <path id="ID0.40171157382428646" fill="none" stroke="#000000" stroke-width="2" d="M 452 60 L 468 60 L 468 89 L 452 89 L 452 60 Z "/>
  <path id="ID0.02418252034112811" fill="none" stroke="#000000" stroke-width="2" d="M 469 23 L 486 23 L 486 107 L 469 107 L 469 23 Z "/>
  <path id="ID0.905926572624594" fill="none" stroke="#000000" stroke-width="2" d="M 352 35 C 355.862 35 359.362 36.569 361.897 39.103 C 364.431 41.638 366 45.138 366 49 C 366 52.862 364.431 56.362 361.897 58.897 C 359.362 61.431 355.862 63 352 63 C 348.138 63 344.638 61.431 342.103 58.897 C 339.569 56.362 338 52.862 338 49 C 338 45.138 339.569 41.638 342.103 39.103 C 344.638 36.569 348.138 35 352 35 Z "/>
  <path id="ID0.7573575335554779" fill="none" stroke="#000000" stroke-width="2" d="M 226 77 C 229.311 77 232.311 78.345 234.483 80.517 C 236.655 82.689 238 85.689 238 89 C 238 92.311 236.655 95.311 234.483 97.483 C 232.311 99.655 229.311 101 226 101 C 222.689 101 219.689 99.655 217.517 97.483 C 215.345 95.311 214 92.311 214 89 C 214 85.689 215.345 82.689 217.517 80.517 C 219.689 78.345 222.689 77 226 77 Z "/>
  <path id="ID0.24970887508243322" fill="none" stroke="#000000" stroke-width="2" d="M 45.5 20 C 57.777 20 68.902 24.986 76.958 33.042 C 85.014 41.098 90 52.223 90 64.5 C 90 76.777 85.014 87.902 76.958 95.958 C 68.902 104.014 57.777 109 45.5 109 C 33.223 109 22.098 104.014 14.042 95.958 C 5.986 87.902 1 76.777 1 64.5 C 1 52.223 5.986 41.098 14.042 33.042 C 22.098 24.986 33.223 20 45.5 20 Z "/>
  <path id="ID0.5055733369663358" fill="none" stroke="#000000" stroke-width="2" stroke-linecap="round" d="M 63 12 L 282 12 "/>
  <path id="ID0.304736471734941" fill="none" stroke="#000000" stroke-width="2" stroke-linecap="round" d="M 276 2 L 289 13 L 277 25 "/>
  <path id="ID0.7288798978552222" fill="none" stroke="#000000" stroke-width="2" stroke-linecap="round" d="M 451 43 C 451 43 448.376 48.999 449 52 C 449.289 53.339 451.851 53.612 453 52.9 C 455.334 51.29 458 46 458 46 "/>
  <path id="ID0.2831836841069162" fill="#000000" stroke="none" d="M 444.7727 41.95 C 445.2433 42.0589 445.5712 42.5803 445.7218 43.3356 C 445.8726 44.0901 445.8452 45.0783 445.6042 46.1198 C 445.3632 47.1613 444.9538 48.0612 444.487 48.6727 C 444.0199 49.2851 443.4963 49.6095 443.0257 49.5006 C 442.5552 49.3917 442.2272 48.8704 442.0767 48.115 C 441.9258 47.3606 441.9533 46.3723 442.1943 45.3308 C 442.4352 44.2893 442.8446 43.3895 443.3115 42.778 C 443.7786 42.1655 444.3022 41.8412 444.7727 41.95 Z " stroke-width="0.9999999873088354"/>
  <path id="ID0.2831836841069162" fill="#000000" stroke="none" d="M 464.2727 46.05 C 464.7433 46.1589 465.0712 46.6803 465.2218 47.4356 C 465.3726 48.1901 465.3452 49.1783 465.1042 50.2198 C 464.8632 51.2613 464.4538 52.1612 463.987 52.7727 C 463.5199 53.3851 462.9963 53.7095 462.5257 53.6006 C 462.0552 53.4917 461.7272 52.9704 461.5767 52.215 C 461.4258 51.4606 461.4533 50.4723 461.6943 49.4308 C 461.9352 48.3893 462.3446 47.4895 462.8115 46.878 C 463.2786 46.2655 463.8022 45.9412 464.2727 46.05 Z " stroke-width="0.9999999873088354"/>
  <path id="ID0.7776258196681738" fill="none" stroke="#000000" stroke-width="2" d="M 264.5 41 C 268.776 41 272.651 42.737 275.457 45.543 C 278.263 48.349 280 52.224 280 56.5 C 280 60.776 278.263 64.651 275.457 67.457 C 272.651 70.263 268.776 72 264.5 72 C 260.224 72 256.349 70.263 253.543 67.457 C 250.737 64.651 249 60.776 249 56.5 C 249 52.224 250.737 48.349 253.543 45.543 C 256.349 42.737 260.224 41 264.5 41 Z "/>
  <path id="ID0.41751278936862946" fill="none" stroke="#000000" stroke-width="2" d="M 400.5 80 C 403.397 80 406.022 81.177 407.923 83.077 C 409.823 84.978 411 87.603 411 90.5 C 411 93.397 409.823 96.022 407.923 97.923 C 406.022 99.823 403.397 101 400.5 101 C 397.603 101 394.978 99.823 393.077 97.923 C 391.177 96.022 390 93.397 390 90.5 C 390 87.603 391.177 84.978 393.077 83.077 C 394.978 81.177 397.603 80 400.5 80 Z "/>
</svg>